fiati-regular.ufo
<glyph name="uniE000" format="2">
  <unicode hex="E000"/>
  <outline>
    <contour>
      <point x="191" y="777" type="curve"/>
      <point x="164" y="777"/>
      <point x="141" y="799"/>
      <point x="141" y="827" type="curve" smooth="yes"/>
      <point x="141" y="854"/>
      <point x="164" y="876"/>
      <point x="191" y="876" type="curve" smooth="yes"/>
      <point x="218" y="876"/>
      <point x="241" y="854"/>
      <point x="241" y="827" type="curve" smooth="yes"/>
      <point x="241" y="799"/>
      <point x="218" y="777"/>
    </contour>
    <contour>
      <point x="191" y="870" type="curve"/>
      <point x="167" y="870"/>
      <point x="147" y="851"/>
      <point x="147" y="827" type="curve" smooth="yes"/>
      <point x="147" y="803"/>
      <point x="167" y="783"/>
      <point x="191" y="783" type="curve" smooth="yes"/>
      <point x="215" y="783"/>
      <point x="235" y="803"/>
      <point x="235" y="827" type="curve" smooth="yes"/>
      <point x="235" y="851"/>
      <point x="215" y="870"/>
    </contour>
    <contour>
      <point x="191" y="654" type="curve"/>
      <point x="164" y="654"/>
      <point x="141" y="676"/>
      <point x="141" y="704" type="curve" smooth="yes"/>
      <point x="141" y="731"/>
      <point x="164" y="753"/>
      <point x="191" y="753" type="curve" smooth="yes"/>
      <point x="218" y="753"/>
      <point x="241" y="731"/>
      <point x="241" y="704" type="curve" smooth="yes"/>
      <point x="241" y="676"/>
      <point x="218" y="654"/>
    </contour>
    <contour>
      <point x="191" y="747" type="curve"/>
      <point x="167" y="747"/>
      <point x="147" y="728"/>
      <point x="147" y="704" type="curve" smooth="yes"/>
      <point x="147" y="680"/>
      <point x="167" y="660"/>
      <point x="191" y="660" type="curve" smooth="yes"/>
      <point x="215" y="660"/>
      <point x="235" y="680"/>
      <point x="235" y="704" type="curve" smooth="yes"/>
      <point x="235" y="728"/>
      <point x="215" y="747"/>
    </contour>
    <contour>
      <point x="191" y="398" type="curve"/>
      <point x="164" y="398"/>
      <point x="141" y="420"/>
      <point x="141" y="447" type="curve" smooth="yes"/>
      <point x="141" y="475"/>
      <point x="164" y="497"/>
      <point x="191" y="497" type="curve" smooth="yes"/>
      <point x="218" y="497"/>
      <point x="241" y="475"/>
      <point x="241" y="447" type="curve" smooth="yes"/>
      <point x="241" y="420"/>
      <point x="218" y="398"/>
    </contour>
    <contour>
      <point x="191" y="491" type="curve"/>
      <point x="167" y="491"/>
      <point x="147" y="471"/>
      <point x="147" y="447" type="curve" smooth="yes"/>
      <point x="147" y="423"/>
      <point x="167" y="404"/>
      <point x="191" y="404" type="curve" smooth="yes"/>
      <point x="215" y="404"/>
      <point x="235" y="423"/>
      <point x="235" y="447" type="curve" smooth="yes"/>
      <point x="235" y="471"/>
      <point x="215" y="491"/>
    </contour>
    <contour>
      <point x="191" y="276" type="curve"/>
      <point x="164" y="276"/>
      <point x="141" y="298"/>
      <point x="141" y="326" type="curve" smooth="yes"/>
      <point x="141" y="353"/>
      <point x="164" y="375"/>
      <point x="191" y="375" type="curve" smooth="yes"/>
      <point x="218" y="375"/>
      <point x="241" y="353"/>
      <point x="241" y="326" type="curve" smooth="yes"/>
      <point x="241" y="298"/>
      <point x="218" y="276"/>
    </contour>
    <contour>
      <point x="191" y="369" type="curve"/>
      <point x="167" y="369"/>
      <point x="147" y="350"/>
      <point x="147" y="326" type="curve" smooth="yes"/>
      <point x="147" y="302"/>
      <point x="167" y="282"/>
      <point x="191" y="282" type="curve" smooth="yes"/>
      <point x="215" y="282"/>
      <point x="235" y="302"/>
      <point x="235" y="326" type="curve" smooth="yes"/>
      <point x="235" y="350"/>
      <point x="215" y="369"/>
    </contour>
    <contour>
      <point x="191" y="155" type="curve"/>
      <point x="164" y="155"/>
      <point x="141" y="177"/>
      <point x="141" y="204" type="curve" smooth="yes"/>
      <point x="141" y="232"/>
      <point x="164" y="254"/>
      <point x="191" y="254" type="curve" smooth="yes"/>
      <point x="218" y="254"/>
      <point x="241" y="232"/>
      <point x="241" y="204" type="curve" smooth="yes"/>
      <point x="241" y="177"/>
      <point x="218" y="155"/>
    </contour>
    <contour>
      <point x="191" y="248" type="curve"/>
      <point x="167" y="248"/>
      <point x="147" y="228"/>
      <point x="147" y="204" type="curve" smooth="yes"/>
      <point x="147" y="180"/>
      <point x="167" y="161"/>
      <point x="191" y="161" type="curve" smooth="yes"/>
      <point x="215" y="161"/>
      <point x="235" y="180"/>
      <point x="235" y="204" type="curve" smooth="yes"/>
      <point x="235" y="228"/>
      <point x="215" y="248"/>
    </contour>
    <contour>
      <point x="191" y="897" type="curve"/>
      <point x="164" y="897"/>
      <point x="141" y="919"/>
      <point x="141" y="947" type="curve" smooth="yes"/>
      <point x="141" y="974"/>
      <point x="164" y="996"/>
      <point x="191" y="996" type="curve" smooth="yes"/>
      <point x="218" y="996"/>
      <point x="241" y="974"/>
      <point x="241" y="947" type="curve" smooth="yes"/>
      <point x="241" y="919"/>
      <point x="218" y="897"/>
    </contour>
    <contour>
      <point x="191" y="990" type="curve"/>
      <point x="167" y="990"/>
      <point x="147" y="971"/>
      <point x="147" y="947" type="curve" smooth="yes"/>
      <point x="147" y="923"/>
      <point x="167" y="903"/>
      <point x="191" y="903" type="curve" smooth="yes"/>
      <point x="215" y="903"/>
      <point x="235" y="923"/>
      <point x="235" y="947" type="curve" smooth="yes"/>
      <point x="235" y="971"/>
      <point x="215" y="990"/>
    </contour>
    <contour>
      <point x="264" y="608" type="curve"/>
      <point x="123" y="608" type="line" smooth="yes"/>
      <point x="121" y="608"/>
      <point x="120" y="610"/>
      <point x="120" y="611" type="curve" smooth="yes"/>
      <point x="120" y="613"/>
      <point x="121" y="614"/>
      <point x="123" y="614" type="curve" smooth="yes"/>
      <point x="264" y="614" type="line" smooth="yes"/>
      <point x="266" y="614"/>
      <point x="267" y="613"/>
      <point x="267" y="611" type="curve" smooth="yes"/>
      <point x="267" y="610"/>
      <point x="266" y="608"/>
    </contour>
    <contour>
      <point x="122" y="370" type="curve"/>
      <point x="110" y="370"/>
      <point x="104" y="379"/>
      <point x="104" y="388" type="curve" smooth="yes"/>
      <point x="104" y="397"/>
      <point x="110" y="406"/>
      <point x="121" y="406" type="curve" smooth="yes"/>
      <point x="135" y="406"/>
      <point x="158" y="396"/>
      <point x="158" y="388" type="curve" smooth="yes"/>
      <point x="158" y="380"/>
      <point x="137" y="370"/>
    </contour>
    <contour>
      <point x="121" y="400" type="curve"/>
      <point x="113" y="400"/>
      <point x="110" y="394"/>
      <point x="110" y="388" type="curve" smooth="yes"/>
      <point x="110" y="380"/>
      <point x="116" y="376"/>
      <point x="122" y="376" type="curve" smooth="yes"/>
      <point x="136" y="376"/>
      <point x="150" y="385"/>
      <point x="152" y="388" type="curve"/>
      <point x="150" y="391"/>
      <point x="134" y="400"/>
    </contour>
    <contour>
      <point x="122" y="248" type="curve"/>
      <point x="110" y="248"/>
      <point x="104" y="257"/>
      <point x="104" y="266" type="curve" smooth="yes"/>
      <point x="104" y="274"/>
      <point x="110" y="283"/>
      <point x="121" y="283" type="curve" smooth="yes"/>
      <point x="135" y="283"/>
      <point x="158" y="274"/>
      <point x="158" y="266" type="curve" smooth="yes"/>
      <point x="158" y="258"/>
      <point x="137" y="248"/>
    </contour>
    <contour>
      <point x="121" y="277" type="curve"/>
      <point x="113" y="277"/>
      <point x="110" y="271"/>
      <point x="110" y="266" type="curve" smooth="yes"/>
      <point x="110" y="258"/>
      <point x="116" y="254"/>
      <point x="122" y="254" type="curve" smooth="yes"/>
      <point x="136" y="254"/>
      <point x="150" y="263"/>
      <point x="152" y="266" type="curve"/>
      <point x="150" y="269"/>
      <point x="134" y="277"/>
    </contour>
    <contour>
      <point x="257" y="626" type="curve"/>
      <point x="248" y="626"/>
      <point x="192" y="627"/>
      <point x="192" y="627" type="curve"/>
      <point x="190" y="627"/>
      <point x="189" y="629"/>
      <point x="189" y="630" type="curve"/>
      <point x="189" y="644" type="line"/>
      <point x="190" y="646"/>
      <point x="191" y="647"/>
      <point x="192" y="647" type="curve" smooth="yes"/>
      <point x="227" y="647"/>
      <point x="234" y="654"/>
      <point x="243" y="663" type="curve"/>
      <point x="244" y="663"/>
      <point x="245" y="664"/>
      <point x="246" y="665" type="curve" smooth="yes"/>
      <point x="249" y="668"/>
      <point x="252" y="674"/>
      <point x="255" y="679" type="curve" smooth="yes"/>
      <point x="260" y="689"/>
      <point x="266" y="701"/>
      <point x="279" y="701" type="curve" smooth="yes"/>
      <point x="297" y="701"/>
      <point x="303" y="686"/>
      <point x="303" y="672" type="curve" smooth="yes"/>
      <point x="303" y="640"/>
      <point x="270" y="626"/>
    </contour>
    <contour>
      <point x="195" y="633" type="line"/>
      <point x="207" y="633"/>
      <point x="249" y="632"/>
      <point x="257" y="632" type="curve" smooth="yes"/>
      <point x="267" y="632"/>
      <point x="297" y="644"/>
      <point x="297" y="672" type="curve" smooth="yes"/>
      <point x="297" y="692"/>
      <point x="287" y="695"/>
      <point x="281" y="695" type="curve" smooth="yes"/>
      <point x="269" y="695"/>
      <point x="264" y="685"/>
      <point x="260" y="677" type="curve"/>
      <point x="260" y="676"/>
      <point x="254" y="665"/>
      <point x="250" y="661" type="curve" smooth="yes"/>
      <point x="247" y="658" type="line" smooth="yes"/>
      <point x="238" y="649"/>
      <point x="229" y="641"/>
      <point x="195" y="641" type="curve"/>
    </contour>
    <contour>
      <point x="117" y="483" type="curve"/>
      <point x="91" y="483"/>
      <point x="80" y="507"/>
      <point x="80" y="516" type="curve" smooth="yes"/>
      <point x="80" y="523"/>
      <point x="81" y="561"/>
      <point x="81" y="563" type="curve" smooth="yes"/>
      <point x="81" y="565"/>
      <point x="83" y="566"/>
      <point x="84" y="566" type="curve"/>
      <point x="95" y="565" type="line"/>
      <point x="96" y="565"/>
      <point x="98" y="564"/>
      <point x="98" y="562" type="curve" smooth="yes"/>
      <point x="98" y="539"/>
      <point x="103" y="534"/>
      <point x="110" y="527" type="curve"/>
      <point x="114" y="524"/>
      <point x="118" y="522"/>
      <point x="123" y="519" type="curve"/>
      <point x="131" y="515"/>
      <point x="141" y="508"/>
      <point x="141" y="501" type="curve" smooth="yes"/>
      <point x="141" y="496"/>
      <point x="140" y="492"/>
      <point x="138" y="490" type="curve" smooth="yes"/>
      <point x="134" y="485"/>
      <point x="127" y="483"/>
    </contour>
    <contour>
      <point x="87" y="560" type="line"/>
      <point x="87" y="550"/>
      <point x="86" y="522"/>
      <point x="86" y="516" type="curve" smooth="yes"/>
      <point x="86" y="511"/>
      <point x="94" y="489"/>
      <point x="117" y="489" type="curve" smooth="yes"/>
      <point x="125" y="489"/>
      <point x="130" y="491"/>
      <point x="133" y="494" type="curve" smooth="yes"/>
      <point x="135" y="496"/>
      <point x="135" y="498"/>
      <point x="135" y="499" type="curve" smooth="yes"/>
      <point x="135" y="508"/>
      <point x="125" y="512"/>
      <point x="120" y="514" type="curve" smooth="yes"/>
      <point x="114" y="517"/>
      <point x="112" y="518"/>
      <point x="108" y="521" type="curve" smooth="yes"/>
      <point x="97" y="528"/>
      <point x="92" y="543"/>
      <point x="92" y="559" type="curve"/>
    </contour>
    <contour>
      <point x="79" y="740" type="curve"/>
      <point x="74" y="741"/>
      <point x="69" y="745"/>
      <point x="65" y="747" type="curve" smooth="yes"/>
      <point x="64" y="748"/>
      <point x="63" y="749"/>
      <point x="63" y="750" type="curve"/>
      <point x="63" y="857" type="line" smooth="yes"/>
      <point x="63" y="868"/>
      <point x="50" y="874"/>
      <point x="36" y="880" type="curve" smooth="yes"/>
      <point x="21" y="887"/>
      <point x="13" y="891"/>
      <point x="13" y="908" type="curve" smooth="yes"/>
      <point x="13" y="974" type="line" smooth="yes"/>
      <point x="13" y="994"/>
      <point x="22" y="998"/>
      <point x="30" y="998" type="curve" smooth="yes"/>
      <point x="36" y="998"/>
      <point x="43" y="996"/>
      <point x="47" y="994" type="curve" smooth="yes"/>
      <point x="49" y="993"/>
      <point x="50" y="993"/>
      <point x="51" y="993" type="curve" smooth="yes"/>
      <point x="62" y="989"/>
      <point x="82" y="981"/>
      <point x="82" y="954" type="curve" smooth="yes"/>
      <point x="82" y="743" type="line"/>
      <point x="82" y="742"/>
      <point x="81" y="741"/>
    </contour>
    <contour>
      <point x="69" y="752" type="line"/>
      <point x="76" y="748" type="line"/>
      <point x="76" y="954" type="line" smooth="yes"/>
      <point x="76" y="977"/>
      <point x="60" y="983"/>
      <point x="49" y="987" type="curve"/>
      <point x="48" y="987"/>
      <point x="47" y="988"/>
      <point x="46" y="988" type="curve" smooth="yes"/>
      <point x="41" y="990"/>
      <point x="35" y="992"/>
      <point x="30" y="992" type="curve" smooth="yes"/>
      <point x="27" y="992"/>
      <point x="19" y="992"/>
      <point x="19" y="974" type="curve" smooth="yes"/>
      <point x="19" y="911" type="line" smooth="yes"/>
      <point x="19" y="895"/>
      <point x="25" y="891"/>
      <point x="38" y="886" type="curve"/>
      <point x="39" y="886"/>
      <point x="40" y="885"/>
      <point x="41" y="885" type="curve" smooth="yes"/>
      <point x="54" y="879"/>
      <point x="69" y="872"/>
      <point x="69" y="857" type="curve" smooth="yes"/>
    </contour>
    <contour>
      <point x="51" y="755" type="curve"/>
      <point x="38" y="760"/>
      <point x="26" y="768"/>
      <point x="14" y="774" type="curve" smooth="yes"/>
      <point x="13" y="775"/>
      <point x="12" y="776"/>
      <point x="12" y="777" type="curve"/>
      <point x="12" y="856" type="line" smooth="yes"/>
      <point x="12" y="868"/>
      <point x="19" y="870"/>
      <point x="22" y="870" type="curve" smooth="yes"/>
      <point x="26" y="870"/>
      <point x="29" y="868"/>
      <point x="32" y="867" type="curve" smooth="yes"/>
      <point x="46" y="859" type="line"/>
      <point x="54" y="853"/>
      <point x="54" y="845"/>
      <point x="54" y="837" type="curve" smooth="yes"/>
      <point x="54" y="758" type="line"/>
      <point x="54" y="757"/>
      <point x="53" y="756"/>
    </contour>
    <contour>
      <point x="18" y="779" type="line"/>
      <point x="48" y="763" type="line"/>
      <point x="48" y="837" type="line" smooth="yes"/>
      <point x="48" y="846"/>
      <point x="47" y="852"/>
      <point x="43" y="854" type="curve" smooth="yes"/>
      <point x="29" y="861" type="line" smooth="yes"/>
      <point x="27" y="862"/>
      <point x="25" y="864"/>
      <point x="22" y="864" type="curve" smooth="yes"/>
      <point x="21" y="864"/>
      <point x="18" y="864"/>
      <point x="18" y="856" type="curve" smooth="yes"/>
    </contour>
    <contour>
      <point x="222" y="103" type="curve"/>
      <point x="222" y="103"/>
      <point x="222" y="103"/>
      <point x="116" y="103" type="curve" smooth="yes"/>
      <point x="101" y="103"/>
      <point x="101" y="118"/>
      <point x="101" y="123" type="curve" smooth="yes"/>
      <point x="101" y="149" type="line" smooth="yes"/>
      <point x="101" y="152"/>
      <point x="102" y="154"/>
      <point x="103" y="155" type="curve" smooth="yes"/>
      <point x="107" y="159"/>
      <point x="111" y="159"/>
      <point x="115" y="159" type="curve" smooth="yes"/>
      <point x="140" y="159" type="line" smooth="yes"/>
      <point x="148" y="159"/>
      <point x="158" y="159"/>
      <point x="167" y="143" type="curve"/>
      <point x="167" y="143"/>
      <point x="167" y="143"/>
      <point x="172" y="132" type="curve" smooth="yes"/>
      <point x="176" y="125"/>
      <point x="180" y="123"/>
      <point x="186" y="123" type="curve" smooth="yes"/>
      <point x="222" y="123" type="line" smooth="yes"/>
      <point x="224" y="123"/>
      <point x="225" y="121"/>
      <point x="225" y="120" type="curve"/>
      <point x="225" y="107" type="line" smooth="yes"/>
      <point x="225" y="104"/>
      <point x="224" y="103"/>
    </contour>
    <contour>
      <point x="115" y="153" type="line" smooth="yes"/>
      <point x="112" y="153"/>
      <point x="109" y="153"/>
      <point x="108" y="151" type="curve" smooth="yes"/>
      <point x="107" y="150"/>
      <point x="107" y="149"/>
      <point x="107" y="147" type="curve" smooth="yes"/>
      <point x="107" y="123" type="line" smooth="yes"/>
      <point x="107" y="112"/>
      <point x="110" y="109"/>
      <point x="116" y="109" type="curve" smooth="yes"/>
      <point x="219" y="109" type="line"/>
      <point x="219" y="117" type="line"/>
      <point x="186" y="117" type="line" smooth="yes"/>
      <point x="177" y="117"/>
      <point x="171" y="121"/>
      <point x="167" y="130" type="curve" smooth="yes"/>
      <point x="162" y="140" type="line" smooth="yes"/>
      <point x="155" y="153"/>
      <point x="147" y="153"/>
      <point x="140" y="153" type="curve" smooth="yes"/>
    </contour>
  </outline>
</glyph>
<glyph name="uniE002" format="2">
  <unicode hex="E002"/>
  <outline>
    <contour>
      <point x="213" y="42" type="curve"/>
      <point x="204" y="42"/>
      <point x="199" y="47"/>
      <point x="199" y="54" type="curve" smooth="yes"/>
      <point x="199" y="81" type="line" smooth="yes"/>
      <point x="199" y="87"/>
      <point x="204" y="93"/>
      <point x="211" y="93" type="curve" smooth="yes"/>
      <point x="219" y="93"/>
      <point x="225" y="87"/>
      <point x="225" y="81" type="curve" smooth="yes"/>
      <point x="225" y="54" type="line" smooth="yes"/>
      <point x="225" y="47"/>
      <point x="219" y="42"/>
    </contour>
    <contour>
      <point x="211" y="87" type="curve"/>
      <point x="207" y="87"/>
      <point x="205" y="84"/>
      <point x="205" y="81" type="curve" smooth="yes"/>
      <point x="205" y="54" type="line" smooth="yes"/>
      <point x="205" y="51"/>
      <point x="207" y="48"/>
      <point x="211" y="48" type="curve" smooth="yes"/>
      <point x="216" y="48"/>
      <point x="219" y="51"/>
      <point x="219" y="54" type="curve" smooth="yes"/>
      <point x="219" y="81" type="line" smooth="yes"/>
      <point x="219" y="84"/>
      <point x="216" y="87"/>
    </contour>
  </outline>
</glyph>
<glyph name="uniE003" format="2">
  <unicode hex="E003"/>
  <outline>
    <contour>
      <point x="170" y="515" type="curve" smooth="yes"/>
      <point x="144" y="515"/>
      <point x="133" y="539"/>
      <point x="133" y="548" type="curve" smooth="yes"/>
      <point x="133" y="555"/>
      <point x="134" y="593"/>
      <point x="134" y="595" type="curve" smooth="yes"/>
      <point x="134" y="597"/>
      <point x="136" y="598"/>
      <point x="137" y="598" type="curve" smooth="yes"/>
      <point x="148" y="597" type="line" smooth="yes"/>
      <point x="149" y="597"/>
      <point x="151" y="596"/>
      <point x="151" y="594" type="curve" smooth="yes"/>
      <point x="151" y="571"/>
      <point x="156" y="566"/>
      <point x="163" y="559" type="curve" smooth="yes"/>
      <point x="166" y="556"/>
      <point x="169" y="555"/>
      <point x="176" y="551" type="curve" smooth="yes"/>
      <point x="183" y="547"/>
      <point x="194" y="540"/>
      <point x="194" y="533" type="curve" smooth="yes"/>
      <point x="194" y="528"/>
      <point x="193" y="524"/>
      <point x="191" y="522" type="curve" smooth="yes"/>
      <point x="187" y="517"/>
      <point x="180" y="515"/>
    </contour>
    <contour>
      <point x="145" y="591" type="curve"/>
      <point x="140" y="592" type="line"/>
      <point x="140" y="582"/>
      <point x="139" y="554"/>
      <point x="139" y="548" type="curve" smooth="yes"/>
      <point x="139" y="543"/>
      <point x="147" y="521"/>
      <point x="170" y="521" type="curve" smooth="yes"/>
      <point x="178" y="521"/>
      <point x="183" y="523"/>
      <point x="186" y="526" type="curve" smooth="yes"/>
      <point x="188" y="528"/>
      <point x="188" y="530"/>
      <point x="188" y="531" type="curve" smooth="yes"/>
      <point x="188" y="540"/>
      <point x="177" y="544"/>
      <point x="173" y="546" type="curve" smooth="yes"/>
      <point x="170" y="548"/>
      <point x="166" y="550"/>
      <point x="162" y="553" type="curve" smooth="yes"/>
      <point x="153" y="559"/>
      <point x="145" y="575"/>
    </contour>
  </outline>
</glyph>
<glyph name="uniE004" format="2">
  <unicode hex="E004"/>
  <outline>
    <contour>
      <point x="191" y="802" type="curve" smooth="yes"/>
      <point x="177" y="802"/>
      <point x="166" y="813"/>
      <point x="166" y="827" type="curve" smooth="yes"/>
      <point x="166" y="841"/>
      <point x="177" y="852"/>
      <point x="191" y="852" type="curve" smooth="yes"/>
      <point x="205" y="852"/>
      <point x="216" y="841"/>
      <point x="216" y="827" type="curve" smooth="yes"/>
      <point x="216" y="813"/>
      <point x="205" y="802"/>
    </contour>
    <contour>
      <point x="191" y="848" type="curve" smooth="yes"/>
      <point x="181" y="848"/>
      <point x="170" y="837"/>
      <point x="170" y="827" type="curve" smooth="yes"/>
      <point x="170" y="817"/>
      <point x="181" y="806"/>
      <point x="191" y="806" type="curve" smooth="yes"/>
      <point x="201" y="806"/>
      <point x="212" y="817"/>
      <point x="212" y="827" type="curve" smooth="yes"/>
      <point x="212" y="837"/>
      <point x="201" y="848"/>
    </contour>
    <contour>
      <point x="191" y="679" type="curve" smooth="yes"/>
      <point x="177" y="679"/>
      <point x="166" y="690"/>
      <point x="166" y="704" type="curve" smooth="yes"/>
      <point x="166" y="718"/>
      <point x="177" y="729"/>
      <point x="191" y="729" type="curve" smooth="yes"/>
      <point x="205" y="729"/>
      <point x="216" y="718"/>
      <point x="216" y="704" type="curve" smooth="yes"/>
      <point x="216" y="690"/>
      <point x="205" y="679"/>
    </contour>
    <contour>
      <point x="191" y="725" type="curve" smooth="yes"/>
      <point x="181" y="725"/>
      <point x="170" y="714"/>
      <point x="170" y="704" type="curve" smooth="yes"/>
      <point x="170" y="694"/>
      <point x="181" y="683"/>
      <point x="191" y="683" type="curve" smooth="yes"/>
      <point x="201" y="683"/>
      <point x="212" y="694"/>
      <point x="212" y="704" type="curve" smooth="yes"/>
      <point x="212" y="714"/>
      <point x="201" y="725"/>
    </contour>
    <contour>
      <point x="191" y="422" type="curve" smooth="yes"/>
      <point x="177" y="422"/>
      <point x="166" y="433"/>
      <point x="166" y="447" type="curve" smooth="yes"/>
      <point x="166" y="461"/>
      <point x="177" y="472"/>
      <point x="191" y="472" type="curve" smooth="yes"/>
      <point x="205" y="472"/>
      <point x="216" y="461"/>
      <point x="216" y="447" type="curve" smooth="yes"/>
      <point x="216" y="433"/>
      <point x="205" y="422"/>
    </contour>
    <contour>
      <point x="191" y="468" type="curve" smooth="yes"/>
      <point x="181" y="468"/>
      <point x="170" y="457"/>
      <point x="170" y="447" type="curve" smooth="yes"/>
      <point x="170" y="437"/>
      <point x="181" y="426"/>
      <point x="191" y="426" type="curve" smooth="yes"/>
      <point x="201" y="426"/>
      <point x="212" y="437"/>
      <point x="212" y="447" type="curve" smooth="yes"/>
      <point x="212" y="457"/>
      <point x="201" y="468"/>
    </contour>
    <contour>
      <point x="191" y="301" type="curve" smooth="yes"/>
      <point x="177" y="301"/>
      <point x="166" y="312"/>
      <point x="166" y="326" type="curve" smooth="yes"/>
      <point x="166" y="340"/>
      <point x="177" y="351"/>
      <point x="191" y="351" type="curve" smooth="yes"/>
      <point x="205" y="351"/>
      <point x="216" y="340"/>
      <point x="216" y="326" type="curve" smooth="yes"/>
      <point x="216" y="312"/>
      <point x="205" y="301"/>
    </contour>
    <contour>
      <point x="191" y="347" type="curve" smooth="yes"/>
      <point x="181" y="347"/>
      <point x="170" y="336"/>
      <point x="170" y="326" type="curve" smooth="yes"/>
      <point x="170" y="316"/>
      <point x="181" y="305"/>
      <point x="191" y="305" type="curve" smooth="yes"/>
      <point x="201" y="305"/>
      <point x="212" y="316"/>
      <point x="212" y="326" type="curve" smooth="yes"/>
      <point x="212" y="336"/>
      <point x="201" y="347"/>
    </contour>
    <contour>
      <point x="191" y="179" type="curve" smooth="yes"/>
      <point x="177" y="179"/>
      <point x="166" y="190"/>
      <point x="166" y="204" type="curve" smooth="yes"/>
      <point x="166" y="218"/>
      <point x="177" y="229"/>
      <point x="191" y="229" type="curve" smooth="yes"/>
      <point x="205" y="229"/>
      <point x="216" y="218"/>
      <point x="216" y="204" type="curve" smooth="yes"/>
      <point x="216" y="190"/>
      <point x="205" y="179"/>
    </contour>
    <contour>
      <point x="191" y="225" type="curve" smooth="yes"/>
      <point x="181" y="225"/>
      <point x="170" y="214"/>
      <point x="170" y="204" type="curve" smooth="yes"/>
      <point x="170" y="194"/>
      <point x="181" y="183"/>
      <point x="191" y="183" type="curve" smooth="yes"/>
      <point x="201" y="183"/>
      <point x="212" y="194"/>
      <point x="212" y="204" type="curve" smooth="yes"/>
      <point x="212" y="214"/>
      <point x="201" y="225"/>
    </contour>
  </outline>
</glyph>
<glyph name="uniE005" format="2">
  <unicode hex="E005"/>
  <outline>
    <contour>
      <point x="110" y="848" type="curve"/>
      <point x="98" y="848"/>
      <point x="92" y="857"/>
      <point x="92" y="866" type="curve" smooth="yes"/>
      <point x="92" y="875"/>
      <point x="98" y="884"/>
      <point x="109" y="884" type="curve" smooth="yes"/>
      <point x="123" y="884"/>
      <point x="146" y="874"/>
      <point x="146" y="866" type="curve" smooth="yes"/>
      <point x="146" y="858"/>
      <point x="125" y="848"/>
    </contour>
    <contour>
      <point x="109" y="878" type="curve"/>
      <point x="101" y="878"/>
      <point x="98" y="872"/>
      <point x="98" y="866" type="curve" smooth="yes"/>
      <point x="98" y="858"/>
      <point x="104" y="854"/>
      <point x="110" y="854" type="curve" smooth="yes"/>
      <point x="124" y="854"/>
      <point x="138" y="863"/>
      <point x="140" y="866" type="curve"/>
      <point x="138" y="869"/>
      <point x="122" y="878"/>
    </contour>
    <contour>
      <point x="110" y="889" type="curve"/>
      <point x="98" y="889"/>
      <point x="92" y="898"/>
      <point x="92" y="907" type="curve" smooth="yes"/>
      <point x="92" y="916"/>
      <point x="98" y="925"/>
      <point x="109" y="925" type="curve" smooth="yes"/>
      <point x="123" y="925"/>
      <point x="146" y="915"/>
      <point x="146" y="907" type="curve" smooth="yes"/>
      <point x="146" y="899"/>
      <point x="125" y="889"/>
    </contour>
    <contour>
      <point x="109" y="919" type="curve"/>
      <point x="101" y="919"/>
      <point x="98" y="913"/>
      <point x="98" y="907" type="curve" smooth="yes"/>
      <point x="98" y="899"/>
      <point x="104" y="895"/>
      <point x="110" y="895" type="curve" smooth="yes"/>
      <point x="124" y="895"/>
      <point x="138" y="904"/>
      <point x="140" y="907" type="curve"/>
      <point x="138" y="910"/>
      <point x="122" y="919"/>
    </contour>
  </outline>
</glyph>
<glyph name="uniE006" format="2">
  <unicode hex="E006"/>
  <outline>
    <contour>
      <point x="79" y="740" type="curve"/>
      <point x="74" y="741"/>
      <point x="69" y="745"/>
      <point x="65" y="747" type="curve" smooth="yes"/>
      <point x="64" y="748"/>
      <point x="63" y="749"/>
      <point x="63" y="750" type="curve"/>
      <point x="63" y="857" type="line" smooth="yes"/>
      <point x="63" y="868"/>
      <point x="50" y="874"/>
      <point x="36" y="880" type="curve" smooth="yes"/>
      <point x="21" y="887"/>
      <point x="13" y="891"/>
      <point x="13" y="908" type="curve" smooth="yes"/>
      <point x="13" y="974" type="line" smooth="yes"/>
      <point x="13" y="994"/>
      <point x="22" y="998"/>
      <point x="30" y="998" type="curve" smooth="yes"/>
      <point x="36" y="998"/>
      <point x="43" y="996"/>
      <point x="47" y="994" type="curve" smooth="yes"/>
      <point x="49" y="993"/>
      <point x="50" y="993"/>
      <point x="51" y="993" type="curve" smooth="yes"/>
      <point x="62" y="989"/>
      <point x="82" y="981"/>
      <point x="82" y="954" type="curve" smooth="yes"/>
      <point x="82" y="743" type="line"/>
      <point x="82" y="742"/>
      <point x="81" y="741"/>
    </contour>
  </outline>
</glyph>
<glyph name="uniE007" format="2">
  <unicode hex="E007"/>
  <outline>
    <contour>
      <point x="51" y="758" type="curve"/>
      <point x="15" y="777" type="line"/>
      <point x="15" y="777"/>
      <point x="15" y="843"/>
      <point x="15" y="856" type="curve" smooth="yes"/>
      <point x="15" y="864"/>
      <point x="18" y="867"/>
      <point x="22" y="867" type="curve" smooth="yes"/>
      <point x="24" y="867"/>
      <point x="27" y="866"/>
      <point x="30" y="864" type="curve"/>
      <point x="45" y="857" type="line" smooth="yes"/>
      <point x="50" y="853"/>
      <point x="51" y="846"/>
      <point x="51" y="837" type="curve" smooth="yes"/>
      <point x="51" y="828"/>
      <point x="51" y="758"/>
    </contour>
  </outline>
</glyph>
<glyph name="uniE008" format="2">
  <unicode hex="E008"/>
  <outline>
    <contour>
      <point x="238" y="947" type="curve"/>
      <point x="238" y="921"/>
      <point x="217" y="900"/>
      <point x="191" y="900" type="curve" smooth="yes"/>
      <point x="165" y="900"/>
      <point x="144" y="921"/>
      <point x="144" y="947" type="curve" smooth="yes"/>
      <point x="144" y="973"/>
      <point x="165" y="993"/>
      <point x="191" y="993" type="curve" smooth="yes"/>
      <point x="217" y="993"/>
      <point x="238" y="973"/>
    </contour>
  </outline>
</glyph>
<glyph name="uniE009" format="2">
  <unicode hex="E009"/>
  <outline>
    <contour>
      <point x="238" y="827" type="curve"/>
      <point x="238" y="801"/>
      <point x="217" y="780"/>
      <point x="191" y="780" type="curve" smooth="yes"/>
      <point x="165" y="780"/>
      <point x="144" y="801"/>
      <point x="144" y="827" type="curve" smooth="yes"/>
      <point x="144" y="853"/>
      <point x="165" y="873"/>
      <point x="191" y="873" type="curve" smooth="yes"/>
      <point x="217" y="873"/>
      <point x="238" y="853"/>
    </contour>
  </outline>
</glyph>
<glyph name="uniE00A" format="2">
  <unicode hex="E00A"/>
  <outline>
    <contour>
      <point x="238" y="704" type="curve"/>
      <point x="238" y="678"/>
      <point x="217" y="657"/>
      <point x="191" y="657" type="curve" smooth="yes"/>
      <point x="165" y="657"/>
      <point x="144" y="678"/>
      <point x="144" y="704" type="curve" smooth="yes"/>
      <point x="144" y="730"/>
      <point x="165" y="750"/>
      <point x="191" y="750" type="curve" smooth="yes"/>
      <point x="217" y="750"/>
      <point x="238" y="730"/>
    </contour>
  </outline>
</glyph>
<glyph name="uniE00B" format="2">
  <unicode hex="E00B"/>
  <outline>
    <contour>
      <point x="257" y="626" type="curve"/>
      <point x="248" y="626"/>
      <point x="192" y="627"/>
      <point x="192" y="627" type="curve"/>
      <point x="190" y="627"/>
      <point x="189" y="629"/>
      <point x="189" y="630" type="curve"/>
      <point x="189" y="644" type="line"/>
      <point x="190" y="646"/>
      <point x="191" y="647"/>
      <point x="192" y="647" type="curve" smooth="yes"/>
      <point x="227" y="647"/>
      <point x="234" y="654"/>
      <point x="243" y="663" type="curve"/>
      <point x="244" y="663"/>
      <point x="245" y="664"/>
      <point x="246" y="665" type="curve" smooth="yes"/>
      <point x="249" y="668"/>
      <point x="252" y="674"/>
      <point x="255" y="679" type="curve" smooth="yes"/>
      <point x="260" y="689"/>
      <point x="266" y="701"/>
      <point x="279" y="701" type="curve" smooth="yes"/>
      <point x="297" y="701"/>
      <point x="303" y="686"/>
      <point x="303" y="672" type="curve" smooth="yes"/>
      <point x="303" y="640"/>
      <point x="270" y="626"/>
    </contour>
  </outline>
</glyph>
<glyph name="uniE00C" format="2">
  <unicode hex="E00C"/>
  <outline>
    <contour>
      <point x="170" y="515" type="curve" smooth="yes"/>
      <point x="144" y="515"/>
      <point x="133" y="539"/>
      <point x="133" y="548" type="curve" smooth="yes"/>
      <point x="133" y="555"/>
      <point x="134" y="593"/>
      <point x="134" y="595" type="curve" smooth="yes"/>
      <point x="134" y="597"/>
      <point x="136" y="598"/>
      <point x="137" y="598" type="curve" smooth="yes"/>
      <point x="148" y="597" type="line" smooth="yes"/>
      <point x="149" y="597"/>
      <point x="151" y="596"/>
      <point x="151" y="594" type="curve" smooth="yes"/>
      <point x="151" y="571"/>
      <point x="155" y="565"/>
      <point x="163" y="559" type="curve" smooth="yes"/>
      <point x="167" y="556"/>
      <point x="171" y="554"/>
      <point x="176" y="551" type="curve" smooth="yes"/>
      <point x="183" y="547"/>
      <point x="194" y="540"/>
      <point x="194" y="533" type="curve" smooth="yes"/>
      <point x="194" y="528"/>
      <point x="193" y="524"/>
      <point x="191" y="522" type="curve" smooth="yes"/>
      <point x="187" y="517"/>
      <point x="180" y="515"/>
    </contour>
  </outline>
</glyph>
<glyph name="uniE00D" format="2">
  <unicode hex="E00D"/>
  <outline>
    <contour>
      <point x="117" y="483" type="curve"/>
      <point x="91" y="483"/>
      <point x="80" y="507"/>
      <point x="80" y="516" type="curve" smooth="yes"/>
      <point x="80" y="523"/>
      <point x="81" y="561"/>
      <point x="81" y="563" type="curve" smooth="yes"/>
      <point x="81" y="565"/>
      <point x="83" y="566"/>
      <point x="84" y="566" type="curve"/>
      <point x="95" y="565" type="line"/>
      <point x="96" y="565"/>
      <point x="98" y="564"/>
      <point x="98" y="562" type="curve" smooth="yes"/>
      <point x="98" y="539"/>
      <point x="103" y="534"/>
      <point x="110" y="527" type="curve"/>
      <point x="114" y="524"/>
      <point x="118" y="522"/>
      <point x="123" y="519" type="curve"/>
      <point x="131" y="515"/>
      <point x="141" y="508"/>
      <point x="141" y="501" type="curve" smooth="yes"/>
      <point x="141" y="496"/>
      <point x="140" y="492"/>
      <point x="138" y="490" type="curve" smooth="yes"/>
      <point x="134" y="485"/>
      <point x="127" y="483"/>
    </contour>
  </outline>
</glyph>
<glyph name="uniE00E" format="2">
  <unicode hex="E00E"/>
  <outline>
    <contour>
      <point x="238" y="447" type="curve"/>
      <point x="238" y="422"/>
      <point x="217" y="401"/>
      <point x="191" y="401" type="curve" smooth="yes"/>
      <point x="165" y="401"/>
      <point x="144" y="422"/>
      <point x="144" y="447" type="curve" smooth="yes"/>
      <point x="144" y="473"/>
      <point x="165" y="494"/>
      <point x="191" y="494" type="curve" smooth="yes"/>
      <point x="217" y="494"/>
      <point x="238" y="473"/>
    </contour>
  </outline>
</glyph>
<glyph name="uniE00F" format="2">
  <unicode hex="E00F"/>
  <outline>
    <contour>
      <point x="122" y="373" type="curve"/>
      <point x="112" y="373"/>
      <point x="107" y="380"/>
      <point x="107" y="388" type="curve" smooth="yes"/>
      <point x="107" y="395"/>
      <point x="112" y="403"/>
      <point x="121" y="403" type="curve" smooth="yes"/>
      <point x="136" y="403"/>
      <point x="155" y="393"/>
      <point x="155" y="388" type="curve" smooth="yes"/>
      <point x="155" y="384"/>
      <point x="137" y="373"/>
    </contour>
  </outline>
</glyph>
<glyph name="uniE010" format="2">
  <unicode hex="E010"/>
  <outline>
    <contour>
      <point x="238" y="326" type="curve"/>
      <point x="238" y="300"/>
      <point x="217" y="279"/>
      <point x="191" y="279" type="curve" smooth="yes"/>
      <point x="165" y="279"/>
      <point x="144" y="300"/>
      <point x="144" y="326" type="curve" smooth="yes"/>
      <point x="144" y="352"/>
      <point x="165" y="372"/>
      <point x="191" y="372" type="curve" smooth="yes"/>
      <point x="217" y="372"/>
      <point x="238" y="352"/>
    </contour>
  </outline>
</glyph>
<glyph name="uniE011" format="2">
  <unicode hex="E011"/>
  <outline>
    <contour>
      <point x="122" y="251" type="curve"/>
      <point x="112" y="251"/>
      <point x="107" y="259"/>
      <point x="107" y="266" type="curve" smooth="yes"/>
      <point x="107" y="273"/>
      <point x="112" y="280"/>
      <point x="121" y="280" type="curve" smooth="yes"/>
      <point x="136" y="280"/>
      <point x="155" y="271"/>
      <point x="155" y="266" type="curve" smooth="yes"/>
      <point x="155" y="261"/>
      <point x="137" y="251"/>
    </contour>
  </outline>
</glyph>
<glyph name="uniE012" format="2">
  <unicode hex="E012"/>
  <outline>
    <contour>
      <point x="238" y="204" type="curve"/>
      <point x="238" y="179"/>
      <point x="217" y="158"/>
      <point x="191" y="158" type="curve" smooth="yes"/>
      <point x="165" y="158"/>
      <point x="144" y="179"/>
      <point x="144" y="204" type="curve" smooth="yes"/>
      <point x="144" y="230"/>
      <point x="165" y="251"/>
      <point x="191" y="251" type="curve" smooth="yes"/>
      <point x="217" y="251"/>
      <point x="238" y="230"/>
    </contour>
  </outline>
</glyph>
<glyph name="uniE013" format="2">
  <unicode hex="E013"/>
  <outline>
    <contour>
      <point x="222" y="106" type="line"/>
      <point x="222" y="106"/>
      <point x="127" y="106"/>
      <point x="116" y="106" type="curve" smooth="yes"/>
      <point x="106" y="106"/>
      <point x="104" y="114"/>
      <point x="104" y="123" type="curve" smooth="yes"/>
      <point x="104" y="145" type="line"/>
      <point x="104" y="156"/>
      <point x="110" y="156"/>
      <point x="115" y="156" type="curve"/>
      <point x="140" y="156" type="line"/>
      <point x="148" y="156"/>
      <point x="156" y="156"/>
      <point x="164" y="142" type="curve" smooth="yes"/>
      <point x="170" y="131" type="line" smooth="yes"/>
      <point x="174" y="123"/>
      <point x="178" y="120"/>
      <point x="186" y="120" type="curve" smooth="yes"/>
      <point x="194" y="120"/>
      <point x="222" y="120"/>
      <point x="222" y="120" type="curve"/>
    </contour>
  </outline>
</glyph>
<glyph name="uniE014" format="2">
  <unicode hex="E014"/>
  <outline>
    <contour>
      <point x="156" y="72" type="curve"/>
      <point x="156" y="16" type="line"/>
      <point x="156" y="16"/>
      <point x="133" y="26"/>
      <point x="120" y="33" type="curve" smooth="yes"/>
      <point x="106" y="40"/>
      <point x="104" y="55"/>
      <point x="104" y="55" type="curve"/>
      <point x="104" y="55"/>
      <point x="104" y="62"/>
      <point x="104" y="74" type="curve" smooth="yes"/>
      <point x="104" y="85"/>
      <point x="108" y="90"/>
      <point x="115" y="90" type="curve"/>
      <point x="142" y="90" type="line"/>
      <point x="152" y="90"/>
      <point x="156" y="83"/>
    </contour>
  </outline>
</glyph>
<glyph name="uniE015" format="2">
  <unicode hex="E015"/>
  <outline>
    <contour>
      <point x="189" y="54" type="line"/>
      <point x="189" y="49"/>
      <point x="185" y="45"/>
      <point x="180" y="45" type="curve"/>
      <point x="173" y="45"/>
      <point x="169" y="49"/>
      <point x="169" y="54" type="curve"/>
      <point x="169" y="81" type="line"/>
      <point x="169" y="86"/>
      <point x="173" y="90"/>
      <point x="178" y="90" type="curve"/>
      <point x="185" y="90"/>
      <point x="189" y="86"/>
      <point x="189" y="81" type="curve"/>
    </contour>
  </outline>
</glyph>
<glyph name="uniE016" format="2">
  <unicode hex="E016"/>
  <outline>
    <contour>
      <point x="222" y="54" type="line"/>
      <point x="222" y="49"/>
      <point x="218" y="45"/>
      <point x="213" y="45" type="curve"/>
      <point x="206" y="45"/>
      <point x="202" y="49"/>
      <point x="202" y="54" type="curve"/>
      <point x="202" y="81" type="line"/>
      <point x="202" y="86"/>
      <point x="206" y="90"/>
      <point x="211" y="90" type="curve"/>
      <point x="218" y="90"/>
      <point x="222" y="86"/>
      <point x="222" y="81" type="curve"/>
    </contour>
  </outline>
</glyph>
<glyph name="uniE017" format="2">
  <unicode hex="E017"/>
  <outline>
    <contour>
      <point x="222" y="3" type="line"/>
      <point x="222" y="3"/>
      <point x="208" y="3"/>
      <point x="203" y="3" type="curve" smooth="yes"/>
      <point x="197" y="3"/>
      <point x="191" y="4"/>
      <point x="188" y="9" type="curve" smooth="yes"/>
      <point x="187" y="12"/>
      <point x="186" y="14"/>
      <point x="186" y="17" type="curve" smooth="yes"/>
      <point x="186" y="22"/>
      <point x="189" y="27"/>
      <point x="194" y="30" type="curve" smooth="yes"/>
      <point x="195" y="31"/>
      <point x="197" y="31"/>
      <point x="199" y="31" type="curve" smooth="yes"/>
      <point x="207" y="31"/>
      <point x="215" y="22"/>
      <point x="215" y="15" type="curve"/>
      <point x="222" y="15" type="line"/>
    </contour>
  </outline>
</glyph>
<glyph name="uniE01F" format="2">
  <unicode hex="E01F"/>
  <outline>
    <contour>
      <point x="191" y="780" type="curve" smooth="yes"/>
      <point x="165" y="780"/>
      <point x="144" y="800"/>
      <point x="144" y="826" type="curve" smooth="yes"/>
      <point x="144" y="852"/>
      <point x="165" y="873"/>
      <point x="191" y="873" type="curve" smooth="yes"/>
      <point x="217" y="873"/>
      <point x="238" y="852"/>
      <point x="238" y="826" type="curve" smooth="yes"/>
      <point x="238" y="800"/>
      <point x="217" y="780"/>
    </contour>
    <contour>
      <point x="191" y="849" type="curve" smooth="yes"/>
      <point x="177" y="849"/>
      <point x="168" y="840"/>
      <point x="168" y="826" type="curve" smooth="yes"/>
      <point x="168" y="812"/>
      <point x="177" y="804"/>
      <point x="191" y="804" type="curve" smooth="yes"/>
      <point x="205" y="804"/>
      <point x="214" y="812"/>
      <point x="214" y="826" type="curve" smooth="yes"/>
      <point x="214" y="840"/>
      <point x="205" y="849"/>
    </contour>
  </outline>
</glyph>
<glyph name="uniE020" format="2">
  <unicode hex="E020"/>
  <outline>
    <contour>
      <point x="191" y="657" type="curve" smooth="yes"/>
      <point x="165" y="657"/>
      <point x="144" y="677"/>
      <point x="144" y="703" type="curve" smooth="yes"/>
      <point x="144" y="729"/>
      <point x="165" y="750"/>
      <point x="191" y="750" type="curve" smooth="yes"/>
      <point x="217" y="750"/>
      <point x="238" y="729"/>
      <point x="238" y="703" type="curve" smooth="yes"/>
      <point x="238" y="677"/>
      <point x="217" y="657"/>
    </contour>
    <contour>
      <point x="191" y="726" type="curve" smooth="yes"/>
      <point x="177" y="726"/>
      <point x="168" y="717"/>
      <point x="168" y="703" type="curve" smooth="yes"/>
      <point x="168" y="689"/>
      <point x="177" y="681"/>
      <point x="191" y="681" type="curve" smooth="yes"/>
      <point x="205" y="681"/>
      <point x="214" y="689"/>
      <point x="214" y="703" type="curve" smooth="yes"/>
      <point x="214" y="717"/>
      <point x="205" y="726"/>
    </contour>
  </outline>
</glyph>
<glyph name="uniE021" format="2">
  <unicode hex="E021"/>
  <outline>
    <contour>
      <point x="191" y="401" type="curve" smooth="yes"/>
      <point x="165" y="401"/>
      <point x="144" y="421"/>
      <point x="144" y="447" type="curve" smooth="yes"/>
      <point x="144" y="473"/>
      <point x="165" y="494"/>
      <point x="191" y="494" type="curve" smooth="yes"/>
      <point x="217" y="494"/>
      <point x="238" y="473"/>
      <point x="238" y="447" type="curve" smooth="yes"/>
      <point x="238" y="421"/>
      <point x="217" y="401"/>
    </contour>
    <contour>
      <point x="191" y="470" type="curve" smooth="yes"/>
      <point x="177" y="470"/>
      <point x="168" y="461"/>
      <point x="168" y="447" type="curve" smooth="yes"/>
      <point x="168" y="433"/>
      <point x="177" y="425"/>
      <point x="191" y="425" type="curve" smooth="yes"/>
      <point x="205" y="425"/>
      <point x="214" y="433"/>
      <point x="214" y="447" type="curve" smooth="yes"/>
      <point x="214" y="461"/>
      <point x="205" y="470"/>
    </contour>
  </outline>
</glyph>
<glyph name="uniE022" format="2">
  <unicode hex="E022"/>
  <outline>
    <contour>
      <point x="191" y="279" type="curve" smooth="yes"/>
      <point x="165" y="279"/>
      <point x="144" y="299"/>
      <point x="144" y="325" type="curve" smooth="yes"/>
      <point x="144" y="351"/>
      <point x="165" y="372"/>
      <point x="191" y="372" type="curve" smooth="yes"/>
      <point x="217" y="372"/>
      <point x="238" y="351"/>
      <point x="238" y="325" type="curve" smooth="yes"/>
      <point x="238" y="299"/>
      <point x="217" y="279"/>
    </contour>
    <contour>
      <point x="191" y="348" type="curve" smooth="yes"/>
      <point x="177" y="348"/>
      <point x="168" y="339"/>
      <point x="168" y="325" type="curve" smooth="yes"/>
      <point x="168" y="311"/>
      <point x="177" y="303"/>
      <point x="191" y="303" type="curve" smooth="yes"/>
      <point x="205" y="303"/>
      <point x="214" y="311"/>
      <point x="214" y="325" type="curve" smooth="yes"/>
      <point x="214" y="339"/>
      <point x="205" y="348"/>
    </contour>
  </outline>
</glyph>
<glyph name="uniE023" format="2">
  <unicode hex="E023"/>
  <outline>
    <contour>
      <point x="191" y="158" type="curve" smooth="yes"/>
      <point x="165" y="158"/>
      <point x="144" y="178"/>
      <point x="144" y="204" type="curve" smooth="yes"/>
      <point x="144" y="230"/>
      <point x="165" y="251"/>
      <point x="191" y="251" type="curve" smooth="yes"/>
      <point x="217" y="251"/>
      <point x="238" y="230"/>
      <point x="238" y="204" type="curve" smooth="yes"/>
      <point x="238" y="178"/>
      <point x="217" y="158"/>
    </contour>
    <contour>
      <point x="191" y="227" type="curve" smooth="yes"/>
      <point x="177" y="227"/>
      <point x="168" y="218"/>
      <point x="168" y="204" type="curve" smooth="yes"/>
      <point x="168" y="190"/>
      <point x="177" y="182"/>
      <point x="191" y="182" type="curve" smooth="yes"/>
      <point x="205" y="182"/>
      <point x="214" y="190"/>
      <point x="214" y="204" type="curve" smooth="yes"/>
      <point x="214" y="218"/>
      <point x="205" y="227"/>
    </contour>
  </outline>
</glyph>
<glyph name="uniE024" format="2">
  <unicode hex="E024"/>
  <outline>
    <contour>
      <point x="191" y="900" type="line"/>
      <point x="165" y="900"/>
      <point x="144" y="921"/>
      <point x="144" y="947" type="curve" smooth="yes"/>
      <point x="144" y="973"/>
      <point x="165" y="993"/>
      <point x="191" y="993" type="curve"/>
    </contour>
  </outline>
</glyph>
<glyph name="uniE025" format="2">
  <unicode hex="E025"/>
  <outline>
    <contour>
      <point x="191" y="780" type="line"/>
      <point x="165" y="780"/>
      <point x="144" y="801"/>
      <point x="144" y="827" type="curve" smooth="yes"/>
      <point x="144" y="853"/>
      <point x="165" y="873"/>
      <point x="191" y="873" type="curve"/>
    </contour>
  </outline>
</glyph>
<glyph name="uniE026" format="2">
  <unicode hex="E026"/>
  <outline>
    <contour>
      <point x="191" y="657" type="line"/>
      <point x="165" y="657"/>
      <point x="144" y="678"/>
      <point x="144" y="704" type="curve" smooth="yes"/>
      <point x="144" y="730"/>
      <point x="165" y="750"/>
      <point x="191" y="750" type="curve"/>
    </contour>
  </outline>
</glyph>
<glyph name="uniE027" format="2">
  <unicode hex="E027"/>
  <outline>
    <contour>
      <point x="191" y="401" type="line"/>
      <point x="165" y="401"/>
      <point x="144" y="422"/>
      <point x="144" y="447" type="curve" smooth="yes"/>
      <point x="144" y="473"/>
      <point x="165" y="494"/>
      <point x="191" y="494" type="curve"/>
    </contour>
  </outline>
</glyph>
<glyph name="uniE028" format="2">
  <unicode hex="E028"/>
  <outline>
    <contour>
      <point x="191" y="279" type="line"/>
      <point x="165" y="279"/>
      <point x="144" y="300"/>
      <point x="144" y="326" type="curve" smooth="yes"/>
      <point x="144" y="352"/>
      <point x="165" y="372"/>
      <point x="191" y="372" type="curve"/>
    </contour>
  </outline>
</glyph>
<glyph name="uniE029" format="2">
  <unicode hex="E029"/>
  <outline>
    <contour>
      <point x="191" y="158" type="line"/>
      <point x="165" y="158"/>
      <point x="144" y="179"/>
      <point x="144" y="204" type="curve" smooth="yes"/>
      <point x="144" y="230"/>
      <point x="165" y="251"/>
      <point x="191" y="251" type="curve"/>
    </contour>
  </outline>
</glyph>
<glyph name="uniE02A" format="2">
  <unicode hex="E02A"/>
  <outline>
    <contour>
      <point x="238" y="947" type="curve"/>
      <point x="238" y="921"/>
      <point x="217" y="900"/>
      <point x="191" y="900" type="curve"/>
      <point x="191" y="993" type="line"/>
      <point x="217" y="993"/>
      <point x="238" y="973"/>
    </contour>
  </outline>
</glyph>
<glyph name="uniE02B" format="2">
  <unicode hex="E02B"/>
  <outline>
    <contour>
      <point x="238" y="827" type="curve"/>
      <point x="238" y="801"/>
      <point x="217" y="780"/>
      <point x="191" y="780" type="curve"/>
      <point x="191" y="873" type="line"/>
      <point x="217" y="873"/>
      <point x="238" y="853"/>
    </contour>
  </outline>
</glyph>
<glyph name="uniE02C" format="2">
  <unicode hex="E02C"/>
  <outline>
    <contour>
      <point x="238" y="704" type="curve"/>
      <point x="238" y="678"/>
      <point x="217" y="657"/>
      <point x="191" y="657" type="curve"/>
      <point x="191" y="750" type="line"/>
      <point x="217" y="750"/>
      <point x="238" y="730"/>
    </contour>
  </outline>
</glyph>
<glyph name="uniE02D" format="2">
  <unicode hex="E02D"/>
  <outline>
    <contour>
      <point x="238" y="447" type="curve"/>
      <point x="238" y="422"/>
      <point x="217" y="401"/>
      <point x="191" y="401" type="curve"/>
      <point x="191" y="494" type="line"/>
      <point x="217" y="494"/>
      <point x="238" y="473"/>
    </contour>
  </outline>
</glyph>
<glyph name="uniE02E" format="2">
  <unicode hex="E02E"/>
  <outline>
    <contour>
      <point x="238" y="326" type="curve"/>
      <point x="238" y="300"/>
      <point x="217" y="279"/>
      <point x="191" y="279" type="curve"/>
      <point x="191" y="372" type="line"/>
      <point x="217" y="372"/>
      <point x="238" y="352"/>
    </contour>
  </outline>
</glyph>
<glyph name="uniE02F" format="2">
  <unicode hex="E02F"/>
  <outline>
    <contour>
      <point x="238" y="204" type="curve"/>
      <point x="238" y="179"/>
      <point x="217" y="158"/>
      <point x="191" y="158" type="curve"/>
      <point x="191" y="251" type="line"/>
      <point x="217" y="251"/>
      <point x="238" y="230"/>
    </contour>
  </outline>
</glyph>
<glyph name="uniE030" format="2">
  <unicode hex="E030"/>
  <outline>
    <contour>
      <point x="168" y="987" type="line"/>
      <point x="154" y="979"/>
      <point x="144" y="964"/>
      <point x="144" y="947" type="curve" smooth="yes"/>
      <point x="144" y="930"/>
      <point x="154" y="915"/>
      <point x="168" y="906" type="curve"/>
    </contour>
  </outline>
</glyph>
<glyph name="uniE031" format="2">
  <unicode hex="E031"/>
  <outline>
    <contour>
      <point x="168" y="867" type="curve"/>
      <point x="168" y="786" type="line"/>
      <point x="154" y="795"/>
      <point x="144" y="810"/>
      <point x="144" y="827" type="curve" smooth="yes"/>
      <point x="144" y="844"/>
      <point x="154" y="859"/>
    </contour>
  </outline>
</glyph>
<glyph name="uniE032" format="2">
  <unicode hex="E032"/>
  <outline>
    <contour>
      <point x="168" y="744" type="curve"/>
      <point x="168" y="663" type="line"/>
      <point x="154" y="671"/>
      <point x="144" y="686"/>
      <point x="144" y="703" type="curve" smooth="yes"/>
      <point x="144" y="721"/>
      <point x="154" y="736"/>
    </contour>
  </outline>
</glyph>
<glyph name="uniE033" format="2">
  <unicode hex="E033"/>
  <outline>
    <contour>
      <point x="168" y="487" type="curve"/>
      <point x="168" y="406" type="line"/>
      <point x="154" y="415"/>
      <point x="144" y="430"/>
      <point x="144" y="447" type="curve" smooth="yes"/>
      <point x="144" y="464"/>
      <point x="154" y="479"/>
    </contour>
  </outline>
</glyph>
<glyph name="uniE034" format="2">
  <unicode hex="E034"/>
  <outline>
    <contour>
      <point x="168" y="366" type="line"/>
      <point x="154" y="358"/>
      <point x="144" y="343"/>
      <point x="144" y="325" type="curve" smooth="yes"/>
      <point x="144" y="308"/>
      <point x="154" y="293"/>
      <point x="168" y="285" type="curve"/>
    </contour>
  </outline>
</glyph>
<glyph name="uniE035" format="2">
  <unicode hex="E035"/>
  <outline>
    <contour>
      <point x="168" y="244" type="line"/>
      <point x="154" y="236"/>
      <point x="144" y="221"/>
      <point x="144" y="204" type="curve" smooth="yes"/>
      <point x="144" y="187"/>
      <point x="154" y="172"/>
      <point x="168" y="164" type="curve"/>
    </contour>
  </outline>
</glyph>
<glyph name="uniE036" format="2">
  <unicode hex="E036"/>
  <outline>
    <contour>
      <point x="214" y="987" type="line"/>
      <point x="228" y="979"/>
      <point x="238" y="964"/>
      <point x="238" y="947" type="curve" smooth="yes"/>
      <point x="238" y="930"/>
      <point x="228" y="915"/>
      <point x="214" y="906" type="curve"/>
    </contour>
  </outline>
</glyph>
<glyph name="uniE037" format="2">
  <unicode hex="E037"/>
  <outline>
    <contour>
      <point x="214" y="867" type="line"/>
      <point x="228" y="859"/>
      <point x="238" y="844"/>
      <point x="238" y="827" type="curve" smooth="yes"/>
      <point x="238" y="810"/>
      <point x="228" y="795"/>
      <point x="214" y="786" type="curve"/>
    </contour>
  </outline>
</glyph>
<glyph name="uniE038" format="2">
  <unicode hex="E038"/>
  <outline>
    <contour>
      <point x="214" y="743" type="line"/>
      <point x="228" y="735"/>
      <point x="238" y="720"/>
      <point x="238" y="703" type="curve" smooth="yes"/>
      <point x="238" y="686"/>
      <point x="228" y="671"/>
      <point x="214" y="662" type="curve"/>
    </contour>
  </outline>
</glyph>
<glyph name="uniE039" format="2">
  <unicode hex="E039"/>
  <outline>
    <contour>
      <point x="214" y="487" type="line"/>
      <point x="228" y="479"/>
      <point x="238" y="464"/>
      <point x="238" y="447" type="curve" smooth="yes"/>
      <point x="238" y="430"/>
      <point x="228" y="415"/>
      <point x="214" y="406" type="curve"/>
    </contour>
  </outline>
</glyph>
<glyph name="uniE03A" format="2">
  <unicode hex="E03A"/>
  <outline>
    <contour>
      <point x="214" y="366" type="line"/>
      <point x="228" y="358"/>
      <point x="238" y="343"/>
      <point x="238" y="326" type="curve" smooth="yes"/>
      <point x="238" y="309"/>
      <point x="228" y="294"/>
      <point x="214" y="285" type="curve"/>
    </contour>
  </outline>
</glyph>
<glyph name="uniE03B" format="2">
  <unicode hex="E03B"/>
  <outline>
    <contour>
      <point x="214" y="244" type="line"/>
      <point x="228" y="236"/>
      <point x="238" y="221"/>
      <point x="238" y="204" type="curve" smooth="yes"/>
      <point x="238" y="187"/>
      <point x="228" y="172"/>
      <point x="214" y="164" type="curve"/>
    </contour>
  </outline>
</glyph>
<glyph name="uniE03D" format="2">
  <unicode hex="E03D"/>
  <outline>
    <contour>
      <point x="7" y="789" type="curve"/>
      <point x="7" y="789"/>
      <point x="6" y="789"/>
      <point x="5" y="790" type="curve" smooth="yes"/>
      <point x="4" y="791"/>
      <point x="4" y="793"/>
      <point x="5" y="794" type="curve"/>
      <point x="55" y="844" type="line"/>
      <point x="57" y="846"/>
      <point x="59" y="846"/>
      <point x="60" y="844" type="curve" smooth="yes"/>
      <point x="61" y="843"/>
      <point x="61" y="841"/>
      <point x="60" y="840" type="curve"/>
      <point x="9" y="790" type="line"/>
      <point x="9" y="789"/>
      <point x="8" y="789"/>
    </contour>
  </outline>
</glyph>
<glyph name="uniE03E" format="2">
  <unicode hex="E03E"/>
  <outline>
    <contour>
      <point x="142" y="896" type="curve"/>
      <point x="141" y="896"/>
      <point x="140" y="896"/>
      <point x="139" y="897" type="curve" smooth="yes"/>
      <point x="138" y="898"/>
      <point x="138" y="900"/>
      <point x="139" y="901" type="curve"/>
      <point x="237" y="998" type="line"/>
      <point x="238" y="1000"/>
      <point x="240" y="1000"/>
      <point x="241" y="998" type="curve" smooth="yes"/>
      <point x="242" y="997"/>
      <point x="242" y="995"/>
      <point x="241" y="994" type="curve"/>
      <point x="144" y="897" type="line"/>
      <point x="143" y="896"/>
      <point x="142" y="896"/>
    </contour>
  </outline>
</glyph>
<glyph name="uniE03F" format="2">
  <unicode hex="E03F"/>
  <outline>
    <contour>
      <point x="142" y="775" type="curve"/>
      <point x="141" y="775"/>
      <point x="140" y="775"/>
      <point x="139" y="776" type="curve" smooth="yes"/>
      <point x="138" y="777"/>
      <point x="138" y="779"/>
      <point x="139" y="780" type="curve"/>
      <point x="237" y="877" type="line"/>
      <point x="238" y="879"/>
      <point x="240" y="879"/>
      <point x="241" y="877" type="curve" smooth="yes"/>
      <point x="242" y="876"/>
      <point x="242" y="874"/>
      <point x="241" y="873" type="curve"/>
      <point x="144" y="776" type="line"/>
      <point x="143" y="775"/>
      <point x="142" y="775"/>
    </contour>
  </outline>
</glyph>
<glyph name="uniE040" format="2">
  <unicode hex="E040"/>
  <outline>
    <contour>
      <point x="142" y="650" type="curve"/>
      <point x="141" y="650"/>
      <point x="140" y="650"/>
      <point x="139" y="651" type="curve" smooth="yes"/>
      <point x="138" y="652"/>
      <point x="138" y="654"/>
      <point x="139" y="655" type="curve"/>
      <point x="237" y="752" type="line"/>
      <point x="238" y="754"/>
      <point x="240" y="754"/>
      <point x="241" y="752" type="curve" smooth="yes"/>
      <point x="242" y="751"/>
      <point x="242" y="749"/>
      <point x="241" y="748" type="curve"/>
      <point x="144" y="651" type="line"/>
      <point x="143" y="650"/>
      <point x="142" y="650"/>
    </contour>
  </outline>
</glyph>
<glyph name="uniE041" format="2">
  <unicode hex="E041"/>
  <outline>
    <contour>
      <point x="222" y="616" type="curve"/>
      <point x="221" y="616"/>
      <point x="220" y="616"/>
      <point x="220" y="617" type="curve" smooth="yes"/>
      <point x="219" y="618"/>
      <point x="219" y="620"/>
      <point x="220" y="621" type="curve"/>
      <point x="303" y="704" type="line"/>
      <point x="305" y="706"/>
      <point x="307" y="706"/>
      <point x="308" y="704" type="curve" smooth="yes"/>
      <point x="309" y="703"/>
      <point x="309" y="701"/>
      <point x="308" y="700" type="curve"/>
      <point x="224" y="617" type="line"/>
      <point x="223" y="616"/>
      <point x="223" y="616"/>
    </contour>
  </outline>
</glyph>
<glyph name="uniE042" format="2">
  <unicode hex="E042"/>
  <outline>
    <contour>
      <point x="129" y="515" type="curve"/>
      <point x="128" y="515"/>
      <point x="127" y="515"/>
      <point x="127" y="516" type="curve" smooth="yes"/>
      <point x="126" y="517"/>
      <point x="126" y="519"/>
      <point x="127" y="520" type="curve"/>
      <point x="179" y="573" type="line"/>
      <point x="181" y="574"/>
      <point x="183" y="574"/>
      <point x="184" y="573" type="curve" smooth="yes"/>
      <point x="185" y="572"/>
      <point x="185" y="570"/>
      <point x="184" y="569" type="curve"/>
      <point x="131" y="516" type="line"/>
      <point x="130" y="515"/>
      <point x="130" y="515"/>
    </contour>
  </outline>
</glyph>
<glyph name="uniE043" format="2">
  <unicode hex="E043"/>
  <outline>
    <contour>
      <point x="77" y="482" type="curve"/>
      <point x="76" y="482"/>
      <point x="75" y="482"/>
      <point x="75" y="483" type="curve" smooth="yes"/>
      <point x="74" y="484"/>
      <point x="74" y="486"/>
      <point x="75" y="487" type="curve"/>
      <point x="127" y="540" type="line"/>
      <point x="129" y="541"/>
      <point x="131" y="541"/>
      <point x="132" y="540" type="curve" smooth="yes"/>
      <point x="133" y="539"/>
      <point x="133" y="537"/>
      <point x="132" y="536" type="curve"/>
      <point x="79" y="483" type="line"/>
      <point x="78" y="482"/>
      <point x="78" y="482"/>
    </contour>
  </outline>
</glyph>
<glyph name="uniE044" format="2">
  <unicode hex="E044"/>
  <outline>
    <contour>
      <point x="142" y="398" type="curve"/>
      <point x="141" y="398"/>
      <point x="140" y="398"/>
      <point x="139" y="398" type="curve" smooth="yes"/>
      <point x="138" y="400"/>
      <point x="138" y="402"/>
      <point x="139" y="403" type="curve"/>
      <point x="237" y="500" type="line"/>
      <point x="238" y="501"/>
      <point x="240" y="501"/>
      <point x="241" y="500" type="curve" smooth="yes"/>
      <point x="242" y="499"/>
      <point x="242" y="497"/>
      <point x="241" y="496" type="curve"/>
      <point x="144" y="398" type="line"/>
      <point x="143" y="398"/>
      <point x="142" y="398"/>
    </contour>
  </outline>
</glyph>
<glyph name="uniE046" format="2">
  <unicode hex="E046"/>
  <outline>
    <contour>
      <point x="142" y="272" type="curve"/>
      <point x="141" y="272"/>
      <point x="140" y="272"/>
      <point x="139" y="272" type="curve" smooth="yes"/>
      <point x="138" y="274"/>
      <point x="138" y="276"/>
      <point x="139" y="277" type="curve"/>
      <point x="237" y="374" type="line"/>
      <point x="238" y="375"/>
      <point x="240" y="375"/>
      <point x="241" y="374" type="curve" smooth="yes"/>
      <point x="242" y="373"/>
      <point x="242" y="371"/>
      <point x="241" y="370" type="curve"/>
      <point x="144" y="272" type="line"/>
      <point x="143" y="272"/>
      <point x="142" y="272"/>
    </contour>
  </outline>
</glyph>
<glyph name="uniE047" format="2">
  <unicode hex="E047"/>
  <outline>
    <contour>
      <point x="149" y="243" type="curve"/>
      <point x="148" y="243"/>
      <point x="147" y="243"/>
      <point x="146" y="244" type="curve"/>
      <point x="103" y="287" type="line"/>
      <point x="102" y="288"/>
      <point x="102" y="290"/>
      <point x="103" y="291" type="curve" smooth="yes"/>
      <point x="104" y="292"/>
      <point x="106" y="292"/>
      <point x="107" y="291" type="curve"/>
      <point x="151" y="248" type="line"/>
      <point x="152" y="247"/>
      <point x="152" y="245"/>
      <point x="151" y="244" type="curve" smooth="yes"/>
      <point x="150" y="243"/>
      <point x="149" y="243"/>
    </contour>
  </outline>
</glyph>
<glyph name="uniE048" format="2">
  <unicode hex="E048"/>
  <outline>
    <contour>
      <point x="142" y="154" type="curve"/>
      <point x="141" y="154"/>
      <point x="140" y="154"/>
      <point x="139" y="154" type="curve" smooth="yes"/>
      <point x="138" y="156"/>
      <point x="138" y="158"/>
      <point x="139" y="159" type="curve"/>
      <point x="237" y="256" type="line"/>
      <point x="238" y="257"/>
      <point x="240" y="257"/>
      <point x="241" y="256" type="curve" smooth="yes"/>
      <point x="242" y="255"/>
      <point x="242" y="253"/>
      <point x="241" y="252" type="curve"/>
      <point x="144" y="154" type="line"/>
      <point x="143" y="154"/>
      <point x="142" y="154"/>
    </contour>
  </outline>
</glyph>
<glyph name="uniE049" format="2">
  <unicode hex="E049"/>
  <outline>
    <contour>
      <point x="117" y="96" type="curve"/>
      <point x="116" y="96"/>
      <point x="115" y="97"/>
      <point x="114" y="97" type="curve" smooth="yes"/>
      <point x="113" y="98"/>
      <point x="113" y="100"/>
      <point x="114" y="101" type="curve"/>
      <point x="169" y="156" type="line"/>
      <point x="171" y="158"/>
      <point x="173" y="158"/>
      <point x="174" y="156" type="curve" smooth="yes"/>
      <point x="175" y="155"/>
      <point x="175" y="153"/>
      <point x="174" y="152" type="curve"/>
      <point x="119" y="97" type="line"/>
      <point x="118" y="97"/>
      <point x="117" y="96"/>
    </contour>
  </outline>
</glyph>
<glyph name="uniE04A" format="2">
  <unicode hex="E04A"/>
  <outline>
    <contour>
      <point x="103" y="29" type="curve"/>
      <point x="102" y="29"/>
      <point x="101" y="29"/>
      <point x="100" y="30" type="curve" smooth="yes"/>
      <point x="99" y="31"/>
      <point x="99" y="33"/>
      <point x="100" y="34" type="curve"/>
      <point x="158" y="92" type="line"/>
      <point x="159" y="93"/>
      <point x="161" y="93"/>
      <point x="162" y="92" type="curve" smooth="yes"/>
      <point x="164" y="91"/>
      <point x="164" y="89"/>
      <point x="162" y="88" type="curve"/>
      <point x="105" y="30" type="line"/>
      <point x="104" y="29"/>
      <point x="103" y="29"/>
    </contour>
  </outline>
</glyph>
<glyph name="uniE04B" format="2">
  <unicode hex="E04B"/>
  <outline>
    <contour>
      <point x="164" y="52" type="curve"/>
      <point x="163" y="52"/>
      <point x="162" y="52"/>
      <point x="162" y="53" type="curve" smooth="yes"/>
      <point x="161" y="54"/>
      <point x="161" y="56"/>
      <point x="162" y="57" type="curve"/>
      <point x="190" y="85" type="line"/>
      <point x="191" y="87"/>
      <point x="193" y="87"/>
      <point x="194" y="85" type="curve" smooth="yes"/>
      <point x="196" y="84"/>
      <point x="196" y="82"/>
      <point x="194" y="81" type="curve"/>
      <point x="166" y="53" type="line"/>
      <point x="165" y="52"/>
      <point x="165" y="52"/>
    </contour>
  </outline>
</glyph>
<glyph name="uniE04C" format="2">
  <unicode hex="E04C"/>
  <outline>
    <contour>
      <point x="197" y="52" type="curve"/>
      <point x="197" y="52"/>
      <point x="196" y="52"/>
      <point x="195" y="53" type="curve" smooth="yes"/>
      <point x="194" y="54"/>
      <point x="194" y="56"/>
      <point x="195" y="57" type="curve"/>
      <point x="223" y="85" type="line"/>
      <point x="225" y="87"/>
      <point x="227" y="87"/>
      <point x="228" y="85" type="curve" smooth="yes"/>
      <point x="229" y="84"/>
      <point x="229" y="82"/>
      <point x="228" y="81" type="curve"/>
      <point x="199" y="53" type="line"/>
      <point x="199" y="52"/>
      <point x="198" y="52"/>
    </contour>
  </outline>
</glyph>
<glyph name="uniE04D" format="2">
  <unicode hex="E04D"/>
  <outline>
    <contour>
      <point x="182" y="-8" type="curve"/>
      <point x="182" y="-8"/>
      <point x="181" y="-8"/>
      <point x="180" y="-7" type="curve" smooth="yes"/>
      <point x="179" y="-6"/>
      <point x="179" y="-4"/>
      <point x="180" y="-3" type="curve"/>
      <point x="217" y="34" type="line"/>
      <point x="219" y="36"/>
      <point x="221" y="36"/>
      <point x="222" y="34" type="curve" smooth="yes"/>
      <point x="223" y="33"/>
      <point x="223" y="31"/>
      <point x="222" y="30" type="curve"/>
      <point x="184" y="-7" type="line"/>
      <point x="184" y="-8"/>
      <point x="183" y="-8"/>
    </contour>
  </outline>
</glyph>
<glyph name="uniE0A0" format="2">
  <unicode hex="E0A0"/>
  <outline>
    <contour>
      <point x="56" y="28" type="line" smooth="yes"/>
      <point x="56" y="27"/>
      <point x="61" y="25"/>
      <point x="64" y="25" type="curve" smooth="yes"/>
      <point x="69" y="25"/>
      <point x="74" y="27"/>
      <point x="74" y="28" type="curve" smooth="yes"/>
      <point x="74" y="42" type="line" smooth="yes"/>
      <point x="73" y="42"/>
      <point x="69" y="44"/>
      <point x="66" y="44" type="curve" smooth="yes"/>
      <point x="61" y="44"/>
      <point x="57" y="42"/>
      <point x="56" y="42" type="curve" smooth="yes"/>
    </contour>
    <contour>
      <point x="66" y="19" type="curve" smooth="yes"/>
      <point x="60" y="19"/>
      <point x="50" y="21"/>
      <point x="50" y="27" type="curve" smooth="yes"/>
      <point x="50" y="42" type="line" smooth="yes"/>
      <point x="50" y="48"/>
      <point x="60" y="50"/>
      <point x="64" y="50" type="curve" smooth="yes"/>
      <point x="70" y="50"/>
      <point x="80" y="48"/>
      <point x="80" y="42" type="curve" smooth="yes"/>
      <point x="80" y="27" type="line" smooth="yes"/>
      <point x="80" y="21"/>
      <point x="70" y="19"/>
    </contour>
    <contour>
      <point x="56" y="62" type="line" smooth="yes"/>
      <point x="56" y="61"/>
      <point x="61" y="59"/>
      <point x="64" y="59" type="curve" smooth="yes"/>
      <point x="69" y="59"/>
      <point x="74" y="61"/>
      <point x="74" y="62" type="curve" smooth="yes"/>
      <point x="74" y="76" type="line" smooth="yes"/>
      <point x="73" y="77"/>
      <point x="69" y="78"/>
      <point x="66" y="78" type="curve" smooth="yes"/>
      <point x="61" y="78"/>
      <point x="57" y="77"/>
      <point x="56" y="76" type="curve" smooth="yes"/>
    </contour>
    <contour>
      <point x="66" y="53" type="curve" smooth="yes"/>
      <point x="60" y="53"/>
      <point x="50" y="55"/>
      <point x="50" y="62" type="curve" smooth="yes"/>
      <point x="50" y="76" type="line" smooth="yes"/>
      <point x="50" y="82"/>
      <point x="60" y="84"/>
      <point x="64" y="84" type="curve" smooth="yes"/>
      <point x="70" y="84"/>
      <point x="80" y="82"/>
      <point x="80" y="76" type="curve" smooth="yes"/>
      <point x="80" y="62" type="line" smooth="yes"/>
      <point x="80" y="55"/>
      <point x="70" y="53"/>
    </contour>
    <contour>
      <point x="22" y="43" type="line" smooth="yes"/>
      <point x="23" y="42"/>
      <point x="27" y="40"/>
      <point x="31" y="40" type="curve" smooth="yes"/>
      <point x="36" y="40"/>
      <point x="40" y="42"/>
      <point x="41" y="43" type="curve" smooth="yes"/>
      <point x="41" y="57" type="line" smooth="yes"/>
      <point x="40" y="58"/>
      <point x="35" y="59"/>
      <point x="32" y="59" type="curve" smooth="yes"/>
      <point x="27" y="59"/>
      <point x="23" y="58"/>
      <point x="22" y="57" type="curve" smooth="yes"/>
    </contour>
    <contour>
      <point x="32" y="34" type="curve" smooth="yes"/>
      <point x="26" y="34"/>
      <point x="16" y="36"/>
      <point x="16" y="43" type="curve" smooth="yes"/>
      <point x="16" y="57" type="line" smooth="yes"/>
      <point x="16" y="63"/>
      <point x="26" y="65"/>
      <point x="31" y="65" type="curve" smooth="yes"/>
      <point x="37" y="65"/>
      <point x="47" y="63"/>
      <point x="47" y="57" type="curve" smooth="yes"/>
      <point x="47" y="43" type="line" smooth="yes"/>
      <point x="47" y="36"/>
      <point x="37" y="34"/>
    </contour>
    <contour>
      <point x="22" y="78" type="line" smooth="yes"/>
      <point x="23" y="77"/>
      <point x="27" y="75"/>
      <point x="31" y="75" type="curve" smooth="yes"/>
      <point x="36" y="75"/>
      <point x="40" y="77"/>
      <point x="41" y="78" type="curve" smooth="yes"/>
      <point x="41" y="92" type="line" smooth="yes"/>
      <point x="40" y="93"/>
      <point x="35" y="94"/>
      <point x="32" y="94" type="curve" smooth="yes"/>
      <point x="27" y="94"/>
      <point x="23" y="93"/>
      <point x="22" y="92" type="curve" smooth="yes"/>
    </contour>
    <contour>
      <point x="32" y="69" type="curve" smooth="yes"/>
      <point x="26" y="69"/>
      <point x="16" y="71"/>
      <point x="16" y="78" type="curve" smooth="yes"/>
      <point x="16" y="92" type="line" smooth="yes"/>
      <point x="16" y="98"/>
      <point x="26" y="100"/>
      <point x="31" y="100" type="curve" smooth="yes"/>
      <point x="37" y="100"/>
      <point x="47" y="98"/>
      <point x="47" y="92" type="curve" smooth="yes"/>
      <point x="47" y="78" type="line" smooth="yes"/>
      <point x="47" y="71"/>
      <point x="37" y="69"/>
    </contour>
    <contour>
      <point x="26" y="431" type="line" smooth="yes"/>
      <point x="24" y="431"/>
      <point x="22" y="429"/>
      <point x="22" y="427" type="curve" smooth="yes"/>
      <point x="22" y="424"/>
      <point x="24" y="422"/>
      <point x="26" y="422" type="curve" smooth="yes"/>
      <point x="34" y="422" type="line" smooth="yes"/>
      <point x="36" y="422"/>
      <point x="38" y="424"/>
      <point x="38" y="427" type="curve" smooth="yes"/>
      <point x="38" y="429"/>
      <point x="36" y="431"/>
      <point x="34" y="431" type="curve" smooth="yes"/>
    </contour>
    <contour>
      <point x="34" y="416" type="curve" smooth="yes"/>
      <point x="26" y="416" type="line" smooth="yes"/>
      <point x="20" y="416"/>
      <point x="16" y="421"/>
      <point x="16" y="427" type="curve" smooth="yes"/>
      <point x="16" y="433"/>
      <point x="20" y="437"/>
      <point x="26" y="437" type="curve" smooth="yes"/>
      <point x="34" y="437" type="line" smooth="yes"/>
      <point x="40" y="437"/>
      <point x="44" y="433"/>
      <point x="44" y="427" type="curve" smooth="yes"/>
      <point x="44" y="421"/>
      <point x="40" y="416"/>
    </contour>
    <contour>
      <point x="26" y="408" type="line" smooth="yes"/>
      <point x="24" y="408"/>
      <point x="22" y="406"/>
      <point x="22" y="404" type="curve" smooth="yes"/>
      <point x="22" y="401"/>
      <point x="24" y="399"/>
      <point x="26" y="399" type="curve" smooth="yes"/>
      <point x="34" y="399" type="line" smooth="yes"/>
      <point x="36" y="399"/>
      <point x="38" y="401"/>
      <point x="38" y="404" type="curve" smooth="yes"/>
      <point x="38" y="406"/>
      <point x="36" y="408"/>
      <point x="34" y="408" type="curve" smooth="yes"/>
    </contour>
    <contour>
      <point x="34" y="393" type="curve" smooth="yes"/>
      <point x="26" y="393" type="line" smooth="yes"/>
      <point x="20" y="393"/>
      <point x="16" y="398"/>
      <point x="16" y="404" type="curve" smooth="yes"/>
      <point x="16" y="410"/>
      <point x="20" y="414"/>
      <point x="26" y="414" type="curve" smooth="yes"/>
      <point x="34" y="414" type="line" smooth="yes"/>
      <point x="40" y="414"/>
      <point x="44" y="410"/>
      <point x="44" y="404" type="curve" smooth="yes"/>
      <point x="44" y="398"/>
      <point x="40" y="393"/>
    </contour>
    <contour>
      <point x="18" y="385" type="line" smooth="yes"/>
      <point x="15" y="385"/>
      <point x="13" y="383"/>
      <point x="13" y="381" type="curve" smooth="yes"/>
      <point x="13" y="378"/>
      <point x="15" y="376"/>
      <point x="18" y="376" type="curve" smooth="yes"/>
      <point x="34" y="376" type="line" smooth="yes"/>
      <point x="36" y="376"/>
      <point x="38" y="378"/>
      <point x="38" y="381" type="curve" smooth="yes"/>
      <point x="38" y="383"/>
      <point x="36" y="385"/>
      <point x="34" y="385" type="curve" smooth="yes"/>
    </contour>
    <contour>
      <point x="34" y="370" type="curve" smooth="yes"/>
      <point x="18" y="370" type="line" smooth="yes"/>
      <point x="12" y="370"/>
      <point x="7" y="375"/>
      <point x="7" y="381" type="curve" smooth="yes"/>
      <point x="7" y="387"/>
      <point x="12" y="391"/>
      <point x="18" y="391" type="curve" smooth="yes"/>
      <point x="34" y="391" type="line" smooth="yes"/>
      <point x="39" y="391"/>
      <point x="44" y="387"/>
      <point x="44" y="381" type="curve" smooth="yes"/>
      <point x="44" y="375"/>
      <point x="39" y="370"/>
    </contour>
    <contour>
      <point x="11" y="362" type="line" smooth="yes"/>
      <point x="8" y="362"/>
      <point x="6" y="360"/>
      <point x="6" y="357" type="curve" smooth="yes"/>
      <point x="6" y="354"/>
      <point x="8" y="352"/>
      <point x="11" y="352" type="curve" smooth="yes"/>
      <point x="33" y="352" type="line" smooth="yes"/>
      <point x="36" y="352"/>
      <point x="38" y="354"/>
      <point x="38" y="357" type="curve" smooth="yes"/>
      <point x="38" y="360"/>
      <point x="36" y="362"/>
      <point x="33" y="362" type="curve" smooth="yes"/>
    </contour>
    <contour>
      <point x="33" y="346" type="curve" smooth="yes"/>
      <point x="11" y="346" type="line" smooth="yes"/>
      <point x="5" y="346"/>
      <point x="0" y="351"/>
      <point x="0" y="357" type="curve" smooth="yes"/>
      <point x="0" y="363"/>
      <point x="5" y="368"/>
      <point x="11" y="368" type="curve" smooth="yes"/>
      <point x="33" y="368" type="line" smooth="yes"/>
      <point x="39" y="368"/>
      <point x="44" y="363"/>
      <point x="44" y="357" type="curve" smooth="yes"/>
      <point x="44" y="351"/>
      <point x="39" y="346"/>
    </contour>
    <contour>
      <point x="28" y="199" type="line" smooth="yes"/>
      <point x="27" y="199"/>
      <point x="26" y="198"/>
      <point x="26" y="196" type="curve" smooth="yes"/>
      <point x="26" y="195"/>
      <point x="27" y="194"/>
      <point x="28" y="194" type="curve" smooth="yes"/>
      <point x="60" y="194" type="line" smooth="yes"/>
      <point x="61" y="194"/>
      <point x="62" y="195"/>
      <point x="62" y="196" type="curve" smooth="yes"/>
      <point x="62" y="198"/>
      <point x="61" y="199"/>
      <point x="60" y="199" type="curve" smooth="yes"/>
    </contour>
    <contour>
      <point x="60" y="188" type="curve" smooth="yes"/>
      <point x="28" y="188" type="line" smooth="yes"/>
      <point x="24" y="188"/>
      <point x="20" y="192"/>
      <point x="20" y="196" type="curve" smooth="yes"/>
      <point x="20" y="201"/>
      <point x="24" y="205"/>
      <point x="28" y="205" type="curve" smooth="yes"/>
      <point x="60" y="205" type="line" smooth="yes"/>
      <point x="64" y="205"/>
      <point x="68" y="201"/>
      <point x="68" y="196" type="curve" smooth="yes"/>
      <point x="68" y="192"/>
      <point x="64" y="188"/>
    </contour>
    <contour>
      <point x="94" y="510" type="line" smooth="yes"/>
      <point x="91" y="510"/>
      <point x="87" y="506"/>
      <point x="86" y="501" type="curve" smooth="yes"/>
      <point x="86" y="500"/>
      <point x="85" y="499"/>
      <point x="85" y="498" type="curve" smooth="yes"/>
      <point x="85" y="496"/>
      <point x="86" y="493"/>
      <point x="89" y="492" type="curve" smooth="yes"/>
      <point x="114" y="480" type="line"/>
      <point x="113" y="500"/>
      <point x="106" y="503"/>
      <point x="106" y="503" type="curve"/>
    </contour>
    <contour>
      <point x="117" y="472" type="curve" smooth="yes"/>
      <point x="108" y="478"/>
      <point x="96" y="482"/>
      <point x="86" y="487" type="curve" smooth="yes"/>
      <point x="82" y="489"/>
      <point x="79" y="493"/>
      <point x="79" y="498" type="curve" smooth="yes"/>
      <point x="79" y="499"/>
      <point x="80" y="501"/>
      <point x="80" y="502" type="curve" smooth="yes"/>
      <point x="81" y="509"/>
      <point x="87" y="516"/>
      <point x="94" y="516" type="curve" smooth="yes"/>
      <point x="96" y="516"/>
      <point x="97" y="516"/>
      <point x="99" y="515" type="curve" smooth="yes"/>
      <point x="109" y="509" type="line" smooth="yes"/>
      <point x="111" y="508"/>
      <point x="120" y="502"/>
      <point x="120" y="476" type="curve" smooth="yes"/>
      <point x="120" y="473"/>
      <point x="119" y="472"/>
    </contour>
    <contour>
      <point x="130" y="507" type="curve"/>
      <point x="141" y="507" type="line" smooth="yes"/>
      <point x="144" y="507"/>
      <point x="146" y="508"/>
      <point x="148" y="509" type="curve" smooth="yes"/>
      <point x="149" y="510"/>
      <point x="150" y="512"/>
      <point x="150" y="514" type="curve" smooth="yes"/>
      <point x="150" y="517"/>
      <point x="148" y="520"/>
      <point x="145" y="520" type="curve" smooth="yes"/>
      <point x="143" y="520"/>
      <point x="142" y="521"/>
      <point x="141" y="521" type="curve" smooth="yes"/>
      <point x="134" y="521"/>
      <point x="130" y="516"/>
    </contour>
    <contour>
      <point x="141" y="501" type="curve" smooth="yes"/>
      <point x="127" y="501" type="line" smooth="yes"/>
      <point x="125" y="501"/>
      <point x="124" y="502"/>
      <point x="124" y="504" type="curve" smooth="yes"/>
      <point x="124" y="525"/>
      <point x="136" y="527"/>
      <point x="141" y="527" type="curve" smooth="yes"/>
      <point x="143" y="527"/>
      <point x="144" y="527"/>
      <point x="145" y="526" type="curve" smooth="yes"/>
      <point x="152" y="526"/>
      <point x="156" y="520"/>
      <point x="156" y="514" type="curve" smooth="yes"/>
      <point x="156" y="510"/>
      <point x="154" y="507"/>
      <point x="152" y="505" type="curve" smooth="yes"/>
      <point x="150" y="503"/>
      <point x="147" y="501"/>
    </contour>
    <contour>
      <point x="132" y="476" type="line"/>
      <point x="145" y="476" type="line" smooth="yes"/>
      <point x="148" y="476"/>
      <point x="151" y="476"/>
      <point x="152" y="478" type="curve" smooth="yes"/>
      <point x="153" y="479"/>
      <point x="154" y="481"/>
      <point x="154" y="483" type="curve" smooth="yes"/>
      <point x="154" y="486"/>
      <point x="151" y="490"/>
      <point x="145" y="490" type="curve" smooth="yes"/>
      <point x="132" y="490" type="line"/>
    </contour>
    <contour>
      <point x="145" y="470" type="curve" smooth="yes"/>
      <point x="129" y="470" type="line" smooth="yes"/>
      <point x="127" y="470"/>
      <point x="126" y="471"/>
      <point x="126" y="473" type="curve" smooth="yes"/>
      <point x="126" y="493" type="line" smooth="yes"/>
      <point x="126" y="495"/>
      <point x="127" y="496"/>
      <point x="129" y="496" type="curve" smooth="yes"/>
      <point x="145" y="496" type="line" smooth="yes"/>
      <point x="155" y="496"/>
      <point x="160" y="489"/>
      <point x="160" y="483" type="curve" smooth="yes"/>
      <point x="160" y="479"/>
      <point x="159" y="476"/>
      <point x="156" y="474" type="curve" smooth="yes"/>
      <point x="154" y="471"/>
      <point x="150" y="470"/>
    </contour>
    <contour>
      <point x="125" y="452" type="curve" smooth="yes"/>
      <point x="45" y="452" type="line" smooth="yes"/>
      <point x="43" y="452"/>
      <point x="42" y="453"/>
      <point x="42" y="455" type="curve" smooth="yes"/>
      <point x="42" y="456"/>
      <point x="43" y="458"/>
      <point x="45" y="458" type="curve" smooth="yes"/>
      <point x="125" y="458" type="line" smooth="yes"/>
      <point x="127" y="458"/>
      <point x="128" y="456"/>
      <point x="128" y="455" type="curve" smooth="yes"/>
      <point x="128" y="453"/>
      <point x="127" y="452"/>
    </contour>
    <contour>
      <point x="63" y="528" type="curve" smooth="yes"/>
      <point x="106" y="528" type="line" smooth="yes"/>
      <point x="108" y="528"/>
      <point x="110" y="529"/>
      <point x="110" y="530" type="curve" smooth="yes"/>
      <point x="112" y="531"/>
      <point x="112" y="533"/>
      <point x="112" y="535" type="curve" smooth="yes"/>
      <point x="112" y="539"/>
      <point x="110" y="541"/>
      <point x="105" y="541" type="curve" smooth="yes"/>
      <point x="97" y="541"/>
      <point x="95" y="534"/>
      <point x="95" y="534" type="curve" smooth="yes"/>
      <point x="94" y="533"/>
      <point x="93" y="532"/>
      <point x="92" y="532" type="curve" smooth="yes"/>
      <point x="63" y="532" type="line" smooth="yes"/>
      <point x="61" y="532"/>
      <point x="60" y="530"/>
      <point x="60" y="530" type="curve" smooth="yes"/>
      <point x="60" y="529"/>
      <point x="60" y="528"/>
    </contour>
    <contour>
      <point x="106" y="522" type="curve" smooth="yes"/>
      <point x="63" y="522" type="line" smooth="yes"/>
      <point x="58" y="522"/>
      <point x="54" y="525"/>
      <point x="54" y="530" type="curve" smooth="yes"/>
      <point x="54" y="534"/>
      <point x="57" y="538"/>
      <point x="63" y="538" type="curve" smooth="yes"/>
      <point x="90" y="538" type="line"/>
      <point x="92" y="542"/>
      <point x="96" y="547"/>
      <point x="105" y="547" type="curve" smooth="yes"/>
      <point x="111" y="547"/>
      <point x="118" y="543"/>
      <point x="118" y="535" type="curve" smooth="yes"/>
      <point x="118" y="532"/>
      <point x="117" y="529"/>
      <point x="115" y="526" type="curve" smooth="yes"/>
      <point x="113" y="523"/>
      <point x="109" y="522"/>
    </contour>
    <contour>
      <point x="130" y="655" type="line" smooth="yes"/>
      <point x="129" y="654"/>
      <point x="128" y="654"/>
      <point x="127" y="654" type="curve" smooth="yes"/>
      <point x="123" y="650"/>
      <point x="105" y="648"/>
      <point x="95" y="647" type="curve" smooth="yes"/>
      <point x="90" y="647"/>
      <point x="88" y="645"/>
      <point x="88" y="643" type="curve" smooth="yes"/>
      <point x="88" y="642"/>
      <point x="89" y="640"/>
      <point x="92" y="640" type="curve" smooth="yes"/>
      <point x="97" y="640"/>
      <point x="108" y="640"/>
      <point x="118" y="642" type="curve" smooth="yes"/>
      <point x="131" y="645"/>
      <point x="136" y="648"/>
      <point x="136" y="651" type="curve" smooth="yes"/>
      <point x="136" y="655"/>
      <point x="134" y="655"/>
      <point x="134" y="655" type="curve"/>
    </contour>
    <contour>
      <point x="92" y="634" type="curve" smooth="yes"/>
      <point x="86" y="634"/>
      <point x="83" y="638"/>
      <point x="82" y="643" type="curve" smooth="yes"/>
      <point x="82" y="648"/>
      <point x="85" y="653"/>
      <point x="93" y="653" type="curve" smooth="yes"/>
      <point x="103" y="654"/>
      <point x="117" y="657"/>
      <point x="123" y="659" type="curve" smooth="yes"/>
      <point x="124" y="659"/>
      <point x="125" y="659"/>
      <point x="126" y="660" type="curve" smooth="yes"/>
      <point x="130" y="660"/>
      <point x="132" y="661"/>
      <point x="134" y="661" type="curve" smooth="yes"/>
      <point x="137" y="661"/>
      <point x="142" y="660"/>
      <point x="142" y="651" type="curve" smooth="yes"/>
      <point x="142" y="644"/>
      <point x="134" y="639"/>
      <point x="119" y="637" type="curve" smooth="yes"/>
      <point x="109" y="634"/>
      <point x="97" y="634"/>
    </contour>
    <contour>
      <point x="122" y="868" type="line"/>
      <point x="122" y="826" type="line" smooth="yes"/>
      <point x="122" y="821"/>
      <point x="128" y="800"/>
      <point x="147" y="800" type="curve" smooth="yes"/>
      <point x="154" y="800"/>
      <point x="158" y="801"/>
      <point x="160" y="804" type="curve" smooth="yes"/>
      <point x="162" y="806"/>
      <point x="162" y="808"/>
      <point x="162" y="809" type="curve" smooth="yes"/>
      <point x="162" y="818"/>
      <point x="156" y="821"/>
      <point x="150" y="823" type="curve" smooth="yes"/>
      <point x="146" y="825"/>
      <point x="142" y="828"/>
      <point x="139" y="831" type="curve" smooth="yes"/>
      <point x="131" y="839"/>
      <point x="126" y="844"/>
      <point x="126" y="867" type="curve"/>
    </contour>
    <contour>
      <point x="147" y="794" type="curve" smooth="yes"/>
      <point x="125" y="794"/>
      <point x="116" y="817"/>
      <point x="116" y="826" type="curve" smooth="yes"/>
      <point x="116" y="871" type="line" smooth="yes"/>
      <point x="116" y="873"/>
      <point x="118" y="873"/>
      <point x="119" y="874" type="curve" smooth="yes"/>
      <point x="129" y="873" type="line" smooth="yes"/>
      <point x="130" y="873"/>
      <point x="132" y="872"/>
      <point x="132" y="870" type="curve" smooth="yes"/>
      <point x="132" y="848"/>
      <point x="136" y="843"/>
      <point x="142" y="836" type="curve" smooth="yes"/>
      <point x="142" y="836"/>
      <point x="149" y="831"/>
      <point x="153" y="829" type="curve" smooth="yes"/>
      <point x="154" y="828"/>
      <point x="168" y="819"/>
      <point x="168" y="812" type="curve" smooth="yes"/>
      <point x="168" y="807"/>
      <point x="168" y="803"/>
      <point x="165" y="800" type="curve" smooth="yes"/>
      <point x="161" y="796"/>
      <point x="155" y="794"/>
    </contour>
    <contour>
      <point x="45" y="911" type="curve" smooth="yes"/>
      <point x="39" y="911"/>
      <point x="34" y="906"/>
      <point x="34" y="900" type="curve" smooth="yes"/>
      <point x="34" y="893"/>
      <point x="39" y="888"/>
      <point x="45" y="888" type="curve" smooth="yes"/>
      <point x="52" y="888"/>
      <point x="57" y="893"/>
      <point x="57" y="900" type="curve" smooth="yes"/>
      <point x="57" y="906"/>
      <point x="52" y="911"/>
    </contour>
    <contour>
      <point x="45" y="882" type="curve" smooth="yes"/>
      <point x="36" y="882"/>
      <point x="28" y="890"/>
      <point x="28" y="900" type="curve" smooth="yes"/>
      <point x="28" y="909"/>
      <point x="36" y="917"/>
      <point x="45" y="917" type="curve" smooth="yes"/>
      <point x="55" y="917"/>
      <point x="63" y="909"/>
      <point x="63" y="900" type="curve" smooth="yes"/>
      <point x="63" y="890"/>
      <point x="55" y="882"/>
    </contour>
    <contour>
      <point x="87" y="172" type="curve" smooth="yes"/>
      <point x="70" y="172"/>
      <point x="57" y="159"/>
      <point x="57" y="143" type="curve" smooth="yes"/>
      <point x="57" y="127"/>
      <point x="70" y="113"/>
      <point x="87" y="113" type="curve" smooth="yes"/>
      <point x="103" y="113"/>
      <point x="116" y="127"/>
      <point x="116" y="143" type="curve" smooth="yes"/>
      <point x="116" y="159"/>
      <point x="103" y="172"/>
    </contour>
    <contour>
      <point x="87" y="107" type="curve" smooth="yes"/>
      <point x="67" y="107"/>
      <point x="51" y="123"/>
      <point x="51" y="143" type="curve" smooth="yes"/>
      <point x="51" y="162"/>
      <point x="67" y="178"/>
      <point x="87" y="178" type="curve" smooth="yes"/>
      <point x="106" y="178"/>
      <point x="122" y="162"/>
      <point x="122" y="143" type="curve" smooth="yes"/>
      <point x="122" y="123"/>
      <point x="106" y="107"/>
    </contour>
    <contour>
      <point x="87" y="276" type="curve" smooth="yes"/>
      <point x="70" y="276"/>
      <point x="57" y="263"/>
      <point x="57" y="247" type="curve" smooth="yes"/>
      <point x="57" y="231"/>
      <point x="70" y="217"/>
      <point x="87" y="217" type="curve" smooth="yes"/>
      <point x="103" y="217"/>
      <point x="116" y="231"/>
      <point x="116" y="247" type="curve" smooth="yes"/>
      <point x="116" y="263"/>
      <point x="103" y="276"/>
    </contour>
    <contour>
      <point x="87" y="211" type="curve" smooth="yes"/>
      <point x="67" y="211"/>
      <point x="51" y="227"/>
      <point x="51" y="247" type="curve" smooth="yes"/>
      <point x="51" y="266"/>
      <point x="67" y="282"/>
      <point x="87" y="282" type="curve" smooth="yes"/>
      <point x="106" y="282"/>
      <point x="122" y="266"/>
      <point x="122" y="247" type="curve" smooth="yes"/>
      <point x="122" y="227"/>
      <point x="106" y="211"/>
    </contour>
    <contour>
      <point x="87" y="363" type="curve" smooth="yes"/>
      <point x="70" y="363"/>
      <point x="57" y="350"/>
      <point x="57" y="333" type="curve" smooth="yes"/>
      <point x="57" y="317"/>
      <point x="70" y="304"/>
      <point x="87" y="304" type="curve" smooth="yes"/>
      <point x="103" y="304"/>
      <point x="116" y="317"/>
      <point x="116" y="333" type="curve" smooth="yes"/>
      <point x="116" y="350"/>
      <point x="103" y="363"/>
    </contour>
    <contour>
      <point x="87" y="298" type="curve" smooth="yes"/>
      <point x="67" y="298"/>
      <point x="51" y="314"/>
      <point x="51" y="333" type="curve" smooth="yes"/>
      <point x="51" y="353"/>
      <point x="67" y="369"/>
      <point x="87" y="369" type="curve" smooth="yes"/>
      <point x="106" y="369"/>
      <point x="122" y="353"/>
      <point x="122" y="333" type="curve" smooth="yes"/>
      <point x="122" y="314"/>
      <point x="106" y="298"/>
    </contour>
    <contour>
      <point x="87" y="619" type="curve" smooth="yes"/>
      <point x="70" y="619"/>
      <point x="57" y="606"/>
      <point x="57" y="589" type="curve" smooth="yes"/>
      <point x="57" y="573"/>
      <point x="70" y="560"/>
      <point x="87" y="560" type="curve" smooth="yes"/>
      <point x="103" y="560"/>
      <point x="116" y="573"/>
      <point x="116" y="589" type="curve" smooth="yes"/>
      <point x="116" y="606"/>
      <point x="103" y="619"/>
    </contour>
    <contour>
      <point x="87" y="554" type="curve" smooth="yes"/>
      <point x="67" y="554"/>
      <point x="51" y="570"/>
      <point x="51" y="589" type="curve" smooth="yes"/>
      <point x="51" y="609"/>
      <point x="67" y="625"/>
      <point x="87" y="625" type="curve" smooth="yes"/>
      <point x="106" y="625"/>
      <point x="122" y="609"/>
      <point x="122" y="589" type="curve" smooth="yes"/>
      <point x="122" y="570"/>
      <point x="106" y="554"/>
    </contour>
    <contour>
      <point x="87" y="722" type="curve" smooth="yes"/>
      <point x="70" y="722"/>
      <point x="57" y="709"/>
      <point x="57" y="693" type="curve" smooth="yes"/>
      <point x="57" y="677"/>
      <point x="70" y="663"/>
      <point x="87" y="663" type="curve" smooth="yes"/>
      <point x="103" y="663"/>
      <point x="116" y="677"/>
      <point x="116" y="693" type="curve" smooth="yes"/>
      <point x="116" y="709"/>
      <point x="103" y="722"/>
    </contour>
    <contour>
      <point x="87" y="657" type="curve" smooth="yes"/>
      <point x="67" y="657"/>
      <point x="51" y="673"/>
      <point x="51" y="693" type="curve" smooth="yes"/>
      <point x="51" y="712"/>
      <point x="67" y="728"/>
      <point x="87" y="728" type="curve" smooth="yes"/>
      <point x="106" y="728"/>
      <point x="122" y="712"/>
      <point x="122" y="693" type="curve" smooth="yes"/>
      <point x="122" y="673"/>
      <point x="106" y="657"/>
    </contour>
    <contour>
      <point x="87" y="809" type="curve" smooth="yes"/>
      <point x="70" y="809"/>
      <point x="57" y="796"/>
      <point x="57" y="779" type="curve" smooth="yes"/>
      <point x="57" y="763"/>
      <point x="70" y="750"/>
      <point x="87" y="750" type="curve" smooth="yes"/>
      <point x="103" y="750"/>
      <point x="116" y="763"/>
      <point x="116" y="779" type="curve" smooth="yes"/>
      <point x="116" y="796"/>
      <point x="103" y="809"/>
    </contour>
    <contour>
      <point x="87" y="744" type="curve" smooth="yes"/>
      <point x="67" y="744"/>
      <point x="51" y="760"/>
      <point x="51" y="779" type="curve" smooth="yes"/>
      <point x="51" y="799"/>
      <point x="67" y="815"/>
      <point x="87" y="815" type="curve" smooth="yes"/>
      <point x="106" y="815"/>
      <point x="122" y="799"/>
      <point x="122" y="779" type="curve" smooth="yes"/>
      <point x="122" y="760"/>
      <point x="106" y="744"/>
    </contour>
    <contour>
      <point x="86" y="900" type="curve"/>
      <point x="85" y="897"/>
      <point x="82" y="890"/>
      <point x="77" y="874" type="curve" smooth="yes"/>
      <point x="77" y="862"/>
      <point x="74" y="855"/>
      <point x="74" y="849" type="curve" smooth="yes"/>
      <point x="74" y="846"/>
      <point x="75" y="844"/>
      <point x="77" y="841" type="curve" smooth="yes"/>
      <point x="79" y="838"/>
      <point x="82" y="837"/>
      <point x="87" y="837" type="curve" smooth="yes"/>
      <point x="91" y="837"/>
      <point x="94" y="838"/>
      <point x="96" y="841" type="curve" smooth="yes"/>
      <point x="98" y="843"/>
      <point x="99" y="847"/>
      <point x="99" y="851" type="curve" smooth="yes"/>
      <point x="99" y="859"/>
      <point x="96" y="868"/>
      <point x="95" y="873" type="curve" smooth="yes"/>
      <point x="95" y="874"/>
      <point x="95" y="875"/>
      <point x="94" y="876" type="curve" smooth="yes"/>
      <point x="92" y="888"/>
      <point x="88" y="897"/>
    </contour>
    <contour>
      <point x="87" y="831" type="curve" smooth="yes"/>
      <point x="80" y="831"/>
      <point x="75" y="833"/>
      <point x="72" y="837" type="curve" smooth="yes"/>
      <point x="69" y="841"/>
      <point x="68" y="847"/>
      <point x="68" y="853" type="curve" smooth="yes"/>
      <point x="68" y="862"/>
      <point x="70" y="870"/>
      <point x="71" y="874" type="curve" smooth="yes"/>
      <point x="71" y="879"/>
      <point x="78" y="906"/>
      <point x="86" y="906" type="curve" smooth="yes"/>
      <point x="88" y="906"/>
      <point x="94" y="906"/>
      <point x="100" y="877" type="curve" smooth="yes"/>
      <point x="100" y="876"/>
      <point x="101" y="876"/>
      <point x="101" y="874" type="curve" smooth="yes"/>
      <point x="101" y="868"/>
      <point x="104" y="860"/>
      <point x="104" y="853" type="curve" smooth="yes"/>
      <point x="104" y="847"/>
      <point x="103" y="841"/>
      <point x="100" y="837" type="curve" smooth="yes"/>
      <point x="97" y="833"/>
      <point x="93" y="831"/>
    </contour>
    <contour>
      <point x="46" y="992" type="curve"/>
      <point x="44" y="990"/>
      <point x="41" y="983"/>
      <point x="37" y="967" type="curve" smooth="yes"/>
      <point x="37" y="959"/>
      <point x="33" y="951"/>
      <point x="33" y="943" type="curve" smooth="yes"/>
      <point x="33" y="940"/>
      <point x="34" y="936"/>
      <point x="36" y="933" type="curve" smooth="yes"/>
      <point x="38" y="931"/>
      <point x="41" y="930"/>
      <point x="46" y="930" type="curve" smooth="yes"/>
      <point x="50" y="930"/>
      <point x="53" y="931"/>
      <point x="55" y="933" type="curve" smooth="yes"/>
      <point x="57" y="936"/>
      <point x="58" y="940"/>
      <point x="58" y="944" type="curve" smooth="yes"/>
      <point x="58" y="952"/>
      <point x="55" y="961"/>
      <point x="54" y="966" type="curve" smooth="yes"/>
      <point x="54" y="975"/>
      <point x="49" y="985"/>
    </contour>
    <contour>
      <point x="46" y="924" type="curve" smooth="yes"/>
      <point x="39" y="924"/>
      <point x="35" y="926"/>
      <point x="31" y="930" type="curve" smooth="yes"/>
      <point x="28" y="934"/>
      <point x="27" y="939"/>
      <point x="27" y="944" type="curve" smooth="yes"/>
      <point x="27" y="953"/>
      <point x="30" y="963"/>
      <point x="31" y="967" type="curve" smooth="yes"/>
      <point x="31" y="968"/>
      <point x="34" y="999"/>
      <point x="45" y="999" type="curve" smooth="yes"/>
      <point x="47" y="999"/>
      <point x="53" y="999"/>
      <point x="59" y="970" type="curve" smooth="yes"/>
      <point x="60" y="969"/>
      <point x="60" y="968"/>
      <point x="60" y="967" type="curve" smooth="yes"/>
      <point x="60" y="960"/>
      <point x="64" y="952"/>
      <point x="64" y="945" type="curve" smooth="yes"/>
      <point x="64" y="939"/>
      <point x="63" y="934"/>
      <point x="60" y="930" type="curve" smooth="yes"/>
      <point x="57" y="926"/>
      <point x="52" y="924"/>
    </contour>
  </outline>
</glyph>
<glyph name="uniE0A1" format="2">
  <unicode hex="E0A1"/>
  <outline>
    <contour>
      <point x="22" y="9" type="line" smooth="yes"/>
      <point x="23" y="8"/>
      <point x="27" y="6"/>
      <point x="31" y="6" type="curve" smooth="yes"/>
      <point x="36" y="6"/>
      <point x="40" y="8"/>
      <point x="41" y="9" type="curve" smooth="yes"/>
      <point x="41" y="23" type="line" smooth="yes"/>
      <point x="40" y="24"/>
      <point x="35" y="25"/>
      <point x="32" y="25" type="curve" smooth="yes"/>
      <point x="27" y="25"/>
      <point x="23" y="24"/>
      <point x="22" y="23" type="curve" smooth="yes"/>
    </contour>
    <contour>
      <point x="32" y="0" type="curve" smooth="yes"/>
      <point x="26" y="0"/>
      <point x="16" y="2"/>
      <point x="16" y="9" type="curve" smooth="yes"/>
      <point x="16" y="23" type="line" smooth="yes"/>
      <point x="16" y="29"/>
      <point x="26" y="31"/>
      <point x="31" y="31" type="curve" smooth="yes"/>
      <point x="37" y="31"/>
      <point x="47" y="29"/>
      <point x="47" y="23" type="curve" smooth="yes"/>
      <point x="47" y="9" type="line" smooth="yes"/>
      <point x="47" y="2"/>
      <point x="37" y="0"/>
    </contour>
  </outline>
</glyph>
<glyph name="uniE0A2" format="2">
  <unicode hex="E0A2"/>
  <outline>
    <contour>
      <point x="46" y="924" type="line"/>
      <point x="39" y="924"/>
      <point x="35" y="926"/>
      <point x="31" y="930" type="curve" smooth="yes"/>
      <point x="28" y="934"/>
      <point x="27" y="939"/>
      <point x="27" y="944" type="curve" smooth="yes"/>
      <point x="27" y="953"/>
      <point x="30" y="963"/>
      <point x="31" y="967" type="curve"/>
      <point x="31" y="968"/>
      <point x="34" y="999"/>
      <point x="45" y="999" type="curve" smooth="yes"/>
      <point x="47" y="999"/>
      <point x="53" y="999"/>
      <point x="59" y="970" type="curve"/>
      <point x="60" y="969"/>
      <point x="60" y="968"/>
      <point x="60" y="967" type="curve" smooth="yes"/>
      <point x="60" y="960"/>
      <point x="64" y="952"/>
      <point x="64" y="945" type="curve" smooth="yes"/>
      <point x="64" y="939"/>
      <point x="63" y="934"/>
      <point x="60" y="930" type="curve" smooth="yes"/>
      <point x="57" y="926"/>
      <point x="52" y="924"/>
      <point x="46" y="924" type="curve"/>
    </contour>
  </outline>
</glyph>
<glyph name="uniE0A4" format="2">
  <unicode hex="E0A4"/>
  <outline>
    <contour>
      <point x="87" y="831" type="curve" smooth="yes"/>
      <point x="80" y="831"/>
      <point x="75" y="833"/>
      <point x="72" y="837" type="curve" smooth="yes"/>
      <point x="69" y="841"/>
      <point x="68" y="847"/>
      <point x="68" y="853" type="curve" smooth="yes"/>
      <point x="68" y="862"/>
      <point x="70" y="870"/>
      <point x="71" y="874" type="curve" smooth="yes"/>
      <point x="71" y="879"/>
      <point x="78" y="906"/>
      <point x="86" y="906" type="curve" smooth="yes"/>
      <point x="88" y="906"/>
      <point x="94" y="906"/>
      <point x="100" y="877" type="curve" smooth="yes"/>
      <point x="100" y="876"/>
      <point x="101" y="876"/>
      <point x="101" y="874" type="curve" smooth="yes"/>
      <point x="101" y="868"/>
      <point x="104" y="860"/>
      <point x="104" y="853" type="curve" smooth="yes"/>
      <point x="104" y="847"/>
      <point x="103" y="841"/>
      <point x="100" y="837" type="curve" smooth="yes"/>
      <point x="97" y="833"/>
      <point x="93" y="831"/>
    </contour>
  </outline>
</glyph>
<glyph name="uniE0A5" format="2">
  <unicode hex="E0A5"/>
  <outline>
    <contour>
      <point x="147" y="794" type="line"/>
      <point x="125" y="794"/>
      <point x="116" y="817"/>
      <point x="116" y="826" type="curve" smooth="yes"/>
      <point x="116" y="871" type="line" smooth="yes"/>
      <point x="116" y="873"/>
      <point x="118" y="873"/>
      <point x="119" y="874" type="curve"/>
      <point x="129" y="873" type="line"/>
      <point x="130" y="873"/>
      <point x="132" y="872"/>
      <point x="132" y="870" type="curve" smooth="yes"/>
      <point x="132" y="848"/>
      <point x="136" y="843"/>
      <point x="142" y="836" type="curve"/>
      <point x="142" y="836"/>
      <point x="149" y="831"/>
      <point x="153" y="829" type="curve" smooth="yes"/>
      <point x="154" y="828"/>
      <point x="168" y="819"/>
      <point x="168" y="812" type="curve" smooth="yes"/>
      <point x="168" y="807"/>
      <point x="168" y="803"/>
      <point x="165" y="800" type="curve" smooth="yes"/>
      <point x="161" y="796"/>
      <point x="155" y="794"/>
      <point x="147" y="794" type="curve"/>
    </contour>
  </outline>
</glyph>
<glyph name="uniE0A7" format="2">
  <unicode hex="E0A7"/>
  <outline>
    <contour>
      <point x="87" y="657" type="line"/>
      <point x="67" y="657"/>
      <point x="51" y="673"/>
      <point x="51" y="693" type="curve" smooth="yes"/>
      <point x="51" y="712"/>
      <point x="67" y="728"/>
      <point x="87" y="728" type="curve" smooth="yes"/>
      <point x="106" y="728"/>
      <point x="122" y="712"/>
      <point x="122" y="693" type="curve" smooth="yes"/>
      <point x="122" y="673"/>
      <point x="106" y="657"/>
      <point x="87" y="657" type="curve"/>
    </contour>
  </outline>
</glyph>
<glyph name="uniE0A8" format="2">
  <unicode hex="E0A8"/>
  <outline>
    <contour>
      <point x="92" y="634" type="curve" smooth="yes"/>
      <point x="86" y="634"/>
      <point x="83" y="638"/>
      <point x="82" y="643" type="curve" smooth="yes"/>
      <point x="82" y="648"/>
      <point x="85" y="653"/>
      <point x="93" y="653" type="curve" smooth="yes"/>
      <point x="103" y="654"/>
      <point x="117" y="657"/>
      <point x="123" y="659" type="curve" smooth="yes"/>
      <point x="124" y="659"/>
      <point x="125" y="659"/>
      <point x="126" y="660" type="curve" smooth="yes"/>
      <point x="130" y="660"/>
      <point x="132" y="661"/>
      <point x="134" y="661" type="curve" smooth="yes"/>
      <point x="137" y="661"/>
      <point x="142" y="660"/>
      <point x="142" y="651" type="curve" smooth="yes"/>
      <point x="142" y="644"/>
      <point x="134" y="639"/>
      <point x="119" y="637" type="curve" smooth="yes"/>
      <point x="109" y="634"/>
      <point x="97" y="634"/>
    </contour>
  </outline>
</glyph>
<glyph name="uniE0A9" format="2">
  <unicode hex="E0A9"/>
  <outline>
    <contour>
      <point x="87" y="554" type="curve" smooth="yes"/>
      <point x="67" y="554"/>
      <point x="51" y="570"/>
      <point x="51" y="589" type="curve" smooth="yes"/>
      <point x="51" y="609"/>
      <point x="67" y="625"/>
      <point x="87" y="625" type="curve" smooth="yes"/>
      <point x="106" y="625"/>
      <point x="122" y="609"/>
      <point x="122" y="589" type="curve" smooth="yes"/>
      <point x="122" y="570"/>
      <point x="106" y="554"/>
    </contour>
  </outline>
</glyph>
<glyph name="uniE0AA" format="2">
  <unicode hex="E0AA"/>
  <outline>
    <contour>
      <point x="106" y="522" type="curve" smooth="yes"/>
      <point x="63" y="522" type="line" smooth="yes"/>
      <point x="58" y="522"/>
      <point x="54" y="525"/>
      <point x="54" y="530" type="curve" smooth="yes"/>
      <point x="54" y="534"/>
      <point x="57" y="538"/>
      <point x="63" y="538" type="curve" smooth="yes"/>
      <point x="90" y="538" type="line"/>
      <point x="92" y="542"/>
      <point x="96" y="547"/>
      <point x="105" y="547" type="curve" smooth="yes"/>
      <point x="111" y="547"/>
      <point x="118" y="543"/>
      <point x="118" y="535" type="curve" smooth="yes"/>
      <point x="118" y="532"/>
      <point x="117" y="529"/>
      <point x="115" y="526" type="curve" smooth="yes"/>
      <point x="113" y="523"/>
      <point x="109" y="522"/>
    </contour>
  </outline>
</glyph>
<glyph name="uniE0AB" format="2">
  <unicode hex="E0AB"/>
  <outline>
    <contour>
      <point x="141" y="501" type="line"/>
      <point x="127" y="501" type="line" smooth="yes"/>
      <point x="125" y="501"/>
      <point x="124" y="502"/>
      <point x="124" y="504" type="curve" smooth="yes"/>
      <point x="124" y="525"/>
      <point x="136" y="527"/>
      <point x="141" y="527" type="curve" smooth="yes"/>
      <point x="143" y="527"/>
      <point x="144" y="527"/>
      <point x="145" y="526" type="curve"/>
      <point x="152" y="526"/>
      <point x="156" y="520"/>
      <point x="156" y="514" type="curve" smooth="yes"/>
      <point x="156" y="510"/>
      <point x="154" y="507"/>
      <point x="152" y="505" type="curve" smooth="yes"/>
      <point x="150" y="503"/>
      <point x="147" y="501"/>
      <point x="141" y="501" type="curve"/>
    </contour>
  </outline>
</glyph>
<glyph name="uniE0AD" format="2">
  <unicode hex="E0AD"/>
  <outline>
    <contour>
      <point x="117" y="475" type="line"/>
      <point x="117" y="475"/>
      <point x="99" y="483"/>
      <point x="87" y="489" type="curve" smooth="yes"/>
      <point x="83" y="491"/>
      <point x="82" y="494"/>
      <point x="82" y="498" type="curve" smooth="yes"/>
      <point x="82" y="505"/>
      <point x="88" y="513"/>
      <point x="94" y="513" type="curve" smooth="yes"/>
      <point x="95" y="513"/>
      <point x="96" y="513"/>
      <point x="97" y="512" type="curve" smooth="yes"/>
      <point x="107" y="506"/>
      <point x="107" y="506"/>
      <point x="107" y="506" type="curve"/>
      <point x="107" y="506"/>
      <point x="117" y="503"/>
      <point x="117" y="475" type="curve"/>
    </contour>
  </outline>
</glyph>
<glyph name="uniE0AE" format="2">
  <unicode hex="E0AE"/>
  <outline>
    <contour>
      <point x="41" y="427" type="curve" smooth="yes"/>
      <point x="41" y="423"/>
      <point x="38" y="419"/>
      <point x="34" y="419" type="curve" smooth="yes"/>
      <point x="26" y="419" type="line" smooth="yes"/>
      <point x="22" y="419"/>
      <point x="19" y="423"/>
      <point x="19" y="427" type="curve" smooth="yes"/>
      <point x="19" y="431"/>
      <point x="22" y="434"/>
      <point x="26" y="434" type="curve" smooth="yes"/>
      <point x="34" y="434" type="line" smooth="yes"/>
      <point x="38" y="434"/>
      <point x="41" y="431"/>
    </contour>
  </outline>
</glyph>
<glyph name="uniE0AF" format="2">
  <unicode hex="E0AF"/>
  <outline>
    <contour>
      <point x="41" y="404" type="curve" smooth="yes"/>
      <point x="41" y="400"/>
      <point x="38" y="396"/>
      <point x="34" y="396" type="curve" smooth="yes"/>
      <point x="26" y="396" type="line" smooth="yes"/>
      <point x="22" y="396"/>
      <point x="19" y="400"/>
      <point x="19" y="404" type="curve" smooth="yes"/>
      <point x="19" y="408"/>
      <point x="22" y="411"/>
      <point x="26" y="411" type="curve" smooth="yes"/>
      <point x="34" y="411" type="line" smooth="yes"/>
      <point x="38" y="411"/>
      <point x="41" y="408"/>
    </contour>
  </outline>
</glyph>
<glyph name="uniE0B0" format="2">
  <unicode hex="E0B0"/>
  <outline>
    <contour>
      <point x="41" y="381" type="line"/>
      <point x="41" y="376"/>
      <point x="38" y="373"/>
      <point x="34" y="373" type="curve"/>
      <point x="18" y="373" type="line"/>
      <point x="14" y="373"/>
      <point x="10" y="376"/>
      <point x="10" y="381" type="curve"/>
      <point x="10" y="385"/>
      <point x="14" y="388"/>
      <point x="18" y="388" type="curve"/>
      <point x="34" y="388" type="line"/>
      <point x="38" y="388"/>
      <point x="41" y="385"/>
      <point x="41" y="381" type="curve"/>
    </contour>
  </outline>
</glyph>
<glyph name="uniE0B2" format="2">
  <unicode hex="E0B2"/>
  <outline>
    <contour>
      <point x="87" y="298" type="curve" smooth="yes"/>
      <point x="67" y="298"/>
      <point x="51" y="314"/>
      <point x="51" y="333" type="curve" smooth="yes"/>
      <point x="51" y="353"/>
      <point x="67" y="369"/>
      <point x="87" y="369" type="curve" smooth="yes"/>
      <point x="106" y="369"/>
      <point x="122" y="353"/>
      <point x="122" y="333" type="curve" smooth="yes"/>
      <point x="122" y="314"/>
      <point x="106" y="298"/>
    </contour>
  </outline>
</glyph>
<glyph name="uniE0B3" format="2">
  <unicode hex="E0B3"/>
  <outline>
    <contour>
      <point x="87" y="211" type="curve" smooth="yes"/>
      <point x="67" y="211"/>
      <point x="51" y="227"/>
      <point x="51" y="247" type="curve" smooth="yes"/>
      <point x="51" y="266"/>
      <point x="67" y="282"/>
      <point x="87" y="282" type="curve" smooth="yes"/>
      <point x="106" y="282"/>
      <point x="122" y="266"/>
      <point x="122" y="247" type="curve" smooth="yes"/>
      <point x="122" y="227"/>
      <point x="106" y="211"/>
    </contour>
  </outline>
</glyph>
<glyph name="uniE0B4" format="2">
  <unicode hex="E0B4"/>
  <outline>
    <contour>
      <point x="65" y="196" type="curve" smooth="yes"/>
      <point x="65" y="193"/>
      <point x="63" y="191"/>
      <point x="60" y="191" type="curve" smooth="yes"/>
      <point x="28" y="191" type="line" smooth="yes"/>
      <point x="25" y="191"/>
      <point x="23" y="193"/>
      <point x="23" y="196" type="curve" smooth="yes"/>
      <point x="23" y="200"/>
      <point x="25" y="202"/>
      <point x="28" y="202" type="curve" smooth="yes"/>
      <point x="60" y="202" type="line" smooth="yes"/>
      <point x="63" y="202"/>
      <point x="65" y="200"/>
    </contour>
  </outline>
</glyph>
<glyph name="uniE0B5" format="2">
  <unicode hex="E0B5"/>
  <outline>
    <contour>
      <point x="87" y="107" type="line"/>
      <point x="67" y="107"/>
      <point x="51" y="123"/>
      <point x="51" y="143" type="curve" smooth="yes"/>
      <point x="51" y="162"/>
      <point x="67" y="178"/>
      <point x="87" y="178" type="curve" smooth="yes"/>
      <point x="106" y="178"/>
      <point x="122" y="162"/>
      <point x="122" y="143" type="curve" smooth="yes"/>
      <point x="122" y="123"/>
      <point x="106" y="107"/>
      <point x="87" y="107" type="curve"/>
    </contour>
  </outline>
</glyph>
<glyph name="uniE0B6" format="2">
  <unicode hex="E0B6"/>
  <outline>
    <contour>
      <point x="32" y="69" type="curve" smooth="yes"/>
      <point x="26" y="69"/>
      <point x="16" y="71"/>
      <point x="16" y="78" type="curve" smooth="yes"/>
      <point x="16" y="92" type="line" smooth="yes"/>
      <point x="16" y="98"/>
      <point x="26" y="100"/>
      <point x="31" y="100" type="curve" smooth="yes"/>
      <point x="37" y="100"/>
      <point x="47" y="98"/>
      <point x="47" y="92" type="curve" smooth="yes"/>
      <point x="47" y="78" type="line" smooth="yes"/>
      <point x="47" y="71"/>
      <point x="37" y="69"/>
    </contour>
  </outline>
</glyph>
<glyph name="uniE0B7" format="2">
  <unicode hex="E0B7"/>
  <outline>
    <contour>
      <point x="66" y="53" type="line"/>
      <point x="60" y="53"/>
      <point x="50" y="55"/>
      <point x="50" y="62" type="curve" smooth="yes"/>
      <point x="50" y="76" type="line" smooth="yes"/>
      <point x="50" y="82"/>
      <point x="60" y="84"/>
      <point x="64" y="84" type="curve" smooth="yes"/>
      <point x="70" y="84"/>
      <point x="80" y="82"/>
      <point x="80" y="76" type="curve" smooth="yes"/>
      <point x="80" y="62" type="line" smooth="yes"/>
      <point x="80" y="55"/>
      <point x="70" y="53"/>
      <point x="66" y="53" type="curve"/>
    </contour>
  </outline>
</glyph>
<glyph name="uniE0B8" format="2">
  <unicode hex="E0B8"/>
  <outline>
    <contour>
      <point x="32" y="34" type="line"/>
      <point x="26" y="34"/>
      <point x="16" y="36"/>
      <point x="16" y="43" type="curve" smooth="yes"/>
      <point x="16" y="57" type="line" smooth="yes"/>
      <point x="16" y="63"/>
      <point x="26" y="65"/>
      <point x="31" y="65" type="curve" smooth="yes"/>
      <point x="37" y="65"/>
      <point x="47" y="63"/>
      <point x="47" y="57" type="curve" smooth="yes"/>
      <point x="47" y="43" type="line" smooth="yes"/>
      <point x="47" y="36"/>
      <point x="37" y="34"/>
      <point x="32" y="34" type="curve"/>
    </contour>
  </outline>
</glyph>
<glyph name="uniE0B9" format="2">
  <unicode hex="E0B9"/>
  <outline>
    <contour>
      <point x="66" y="19" type="line"/>
      <point x="60" y="19"/>
      <point x="50" y="21"/>
      <point x="50" y="27" type="curve" smooth="yes"/>
      <point x="50" y="42" type="line" smooth="yes"/>
      <point x="50" y="48"/>
      <point x="60" y="50"/>
      <point x="64" y="50" type="curve" smooth="yes"/>
      <point x="70" y="50"/>
      <point x="80" y="48"/>
      <point x="80" y="42" type="curve" smooth="yes"/>
      <point x="80" y="27" type="line" smooth="yes"/>
      <point x="80" y="21"/>
      <point x="70" y="19"/>
      <point x="66" y="19" type="curve"/>
    </contour>
  </outline>
</glyph>
<glyph name="uniE0BA" format="2">
  <unicode hex="E0BA"/>
  <outline>
    <contour>
      <point x="32" y="0" type="line"/>
      <point x="26" y="0"/>
      <point x="16" y="2"/>
      <point x="16" y="9" type="curve" smooth="yes"/>
      <point x="16" y="23" type="line" smooth="yes"/>
      <point x="16" y="29"/>
      <point x="26" y="31"/>
      <point x="31" y="31" type="curve" smooth="yes"/>
      <point x="37" y="31"/>
      <point x="47" y="29"/>
      <point x="47" y="23" type="curve" smooth="yes"/>
      <point x="47" y="9" type="line" smooth="yes"/>
      <point x="47" y="2"/>
      <point x="37" y="0"/>
      <point x="32" y="0" type="curve"/>
    </contour>
  </outline>
</glyph>
<glyph name="uniE0BB" format="2">
  <unicode hex="E0BB"/>
  <outline>
    <contour>
      <point x="87" y="815" type="line"/>
      <point x="67" y="815"/>
      <point x="51" y="799"/>
      <point x="51" y="779" type="curve"/>
      <point x="51" y="760"/>
      <point x="67" y="744"/>
      <point x="87" y="744" type="curve"/>
      <point x="106" y="744"/>
      <point x="122" y="760"/>
      <point x="122" y="779" type="curve"/>
      <point x="122" y="799"/>
      <point x="106" y="815"/>
      <point x="87" y="815" type="curve"/>
    </contour>
    <contour>
      <point x="87" y="802" type="line"/>
      <point x="99" y="802"/>
      <point x="109" y="792"/>
      <point x="109" y="779" type="curve"/>
      <point x="109" y="767"/>
      <point x="99" y="757"/>
      <point x="87" y="757" type="curve"/>
      <point x="74" y="757"/>
      <point x="64" y="767"/>
      <point x="64" y="779" type="curve"/>
      <point x="64" y="792"/>
      <point x="74" y="802"/>
      <point x="87" y="802" type="curve"/>
    </contour>
  </outline>
</glyph>
<glyph name="uniE0BC" format="2">
  <unicode hex="E0BC"/>
  <outline>
    <contour>
      <point x="87" y="728" type="line"/>
      <point x="67" y="728"/>
      <point x="51" y="712"/>
      <point x="51" y="692" type="curve"/>
      <point x="51" y="673"/>
      <point x="67" y="657"/>
      <point x="87" y="657" type="curve"/>
      <point x="106" y="657"/>
      <point x="122" y="673"/>
      <point x="122" y="692" type="curve"/>
      <point x="122" y="712"/>
      <point x="106" y="728"/>
      <point x="87" y="728" type="curve"/>
    </contour>
    <contour>
      <point x="87" y="715" type="line"/>
      <point x="99" y="715"/>
      <point x="109" y="705"/>
      <point x="109" y="693" type="curve"/>
      <point x="109" y="680"/>
      <point x="99" y="670"/>
      <point x="87" y="670" type="curve"/>
      <point x="74" y="670"/>
      <point x="64" y="680"/>
      <point x="64" y="693" type="curve"/>
      <point x="64" y="705"/>
      <point x="74" y="715"/>
      <point x="87" y="715" type="curve"/>
    </contour>
  </outline>
</glyph>
<glyph name="uniE0BD" format="2">
  <unicode hex="E0BD"/>
  <outline>
    <contour>
      <point x="87" y="625" type="curve" smooth="yes"/>
      <point x="106" y="625"/>
      <point x="122" y="609"/>
      <point x="122" y="589" type="curve" smooth="yes"/>
      <point x="122" y="570"/>
      <point x="106" y="554"/>
      <point x="87" y="554" type="curve" smooth="yes"/>
      <point x="67" y="554"/>
      <point x="51" y="570"/>
      <point x="51" y="589" type="curve" smooth="yes"/>
      <point x="51" y="609"/>
      <point x="67" y="625"/>
    </contour>
    <contour>
      <point x="87" y="612" type="curve" smooth="yes"/>
      <point x="74" y="612"/>
      <point x="64" y="602"/>
      <point x="64" y="589" type="curve" smooth="yes"/>
      <point x="64" y="577"/>
      <point x="74" y="567"/>
      <point x="87" y="567" type="curve" smooth="yes"/>
      <point x="99" y="567"/>
      <point x="109" y="577"/>
      <point x="109" y="589" type="curve" smooth="yes"/>
      <point x="109" y="602"/>
      <point x="99" y="612"/>
    </contour>
  </outline>
</glyph>
<glyph name="uniE0BE" format="2">
  <unicode hex="E0BE"/>
  <outline>
    <contour>
      <point x="87" y="369" type="line"/>
      <point x="67" y="369"/>
      <point x="51" y="353"/>
      <point x="51" y="333" type="curve"/>
      <point x="51" y="314"/>
      <point x="67" y="298"/>
      <point x="87" y="298" type="curve"/>
      <point x="106" y="298"/>
      <point x="122" y="314"/>
      <point x="122" y="333" type="curve"/>
      <point x="122" y="353"/>
      <point x="106" y="369"/>
      <point x="87" y="369" type="curve"/>
    </contour>
    <contour>
      <point x="87" y="356" type="line"/>
      <point x="99" y="356"/>
      <point x="109" y="346"/>
      <point x="109" y="333" type="curve"/>
      <point x="109" y="321"/>
      <point x="99" y="311"/>
      <point x="87" y="311" type="curve"/>
      <point x="74" y="311"/>
      <point x="64" y="321"/>
      <point x="64" y="333" type="curve"/>
      <point x="64" y="346"/>
      <point x="74" y="356"/>
      <point x="87" y="356" type="curve"/>
    </contour>
  </outline>
</glyph>
<glyph name="uniE0BF" format="2">
  <unicode hex="E0BF"/>
  <outline>
    <contour>
      <point x="87" y="269" type="curve" smooth="yes"/>
      <point x="74" y="269"/>
      <point x="64" y="259"/>
      <point x="64" y="247" type="curve" smooth="yes"/>
      <point x="64" y="234"/>
      <point x="74" y="224"/>
      <point x="87" y="224" type="curve" smooth="yes"/>
      <point x="99" y="224"/>
      <point x="109" y="234"/>
      <point x="109" y="247" type="curve" smooth="yes"/>
      <point x="109" y="259"/>
      <point x="99" y="269"/>
    </contour>
    <contour>
      <point x="87" y="282" type="curve" smooth="yes"/>
      <point x="106" y="282"/>
      <point x="122" y="266"/>
      <point x="122" y="246" type="curve" smooth="yes"/>
      <point x="122" y="227"/>
      <point x="106" y="211"/>
      <point x="87" y="211" type="curve" smooth="yes"/>
      <point x="67" y="211"/>
      <point x="51" y="227"/>
      <point x="51" y="246" type="curve" smooth="yes"/>
      <point x="51" y="266"/>
      <point x="67" y="282"/>
    </contour>
  </outline>
</glyph>
<glyph name="uniE0C0" format="2">
  <unicode hex="E0C0"/>
  <outline>
    <contour>
      <point x="87" y="165" type="curve" smooth="yes"/>
      <point x="74" y="165"/>
      <point x="64" y="155"/>
      <point x="64" y="143" type="curve" smooth="yes"/>
      <point x="64" y="130"/>
      <point x="74" y="120"/>
      <point x="87" y="120" type="curve" smooth="yes"/>
      <point x="99" y="120"/>
      <point x="109" y="130"/>
      <point x="109" y="143" type="curve" smooth="yes"/>
      <point x="109" y="155"/>
      <point x="99" y="165"/>
    </contour>
    <contour>
      <point x="87" y="178" type="curve" smooth="yes"/>
      <point x="106" y="178"/>
      <point x="122" y="162"/>
      <point x="122" y="142" type="curve" smooth="yes"/>
      <point x="122" y="123"/>
      <point x="106" y="107"/>
      <point x="87" y="107" type="curve" smooth="yes"/>
      <point x="67" y="107"/>
      <point x="51" y="123"/>
      <point x="51" y="142" type="curve" smooth="yes"/>
      <point x="51" y="162"/>
      <point x="67" y="178"/>
    </contour>
  </outline>
</glyph>
<glyph name="uniE0C1" format="2">
  <unicode hex="E0C1"/>
  <outline>
    <contour>
      <point x="87" y="744" type="line"/>
      <point x="67" y="744"/>
      <point x="51" y="760"/>
      <point x="51" y="779" type="curve" smooth="yes"/>
      <point x="51" y="799"/>
      <point x="67" y="815"/>
      <point x="87" y="815" type="curve"/>
    </contour>
  </outline>
</glyph>
<glyph name="uniE0C3" format="2">
  <unicode hex="E0C3"/>
  <outline>
    <contour>
      <point x="87" y="554" type="line"/>
      <point x="67" y="554"/>
      <point x="51" y="570"/>
      <point x="51" y="589" type="curve" smooth="yes"/>
      <point x="51" y="609"/>
      <point x="67" y="625"/>
      <point x="87" y="625" type="curve"/>
    </contour>
  </outline>
</glyph>
<glyph name="uniE0C4" format="2">
  <unicode hex="E0C4"/>
  <outline>
    <contour>
      <point x="87" y="298" type="line"/>
      <point x="67" y="298"/>
      <point x="51" y="314"/>
      <point x="51" y="333" type="curve" smooth="yes"/>
      <point x="51" y="353"/>
      <point x="67" y="369"/>
      <point x="87" y="369" type="curve"/>
    </contour>
  </outline>
</glyph>
<glyph name="uniE0C5" format="2">
  <unicode hex="E0C5"/>
  <outline>
    <contour>
      <point x="87" y="211" type="line"/>
      <point x="87" y="211" type="line"/>
      <point x="67" y="211"/>
      <point x="51" y="227"/>
      <point x="51" y="247" type="curve" smooth="yes"/>
      <point x="51" y="266"/>
      <point x="67" y="282"/>
      <point x="87" y="282" type="curve"/>
    </contour>
  </outline>
</glyph>
<glyph name="uniE0C6" format="2">
  <unicode hex="E0C6"/>
  <outline>
    <contour>
      <point x="87" y="107" type="line"/>
      <point x="87" y="107" type="line"/>
      <point x="67" y="107"/>
      <point x="51" y="123"/>
      <point x="51" y="143" type="curve" smooth="yes"/>
      <point x="51" y="162"/>
      <point x="67" y="178"/>
      <point x="87" y="178" type="curve"/>
    </contour>
  </outline>
</glyph>
<glyph name="uniE0C7" format="2">
  <unicode hex="E0C7"/>
  <outline>
    <contour>
      <point x="87" y="744" type="curve"/>
      <point x="87" y="815" type="line"/>
      <point x="106" y="815"/>
      <point x="122" y="799"/>
      <point x="122" y="779" type="curve" smooth="yes"/>
      <point x="122" y="760"/>
      <point x="106" y="744"/>
    </contour>
  </outline>
</glyph>
<glyph name="uniE0C8" format="2">
  <unicode hex="E0C8"/>
  <outline>
    <contour>
      <point x="87" y="657" type="curve"/>
      <point x="87" y="728" type="line"/>
      <point x="106" y="728"/>
      <point x="122" y="712"/>
      <point x="122" y="693" type="curve" smooth="yes"/>
      <point x="122" y="673"/>
      <point x="106" y="657"/>
    </contour>
  </outline>
</glyph>
<glyph name="uniE0C9" format="2">
  <unicode hex="E0C9"/>
  <outline>
    <contour>
      <point x="87" y="554" type="line"/>
      <point x="87" y="554" type="line"/>
      <point x="106" y="554"/>
      <point x="122" y="570"/>
      <point x="122" y="589" type="curve" smooth="yes"/>
      <point x="122" y="609"/>
      <point x="106" y="625"/>
      <point x="87" y="625" type="curve"/>
    </contour>
  </outline>
</glyph>
<glyph name="uniE0CA" format="2">
  <unicode hex="E0CA"/>
  <outline>
    <contour>
      <point x="87" y="298" type="curve"/>
      <point x="87" y="369" type="line"/>
      <point x="106" y="369"/>
      <point x="122" y="353"/>
      <point x="122" y="333" type="curve" smooth="yes"/>
      <point x="122" y="314"/>
      <point x="106" y="298"/>
    </contour>
  </outline>
</glyph>
<glyph name="uniE0CB" format="2">
  <unicode hex="E0CB"/>
  <outline>
    <contour>
      <point x="87" y="211" type="curve"/>
      <point x="87" y="282" type="line"/>
      <point x="106" y="282"/>
      <point x="122" y="266"/>
      <point x="122" y="247" type="curve" smooth="yes"/>
      <point x="122" y="227"/>
      <point x="106" y="211"/>
    </contour>
  </outline>
</glyph>
<glyph name="uniE0CC" format="2">
  <unicode hex="E0CC"/>
  <outline>
    <contour>
      <point x="87" y="107" type="line"/>
      <point x="87" y="107" type="line"/>
      <point x="106" y="107"/>
      <point x="122" y="123"/>
      <point x="122" y="143" type="curve" smooth="yes"/>
      <point x="122" y="162"/>
      <point x="106" y="178"/>
      <point x="87" y="178" type="curve"/>
    </contour>
  </outline>
</glyph>
<glyph name="uniE0CD" format="2">
  <unicode hex="E0CD"/>
  <outline>
    <contour>
      <point x="70" y="748" type="line"/>
      <point x="59" y="754"/>
      <point x="51" y="766"/>
      <point x="51" y="779" type="curve" smooth="yes"/>
      <point x="51" y="793"/>
      <point x="59" y="805"/>
      <point x="70" y="811" type="curve"/>
    </contour>
  </outline>
</glyph>
<glyph name="uniE0CE" format="2">
  <unicode hex="E0CE"/>
  <outline>
    <contour>
      <point x="70" y="661" type="line"/>
      <point x="59" y="667"/>
      <point x="51" y="679"/>
      <point x="51" y="693" type="curve" smooth="yes"/>
      <point x="51" y="706"/>
      <point x="59" y="718"/>
      <point x="70" y="724" type="curve"/>
    </contour>
  </outline>
</glyph>
<glyph name="uniE0CF" format="2">
  <unicode hex="E0CF"/>
  <outline>
    <contour>
      <point x="70" y="558" type="line"/>
      <point x="59" y="564"/>
      <point x="51" y="576"/>
      <point x="51" y="589" type="curve" smooth="yes"/>
      <point x="51" y="603"/>
      <point x="59" y="615"/>
      <point x="70" y="621" type="curve"/>
    </contour>
  </outline>
</glyph>
<glyph name="uniE0D0" format="2">
  <unicode hex="E0D0"/>
  <outline>
    <contour>
      <point x="70" y="302" type="line"/>
      <point x="59" y="308"/>
      <point x="51" y="320"/>
      <point x="51" y="333" type="curve" smooth="yes"/>
      <point x="51" y="347"/>
      <point x="59" y="359"/>
      <point x="70" y="365" type="curve"/>
    </contour>
  </outline>
</glyph>
<glyph name="uniE0D1" format="2">
  <unicode hex="E0D1"/>
  <outline>
    <contour>
      <point x="70" y="215" type="line"/>
      <point x="59" y="221"/>
      <point x="51" y="233"/>
      <point x="51" y="247" type="curve" smooth="yes"/>
      <point x="51" y="260"/>
      <point x="59" y="272"/>
      <point x="70" y="278" type="curve"/>
    </contour>
  </outline>
</glyph>
<glyph name="uniE0D2" format="2">
  <unicode hex="E0D2"/>
  <outline>
    <contour>
      <point x="70" y="111" type="line"/>
      <point x="59" y="117"/>
      <point x="51" y="129"/>
      <point x="51" y="143" type="curve" smooth="yes"/>
      <point x="51" y="156"/>
      <point x="59" y="168"/>
      <point x="70" y="174" type="curve"/>
    </contour>
  </outline>
</glyph>
<glyph name="uniE0D3" format="2">
  <unicode hex="E0D3"/>
  <outline>
    <contour>
      <point x="103" y="748" type="curve"/>
      <point x="103" y="811" type="line"/>
      <point x="114" y="805"/>
      <point x="122" y="793"/>
      <point x="122" y="779" type="curve" smooth="yes"/>
      <point x="122" y="766"/>
      <point x="114" y="754"/>
    </contour>
  </outline>
</glyph>
<glyph name="uniE0D4" format="2">
  <unicode hex="E0D4"/>
  <outline>
    <contour>
      <point x="103" y="661" type="curve"/>
      <point x="103" y="724" type="line"/>
      <point x="114" y="718"/>
      <point x="122" y="706"/>
      <point x="122" y="693" type="curve" smooth="yes"/>
      <point x="122" y="679"/>
      <point x="114" y="667"/>
    </contour>
  </outline>
</glyph>
<glyph name="uniE0D5" format="2">
  <unicode hex="E0D5"/>
  <outline>
    <contour>
      <point x="103" y="558" type="curve"/>
      <point x="103" y="621" type="line"/>
      <point x="114" y="615"/>
      <point x="122" y="603"/>
      <point x="122" y="589" type="curve" smooth="yes"/>
      <point x="122" y="576"/>
      <point x="114" y="564"/>
    </contour>
  </outline>
</glyph>
<glyph name="uniE0D6" format="2">
  <unicode hex="E0D6"/>
  <outline>
    <contour>
      <point x="103" y="302" type="line"/>
      <point x="114" y="308"/>
      <point x="122" y="320"/>
      <point x="122" y="333" type="curve" smooth="yes"/>
      <point x="122" y="347"/>
      <point x="114" y="359"/>
      <point x="103" y="365" type="curve"/>
    </contour>
  </outline>
</glyph>
<glyph name="uniE0D7" format="2">
  <unicode hex="E0D7"/>
  <outline>
    <contour>
      <point x="103" y="215" type="curve"/>
      <point x="103" y="278" type="line"/>
      <point x="114" y="272"/>
      <point x="122" y="260"/>
      <point x="122" y="247" type="curve" smooth="yes"/>
      <point x="122" y="233"/>
      <point x="114" y="221"/>
    </contour>
  </outline>
</glyph>
<glyph name="uniE0D8" format="2">
  <unicode hex="E0D8"/>
  <outline>
    <contour>
      <point x="103" y="111" type="curve"/>
      <point x="103" y="174" type="line"/>
      <point x="114" y="168"/>
      <point x="122" y="156"/>
      <point x="122" y="143" type="curve" smooth="yes"/>
      <point x="122" y="129"/>
      <point x="114" y="117"/>
    </contour>
  </outline>
</glyph>
<glyph name="uniE0DA" format="2">
  <unicode hex="E0DA"/>
  <outline>
    <contour>
      <point x="26" y="876" type="line"/>
      <point x="68" y="918"/>
      <point x="68" y="919"/>
      <point x="69" y="920" type="curve"/>
      <point x="69" y="920"/>
      <point x="68" y="922"/>
      <point x="67" y="923" type="curve"/>
      <point x="65" y="923"/>
      <point x="64" y="923"/>
      <point x="63" y="922" type="curve" smooth="yes"/>
      <point x="21" y="879"/>
      <point x="21" y="879"/>
      <point x="21" y="878" type="curve" smooth="yes"/>
      <point x="21" y="876"/>
      <point x="23" y="875"/>
      <point x="24" y="875" type="curve"/>
    </contour>
  </outline>
</glyph>
<glyph name="uniE0DB" format="2">
  <unicode hex="E0DB"/>
  <outline>
    <contour>
      <point x="66" y="840" type="curve"/>
      <point x="64" y="839" type="line"/>
      <point x="63" y="839"/>
      <point x="61" y="840"/>
      <point x="61" y="842" type="curve" smooth="yes"/>
      <point x="61" y="843"/>
      <point x="61" y="843"/>
      <point x="103" y="886" type="curve"/>
      <point x="106" y="886" type="line" smooth="yes"/>
      <point x="108" y="886"/>
      <point x="109" y="885"/>
      <point x="109" y="884" type="curve" smooth="yes"/>
      <point x="109" y="883"/>
      <point x="108" y="882"/>
    </contour>
  </outline>
</glyph>
<glyph name="uniE0DC" format="2">
  <unicode hex="E0DC"/>
  <outline>
    <contour>
      <point x="124" y="795" type="curve"/>
      <point x="122" y="794" type="line"/>
      <point x="121" y="794"/>
      <point x="119" y="795"/>
      <point x="119" y="797" type="curve" smooth="yes"/>
      <point x="119" y="798"/>
      <point x="119" y="798"/>
      <point x="158" y="837" type="curve"/>
      <point x="161" y="837" type="line"/>
      <point x="162" y="837"/>
      <point x="163" y="836"/>
      <point x="163" y="835" type="curve" smooth="yes"/>
      <point x="163" y="834"/>
      <point x="162" y="833"/>
    </contour>
  </outline>
</glyph>
<glyph name="uniE0DD" format="2">
  <unicode hex="E0DD"/>
  <outline>
    <contour>
      <point x="51" y="743" type="curve" smooth="yes"/>
      <point x="51" y="743"/>
      <point x="50" y="743"/>
      <point x="49" y="744" type="curve" smooth="yes"/>
      <point x="48" y="745"/>
      <point x="48" y="747"/>
      <point x="49" y="748" type="curve" smooth="yes"/>
      <point x="118" y="817" type="line" smooth="yes"/>
      <point x="119" y="818"/>
      <point x="121" y="818"/>
      <point x="122" y="817" type="curve" smooth="yes"/>
      <point x="124" y="816"/>
      <point x="124" y="814"/>
      <point x="122" y="813" type="curve" smooth="yes"/>
      <point x="53" y="744" type="line" smooth="yes"/>
      <point x="53" y="743"/>
      <point x="52" y="743"/>
    </contour>
  </outline>
</glyph>
<glyph name="uniE0DE" format="2">
  <unicode hex="E0DE"/>
  <outline>
    <contour>
      <point x="51" y="657" type="curve" smooth="yes"/>
      <point x="51" y="657"/>
      <point x="50" y="657"/>
      <point x="49" y="658" type="curve" smooth="yes"/>
      <point x="48" y="659"/>
      <point x="48" y="661"/>
      <point x="49" y="662" type="curve" smooth="yes"/>
      <point x="118" y="731" type="line" smooth="yes"/>
      <point x="119" y="732"/>
      <point x="121" y="732"/>
      <point x="122" y="731" type="curve" smooth="yes"/>
      <point x="124" y="730"/>
      <point x="124" y="728"/>
      <point x="122" y="727" type="curve" smooth="yes"/>
      <point x="53" y="658" type="line" smooth="yes"/>
      <point x="53" y="657"/>
      <point x="52" y="657"/>
    </contour>
  </outline>
</glyph>
<glyph name="uniE0DF" format="2">
  <unicode hex="E0DF"/>
  <outline>
    <contour>
      <point x="92" y="625" type="curve" smooth="yes"/>
      <point x="91" y="625"/>
      <point x="90" y="625"/>
      <point x="90" y="626" type="curve" smooth="yes"/>
      <point x="89" y="627"/>
      <point x="89" y="629"/>
      <point x="90" y="630" type="curve" smooth="yes"/>
      <point x="131" y="672" type="line" smooth="yes"/>
      <point x="133" y="673"/>
      <point x="135" y="673"/>
      <point x="136" y="672" type="curve" smooth="yes"/>
      <point x="137" y="671"/>
      <point x="137" y="669"/>
      <point x="136" y="668" type="curve" smooth="yes"/>
      <point x="94" y="626" type="line" smooth="yes"/>
      <point x="93" y="625"/>
      <point x="93" y="625"/>
    </contour>
  </outline>
</glyph>
<glyph name="uniE0E0" format="2">
  <unicode hex="E0E0"/>
  <outline>
    <contour>
      <point x="51" y="552" type="curve" smooth="yes"/>
      <point x="51" y="552"/>
      <point x="50" y="552"/>
      <point x="49" y="553" type="curve" smooth="yes"/>
      <point x="48" y="554"/>
      <point x="48" y="556"/>
      <point x="49" y="557" type="curve" smooth="yes"/>
      <point x="118" y="626" type="line" smooth="yes"/>
      <point x="119" y="627"/>
      <point x="121" y="627"/>
      <point x="122" y="626" type="curve" smooth="yes"/>
      <point x="124" y="625"/>
      <point x="124" y="623"/>
      <point x="122" y="622" type="curve" smooth="yes"/>
      <point x="53" y="553" type="line" smooth="yes"/>
      <point x="53" y="552"/>
      <point x="52" y="552"/>
    </contour>
  </outline>
</glyph>
<glyph name="uniE0E1" format="2">
  <unicode hex="E0E1"/>
  <outline>
    <contour>
      <point x="53" y="509" type="curve" smooth="yes"/>
      <point x="53" y="509"/>
      <point x="52" y="509"/>
      <point x="51" y="510" type="curve" smooth="yes"/>
      <point x="50" y="511"/>
      <point x="50" y="513"/>
      <point x="51" y="514" type="curve" smooth="yes"/>
      <point x="88" y="550" type="line" smooth="yes"/>
      <point x="89" y="552"/>
      <point x="91" y="552"/>
      <point x="92" y="550" type="curve" smooth="yes"/>
      <point x="93" y="549"/>
      <point x="93" y="547"/>
      <point x="92" y="546" type="curve" smooth="yes"/>
      <point x="55" y="510" type="line" smooth="yes"/>
      <point x="55" y="509"/>
      <point x="54" y="509"/>
    </contour>
  </outline>
</glyph>
<glyph name="uniE0E2" format="2">
  <unicode hex="E0E2"/>
  <outline>
    <contour>
      <point x="127" y="496" type="line"/>
      <point x="127" y="496"/>
      <point x="126" y="497"/>
      <point x="125" y="497" type="curve" smooth="yes"/>
      <point x="124" y="498"/>
      <point x="124" y="500"/>
      <point x="125" y="501" type="curve"/>
      <point x="153" y="529" type="line"/>
      <point x="154" y="530"/>
      <point x="156" y="530"/>
      <point x="157" y="529" type="curve" smooth="yes"/>
      <point x="158" y="528"/>
      <point x="158" y="526"/>
      <point x="157" y="525" type="curve"/>
      <point x="129" y="497" type="line"/>
      <point x="129" y="497"/>
      <point x="128" y="496"/>
      <point x="127" y="496" type="curve"/>
    </contour>
  </outline>
</glyph>
<glyph name="uniE0E4" format="2">
  <unicode hex="E0E4"/>
  <outline>
    <contour>
      <point x="84" y="477" type="curve" smooth="yes"/>
      <point x="84" y="477"/>
      <point x="83" y="478"/>
      <point x="82" y="478" type="curve" smooth="yes"/>
      <point x="81" y="479"/>
      <point x="81" y="481"/>
      <point x="82" y="482" type="curve" smooth="yes"/>
      <point x="113" y="513" type="line" smooth="yes"/>
      <point x="114" y="514"/>
      <point x="116" y="514"/>
      <point x="117" y="513" type="curve" smooth="yes"/>
      <point x="118" y="512"/>
      <point x="118" y="510"/>
      <point x="117" y="509" type="curve" smooth="yes"/>
      <point x="86" y="478" type="line"/>
      <point x="86" y="478"/>
      <point x="85" y="477"/>
    </contour>
  </outline>
</glyph>
<glyph name="uniE0E5" format="2">
  <unicode hex="E0E5"/>
  <outline>
    <contour>
      <point x="17" y="412" type="line"/>
      <point x="17" y="412"/>
      <point x="16" y="412"/>
      <point x="15" y="413" type="curve" smooth="yes"/>
      <point x="14" y="414"/>
      <point x="14" y="416"/>
      <point x="15" y="417" type="curve"/>
      <point x="41" y="442" type="line"/>
      <point x="42" y="444"/>
      <point x="44" y="444"/>
      <point x="45" y="442" type="curve" smooth="yes"/>
      <point x="46" y="441"/>
      <point x="46" y="439"/>
      <point x="45" y="438" type="curve"/>
      <point x="19" y="413" type="line"/>
      <point x="19" y="412"/>
      <point x="18" y="412"/>
      <point x="17" y="412" type="curve"/>
    </contour>
  </outline>
</glyph>
<glyph name="uniE0E6" format="2">
  <unicode hex="E0E6"/>
  <outline>
    <contour>
      <point x="17" y="389" type="line"/>
      <point x="17" y="389"/>
      <point x="16" y="389"/>
      <point x="15" y="390" type="curve" smooth="yes"/>
      <point x="14" y="391"/>
      <point x="14" y="393"/>
      <point x="15" y="394" type="curve"/>
      <point x="41" y="421" type="line"/>
      <point x="42" y="422"/>
      <point x="44" y="422"/>
      <point x="45" y="421" type="curve" smooth="yes"/>
      <point x="46" y="420"/>
      <point x="46" y="418"/>
      <point x="45" y="417" type="curve"/>
      <point x="19" y="390" type="line"/>
      <point x="19" y="389"/>
      <point x="18" y="389"/>
      <point x="17" y="389" type="curve"/>
    </contour>
  </outline>
</glyph>
<glyph name="uniE0E7" format="2">
  <unicode hex="E0E7"/>
  <outline>
    <contour>
      <point x="14" y="366" type="curve" smooth="yes"/>
      <point x="13" y="366"/>
      <point x="12" y="366"/>
      <point x="12" y="367" type="curve" smooth="yes"/>
      <point x="10" y="368"/>
      <point x="10" y="370"/>
      <point x="11" y="371" type="curve" smooth="yes"/>
      <point x="37" y="397" type="line" smooth="yes"/>
      <point x="38" y="399"/>
      <point x="40" y="399"/>
      <point x="41" y="398" type="curve" smooth="yes"/>
      <point x="43" y="396"/>
      <point x="43" y="394"/>
      <point x="41" y="393" type="curve" smooth="yes"/>
      <point x="16" y="367" type="line" smooth="yes"/>
      <point x="15" y="366"/>
      <point x="14" y="366"/>
    </contour>
  </outline>
</glyph>
<glyph name="uniE0E8" format="2">
  <unicode hex="E0E8"/>
  <outline>
    <contour>
      <point x="9" y="341" type="line"/>
      <point x="9" y="341"/>
      <point x="8" y="342"/>
      <point x="7" y="342" type="curve" smooth="yes"/>
      <point x="6" y="343"/>
      <point x="6" y="345"/>
      <point x="7" y="346" type="curve"/>
      <point x="33" y="373" type="line"/>
      <point x="34" y="374"/>
      <point x="36" y="374"/>
      <point x="37" y="373" type="curve" smooth="yes"/>
      <point x="38" y="372"/>
      <point x="38" y="370"/>
      <point x="37" y="369" type="curve"/>
      <point x="11" y="342" type="line"/>
      <point x="11" y="342"/>
      <point x="10" y="341"/>
      <point x="9" y="341" type="curve"/>
    </contour>
  </outline>
</glyph>
<glyph name="uniE0EB" format="2">
  <unicode hex="E0EB"/>
  <outline>
    <contour>
      <point x="31" y="179" type="curve" smooth="yes"/>
      <point x="31" y="179"/>
      <point x="30" y="180"/>
      <point x="29" y="180" type="curve" smooth="yes"/>
      <point x="28" y="181"/>
      <point x="28" y="183"/>
      <point x="29" y="184" type="curve" smooth="yes"/>
      <point x="55" y="211" type="line" smooth="yes"/>
      <point x="56" y="212"/>
      <point x="58" y="212"/>
      <point x="59" y="211" type="curve" smooth="yes"/>
      <point x="60" y="210"/>
      <point x="60" y="208"/>
      <point x="59" y="207" type="curve" smooth="yes"/>
      <point x="33" y="180" type="line"/>
      <point x="33" y="180"/>
      <point x="32" y="179"/>
    </contour>
  </outline>
</glyph>
<glyph name="uniE0EC" format="2">
  <unicode hex="E0EC"/>
  <outline>
    <contour>
      <point x="51" y="105" type="line"/>
      <point x="51" y="105"/>
      <point x="50" y="105"/>
      <point x="49" y="106" type="curve" smooth="yes"/>
      <point x="48" y="107"/>
      <point x="48" y="109"/>
      <point x="49" y="110" type="curve"/>
      <point x="118" y="179" type="line"/>
      <point x="119" y="180"/>
      <point x="121" y="180"/>
      <point x="122" y="179" type="curve" smooth="yes"/>
      <point x="124" y="178"/>
      <point x="124" y="176"/>
      <point x="122" y="175" type="curve"/>
      <point x="53" y="106" type="line"/>
      <point x="53" y="105"/>
      <point x="52" y="105"/>
      <point x="51" y="105" type="curve"/>
    </contour>
  </outline>
</glyph>
<glyph name="uniE0EE" format="2">
  <unicode hex="E0EE"/>
  <outline>
    <contour>
      <point x="51" y="49" type="curve" smooth="yes"/>
      <point x="50" y="49"/>
      <point x="49" y="49"/>
      <point x="48" y="50" type="curve" smooth="yes"/>
      <point x="47" y="51"/>
      <point x="47" y="53"/>
      <point x="48" y="54" type="curve" smooth="yes"/>
      <point x="80" y="86" type="line" smooth="yes"/>
      <point x="82" y="87"/>
      <point x="84" y="87"/>
      <point x="85" y="86" type="curve" smooth="yes"/>
      <point x="86" y="85"/>
      <point x="86" y="83"/>
      <point x="85" y="82" type="curve" smooth="yes"/>
      <point x="53" y="50" type="line" smooth="yes"/>
      <point x="52" y="49"/>
      <point x="51" y="49"/>
    </contour>
  </outline>
</glyph>
<glyph name="uniE0F0" format="2">
  <unicode hex="E0F0"/>
  <outline>
    <contour>
      <point x="51" y="15" type="curve" smooth="yes"/>
      <point x="50" y="15"/>
      <point x="49" y="15"/>
      <point x="48" y="16" type="curve" smooth="yes"/>
      <point x="47" y="17"/>
      <point x="47" y="19"/>
      <point x="48" y="20" type="curve" smooth="yes"/>
      <point x="80" y="52" type="line" smooth="yes"/>
      <point x="82" y="53"/>
      <point x="84" y="53"/>
      <point x="85" y="52" type="curve" smooth="yes"/>
      <point x="86" y="51"/>
      <point x="86" y="49"/>
      <point x="85" y="48" type="curve" smooth="yes"/>
      <point x="53" y="16" type="line" smooth="yes"/>
      <point x="52" y="15"/>
      <point x="51" y="15"/>
    </contour>
  </outline>
</glyph>
<glyph name="uniE140" format="2">
  <unicode hex="E140"/>
  <outline>
    <contour>
      <point x="167" y="507" type="curve" smooth="yes"/>
      <point x="183" y="507" type="line" smooth="yes"/>
      <point x="190" y="507"/>
      <point x="198" y="502"/>
      <point x="198" y="491" type="curve" smooth="yes"/>
      <point x="198" y="487"/>
      <point x="197" y="483"/>
      <point x="194" y="481" type="curve" smooth="yes"/>
      <point x="193" y="478"/>
      <point x="189" y="476"/>
      <point x="183" y="476" type="curve" smooth="yes"/>
      <point x="167" y="476" type="line" smooth="yes"/>
      <point x="165" y="476"/>
      <point x="164" y="477"/>
      <point x="164" y="479" type="curve" smooth="yes"/>
      <point x="164" y="504" type="line" smooth="yes"/>
      <point x="164" y="506"/>
      <point x="165" y="507"/>
    </contour>
    <contour>
      <point x="170" y="482" type="line"/>
      <point x="183" y="482" type="line" smooth="yes"/>
      <point x="186" y="482"/>
      <point x="188" y="483"/>
      <point x="190" y="484" type="curve" smooth="yes"/>
      <point x="191" y="486"/>
      <point x="192" y="488"/>
      <point x="192" y="491" type="curve" smooth="yes"/>
      <point x="192" y="496"/>
      <point x="189" y="501"/>
      <point x="183" y="501" type="curve" smooth="yes"/>
      <point x="170" y="501" type="line"/>
    </contour>
    <contour>
      <point x="150" y="117" type="curve" smooth="yes"/>
      <point x="150" y="174" type="line" smooth="yes"/>
      <point x="150" y="180"/>
      <point x="155" y="186"/>
      <point x="161" y="186" type="curve" smooth="yes"/>
      <point x="167" y="186"/>
      <point x="172" y="180"/>
      <point x="172" y="174" type="curve" smooth="yes"/>
      <point x="172" y="117" type="line" smooth="yes"/>
      <point x="172" y="111"/>
      <point x="167" y="106"/>
      <point x="161" y="106" type="curve" smooth="yes"/>
      <point x="155" y="106"/>
      <point x="150" y="111"/>
    </contour>
    <contour>
      <point x="166" y="117" type="curve" smooth="yes"/>
      <point x="166" y="174" type="line" smooth="yes"/>
      <point x="166" y="177"/>
      <point x="164" y="180"/>
      <point x="161" y="180" type="curve" smooth="yes"/>
      <point x="158" y="180"/>
      <point x="156" y="177"/>
      <point x="156" y="174" type="curve" smooth="yes"/>
      <point x="156" y="117" type="line" smooth="yes"/>
      <point x="156" y="114"/>
      <point x="158" y="112"/>
      <point x="161" y="112" type="curve" smooth="yes"/>
      <point x="164" y="112"/>
      <point x="166" y="114"/>
    </contour>
    <contour>
      <point x="93" y="324" type="curve" smooth="yes"/>
      <point x="117" y="324"/>
      <point x="135" y="305"/>
      <point x="135" y="282" type="curve" smooth="yes"/>
      <point x="135" y="258"/>
      <point x="117" y="240"/>
      <point x="93" y="240" type="curve" smooth="yes"/>
      <point x="70" y="240"/>
      <point x="51" y="258"/>
      <point x="51" y="282" type="curve" smooth="yes"/>
      <point x="51" y="305"/>
      <point x="70" y="324"/>
    </contour>
    <contour>
      <point x="93" y="246" type="curve" smooth="yes"/>
      <point x="113" y="246"/>
      <point x="129" y="262"/>
      <point x="129" y="282" type="curve" smooth="yes"/>
      <point x="129" y="302"/>
      <point x="113" y="318"/>
      <point x="93" y="318" type="curve" smooth="yes"/>
      <point x="73" y="318"/>
      <point x="57" y="302"/>
      <point x="57" y="282" type="curve" smooth="yes"/>
      <point x="57" y="262"/>
      <point x="73" y="246"/>
    </contour>
    <contour>
      <point x="93" y="187" type="curve" smooth="yes"/>
      <point x="117" y="187"/>
      <point x="135" y="168"/>
      <point x="135" y="145" type="curve" smooth="yes"/>
      <point x="135" y="121"/>
      <point x="117" y="103"/>
      <point x="93" y="103" type="curve" smooth="yes"/>
      <point x="70" y="103"/>
      <point x="51" y="121"/>
      <point x="51" y="145" type="curve" smooth="yes"/>
      <point x="51" y="168"/>
      <point x="70" y="187"/>
    </contour>
    <contour>
      <point x="93" y="109" type="curve" smooth="yes"/>
      <point x="113" y="109"/>
      <point x="129" y="125"/>
      <point x="129" y="145" type="curve" smooth="yes"/>
      <point x="129" y="165"/>
      <point x="113" y="181"/>
      <point x="93" y="181" type="curve" smooth="yes"/>
      <point x="73" y="181"/>
      <point x="57" y="165"/>
      <point x="57" y="145" type="curve" smooth="yes"/>
      <point x="57" y="125"/>
      <point x="73" y="109"/>
    </contour>
    <contour>
      <point x="56" y="88" type="curve" smooth="yes"/>
      <point x="69" y="86" type="line" smooth="yes"/>
      <point x="73" y="86"/>
      <point x="77" y="85"/>
      <point x="81" y="85" type="curve" smooth="yes"/>
      <point x="84" y="85"/>
      <point x="86" y="85"/>
      <point x="88" y="84" type="curve" smooth="yes"/>
      <point x="92" y="84"/>
      <point x="94" y="80"/>
      <point x="94" y="76" type="curve" smooth="yes"/>
      <point x="94" y="71"/>
      <point x="91" y="68"/>
      <point x="86" y="67" type="curve" smooth="yes"/>
      <point x="81" y="67"/>
      <point x="76" y="66"/>
      <point x="71" y="65" type="curve" smooth="yes"/>
      <point x="63" y="64"/>
      <point x="59" y="63"/>
      <point x="55" y="60" type="curve" smooth="yes"/>
      <point x="50" y="55"/>
      <point x="42" y="51"/>
      <point x="33" y="51" type="curve" smooth="yes"/>
      <point x="30" y="51"/>
      <point x="27" y="52"/>
      <point x="25" y="53" type="curve" smooth="yes"/>
      <point x="17" y="55"/>
      <point x="12" y="62"/>
      <point x="12" y="71" type="curve" smooth="yes"/>
      <point x="12" y="81"/>
      <point x="18" y="88"/>
      <point x="26" y="90" type="curve" smooth="yes"/>
      <point x="30" y="90"/>
      <point x="31" y="91"/>
      <point x="32" y="91" type="curve" smooth="yes"/>
      <point x="37" y="91"/>
      <point x="43" y="90"/>
      <point x="48" y="89" type="curve" smooth="yes"/>
      <point x="51" y="88"/>
      <point x="53" y="88"/>
    </contour>
    <contour>
      <point x="69" y="80" type="curve" smooth="yes"/>
      <point x="56" y="82" type="line" smooth="yes"/>
      <point x="53" y="82"/>
      <point x="50" y="82"/>
      <point x="47" y="83" type="curve" smooth="yes"/>
      <point x="42" y="84"/>
      <point x="37" y="85"/>
      <point x="32" y="85" type="curve" smooth="yes"/>
      <point x="31" y="85"/>
      <point x="30" y="84"/>
      <point x="29" y="84" type="curve" smooth="yes"/>
      <point x="27" y="84"/>
      <point x="17" y="76"/>
      <point x="17" y="71" type="curve" smooth="yes"/>
      <point x="18" y="65"/>
      <point x="21" y="60"/>
      <point x="27" y="58" type="curve" smooth="yes"/>
      <point x="29" y="58"/>
      <point x="31" y="57"/>
      <point x="33" y="57" type="curve" smooth="yes"/>
      <point x="40" y="57"/>
      <point x="47" y="60"/>
      <point x="51" y="64" type="curve" smooth="yes"/>
      <point x="56" y="69"/>
      <point x="62" y="70"/>
      <point x="68" y="71" type="curve" smooth="yes"/>
      <point x="75" y="72"/>
      <point x="80" y="73"/>
      <point x="86" y="73" type="curve" smooth="yes"/>
      <point x="87" y="73"/>
      <point x="88" y="74"/>
      <point x="88" y="76" type="curve" smooth="yes"/>
      <point x="88" y="79"/>
      <point x="84" y="79"/>
      <point x="82" y="79" type="curve" smooth="yes"/>
      <point x="76" y="79"/>
      <point x="72" y="80"/>
    </contour>
    <contour>
      <point x="78" y="59" type="curve" smooth="yes"/>
      <point x="84" y="59"/>
      <point x="88" y="58"/>
      <point x="91" y="55" type="curve" smooth="yes"/>
      <point x="93" y="53"/>
      <point x="94" y="50"/>
      <point x="94" y="46" type="curve" smooth="yes"/>
      <point x="94" y="39"/>
      <point x="89" y="32"/>
      <point x="80" y="32" type="curve" smooth="yes"/>
      <point x="71" y="34"/>
      <point x="59" y="36"/>
      <point x="59" y="36" type="curve" smooth="yes"/>
      <point x="58" y="37"/>
      <point x="54" y="42"/>
      <point x="54" y="45" type="curve" smooth="yes"/>
      <point x="54" y="46"/>
      <point x="57" y="54"/>
      <point x="61" y="56" type="curve" smooth="yes"/>
      <point x="61" y="56"/>
      <point x="73" y="57"/>
    </contour>
    <contour>
      <point x="79" y="38" type="curve" smooth="yes"/>
      <point x="85" y="38"/>
      <point x="88" y="41"/>
      <point x="88" y="46" type="curve" smooth="yes"/>
      <point x="88" y="48"/>
      <point x="88" y="50"/>
      <point x="87" y="51" type="curve" smooth="yes"/>
      <point x="85" y="53"/>
      <point x="82" y="53"/>
      <point x="80" y="53" type="curve" smooth="yes"/>
      <point x="79" y="53"/>
      <point x="68" y="52"/>
      <point x="63" y="50" type="curve" smooth="yes"/>
      <point x="61" y="49"/>
      <point x="60" y="48"/>
      <point x="60" y="46" type="curve" smooth="yes"/>
      <point x="60" y="43"/>
      <point x="78" y="38"/>
    </contour>
    <contour>
      <point x="69" y="5" type="curve" smooth="yes"/>
      <point x="56" y="3" type="line" smooth="yes"/>
      <point x="53" y="3"/>
      <point x="51" y="3"/>
      <point x="48" y="2" type="curve" smooth="yes"/>
      <point x="43" y="1"/>
      <point x="37" y="0"/>
      <point x="32" y="0" type="curve" smooth="yes"/>
      <point x="31" y="0"/>
      <point x="30" y="1"/>
      <point x="29" y="1" type="curve" smooth="yes"/>
      <point x="18" y="1"/>
      <point x="12" y="10"/>
      <point x="12" y="18" type="curve" smooth="yes"/>
      <point x="12" y="29"/>
      <point x="17" y="36"/>
      <point x="25" y="38" type="curve" smooth="yes"/>
      <point x="27" y="39"/>
      <point x="30" y="40"/>
      <point x="33" y="40" type="curve" smooth="yes"/>
      <point x="42" y="40"/>
      <point x="50" y="37"/>
      <point x="55" y="31" type="curve" smooth="yes"/>
      <point x="59" y="28"/>
      <point x="63" y="27"/>
      <point x="69" y="26" type="curve" smooth="yes"/>
      <point x="76" y="25"/>
      <point x="81" y="24"/>
      <point x="86" y="24" type="curve" smooth="yes"/>
      <point x="91" y="23"/>
      <point x="94" y="20"/>
      <point x="94" y="16" type="curve" smooth="yes"/>
      <point x="94" y="12"/>
      <point x="92" y="7"/>
      <point x="88" y="7" type="curve" smooth="yes"/>
      <point x="86" y="6"/>
      <point x="84" y="6"/>
      <point x="83" y="6" type="curve" smooth="yes"/>
      <point x="77" y="6"/>
      <point x="73" y="5"/>
    </contour>
    <contour>
      <point x="56" y="9" type="curve" smooth="yes"/>
      <point x="69" y="11" type="line" smooth="yes"/>
      <point x="72" y="11"/>
      <point x="76" y="12"/>
      <point x="80" y="12" type="curve" smooth="yes"/>
      <point x="84" y="12"/>
      <point x="85" y="12"/>
      <point x="87" y="13" type="curve" smooth="yes"/>
      <point x="87" y="15"/>
      <point x="87" y="18"/>
      <point x="86" y="18" type="curve" smooth="yes"/>
      <point x="80" y="18"/>
      <point x="75" y="19"/>
      <point x="70" y="20" type="curve" smooth="yes"/>
      <point x="62" y="21"/>
      <point x="56" y="22"/>
      <point x="51" y="27" type="curve" smooth="yes"/>
      <point x="47" y="31"/>
      <point x="40" y="34"/>
      <point x="33" y="34" type="curve" smooth="yes"/>
      <point x="31" y="34"/>
      <point x="29" y="33"/>
      <point x="27" y="33" type="curve" smooth="yes"/>
      <point x="21" y="31"/>
      <point x="18" y="26"/>
      <point x="17" y="20" type="curve" smooth="yes"/>
      <point x="17" y="13"/>
      <point x="21" y="8"/>
      <point x="27" y="7" type="curve" smooth="yes"/>
      <point x="30" y="7"/>
      <point x="31" y="6"/>
      <point x="32" y="6" type="curve" smooth="yes"/>
      <point x="37" y="6"/>
      <point x="42" y="7"/>
      <point x="47" y="8" type="curve" smooth="yes"/>
      <point x="50" y="9"/>
      <point x="53" y="9"/>
    </contour>
    <contour>
      <point x="46" y="227" type="curve" smooth="yes"/>
      <point x="85" y="227" type="line" smooth="yes"/>
      <point x="90" y="227"/>
      <point x="92" y="224"/>
      <point x="93" y="222" type="curve" smooth="yes"/>
      <point x="94" y="221"/>
      <point x="94" y="219"/>
      <point x="94" y="218" type="curve" smooth="yes"/>
      <point x="94" y="214"/>
      <point x="92" y="210"/>
      <point x="90" y="208" type="curve" smooth="yes"/>
      <point x="86" y="202"/>
      <point x="77" y="199"/>
      <point x="66" y="199" type="curve" smooth="yes"/>
      <point x="57" y="199"/>
      <point x="51" y="200"/>
      <point x="46" y="203" type="curve" smooth="yes"/>
      <point x="40" y="206"/>
      <point x="37" y="212"/>
      <point x="37" y="218" type="curve" smooth="yes"/>
      <point x="38" y="224"/>
      <point x="42" y="227"/>
    </contour>
    <contour>
      <point x="85" y="221" type="curve" smooth="yes"/>
      <point x="46" y="221" type="line" smooth="yes"/>
      <point x="45" y="221"/>
      <point x="44" y="220"/>
      <point x="43" y="218" type="curve" smooth="yes"/>
      <point x="43" y="213"/>
      <point x="45" y="210"/>
      <point x="48" y="208" type="curve" smooth="yes"/>
      <point x="53" y="206"/>
      <point x="59" y="205"/>
      <point x="66" y="205" type="curve" smooth="yes"/>
      <point x="75" y="205"/>
      <point x="83" y="207"/>
      <point x="86" y="212" type="curve" smooth="yes"/>
      <point x="87" y="214"/>
      <point x="88" y="218"/>
      <point x="88" y="220" type="curve"/>
      <point x="87" y="220"/>
      <point x="86" y="221"/>
    </contour>
    <contour>
      <point x="42" y="378" type="curve" smooth="yes"/>
      <point x="42" y="345" type="line" smooth="yes"/>
      <point x="42" y="337"/>
      <point x="39" y="332"/>
      <point x="36" y="330" type="curve" smooth="yes"/>
      <point x="33" y="326"/>
      <point x="28" y="324"/>
      <point x="24" y="324" type="curve" smooth="yes"/>
      <point x="17" y="325"/>
      <point x="11" y="329"/>
      <point x="11" y="336" type="curve" smooth="yes"/>
      <point x="11" y="371" type="line" smooth="yes"/>
      <point x="11" y="383"/>
      <point x="21" y="390"/>
      <point x="29" y="390" type="curve" smooth="yes"/>
      <point x="37" y="390"/>
      <point x="42" y="385"/>
    </contour>
    <contour>
      <point x="17" y="371" type="curve" smooth="yes"/>
      <point x="17" y="336" type="line" smooth="yes"/>
      <point x="17" y="332"/>
      <point x="21" y="330"/>
      <point x="24" y="330" type="curve" smooth="yes"/>
      <point x="27" y="330"/>
      <point x="30" y="332"/>
      <point x="32" y="334" type="curve" smooth="yes"/>
      <point x="35" y="336"/>
      <point x="36" y="340"/>
      <point x="36" y="345" type="curve" smooth="yes"/>
      <point x="36" y="378" type="line" smooth="yes"/>
      <point x="36" y="384"/>
      <point x="30" y="384"/>
      <point x="29" y="384" type="curve" smooth="yes"/>
      <point x="24" y="384"/>
      <point x="17" y="380"/>
    </contour>
    <contour>
      <point x="41" y="879" type="curve" smooth="yes"/>
      <point x="41" y="873" type="line" smooth="yes"/>
      <point x="41" y="868"/>
      <point x="40" y="863"/>
      <point x="39" y="859" type="curve" smooth="yes"/>
      <point x="36" y="851"/>
      <point x="29" y="847"/>
      <point x="22" y="847" type="curve" smooth="yes"/>
      <point x="17" y="847"/>
      <point x="13" y="848"/>
      <point x="10" y="850" type="curve" smooth="yes"/>
      <point x="4" y="855"/>
      <point x="2" y="862"/>
      <point x="1" y="868" type="curve" smooth="yes"/>
      <point x="1" y="874" type="line" smooth="yes"/>
      <point x="1" y="881"/>
      <point x="2" y="886"/>
      <point x="4" y="890" type="curve" smooth="yes"/>
      <point x="4" y="890"/>
      <point x="7" y="897"/>
      <point x="10" y="897" type="curve" smooth="yes"/>
      <point x="14" y="897"/>
      <point x="18" y="896"/>
      <point x="21" y="896" type="curve" smooth="yes"/>
      <point x="25" y="896"/>
      <point x="29" y="896"/>
      <point x="31" y="897" type="curve" smooth="yes"/>
      <point x="31" y="900"/>
      <point x="37" y="895"/>
      <point x="37" y="893" type="curve" smooth="yes"/>
      <point x="37" y="892"/>
      <point x="38" y="889"/>
      <point x="38" y="889" type="curve" smooth="yes"/>
      <point x="40" y="886"/>
      <point x="40" y="882"/>
    </contour>
    <contour>
      <point x="7" y="877" type="curve" smooth="yes"/>
      <point x="7" y="868" type="line" smooth="yes"/>
      <point x="8" y="862"/>
      <point x="10" y="857"/>
      <point x="13" y="855" type="curve" smooth="yes"/>
      <point x="15" y="854"/>
      <point x="19" y="853"/>
      <point x="22" y="853" type="curve" smooth="yes"/>
      <point x="27" y="853"/>
      <point x="31" y="856"/>
      <point x="33" y="861" type="curve" smooth="yes"/>
      <point x="34" y="865"/>
      <point x="35" y="869"/>
      <point x="35" y="874" type="curve" smooth="yes"/>
      <point x="35" y="879" type="line" smooth="yes"/>
      <point x="35" y="881"/>
      <point x="34" y="884"/>
      <point x="33" y="887" type="curve" smooth="yes"/>
      <point x="33" y="887"/>
      <point x="32" y="889"/>
      <point x="31" y="891" type="curve" smooth="yes"/>
      <point x="27" y="890"/>
      <point x="24" y="890"/>
      <point x="21" y="890" type="curve" smooth="yes"/>
      <point x="18" y="890"/>
      <point x="14" y="890"/>
      <point x="11" y="891" type="curve"/>
      <point x="11" y="889"/>
      <point x="9" y="888"/>
      <point x="9" y="887" type="curve" smooth="yes"/>
      <point x="8" y="885"/>
      <point x="7" y="881"/>
    </contour>
    <contour>
      <point x="21" y="901" type="curve" smooth="yes"/>
      <point x="15" y="901"/>
      <point x="11" y="903"/>
      <point x="8" y="907" type="curve" smooth="yes"/>
      <point x="4" y="912"/>
      <point x="2" y="920"/>
      <point x="2" y="929" type="curve" smooth="yes"/>
      <point x="2" y="939"/>
      <point x="4" y="950"/>
      <point x="5" y="956" type="curve" smooth="yes"/>
      <point x="5" y="963"/>
      <point x="11" y="998"/>
      <point x="20" y="998" type="curve" smooth="yes"/>
      <point x="23" y="998"/>
      <point x="28" y="998"/>
      <point x="34" y="960" type="curve" smooth="yes"/>
      <point x="35" y="960"/>
      <point x="35" y="958"/>
      <point x="35" y="957" type="curve" smooth="yes"/>
      <point x="35" y="956"/>
      <point x="36" y="954"/>
      <point x="36" y="953" type="curve" smooth="yes"/>
      <point x="37" y="946"/>
      <point x="39" y="937"/>
      <point x="39" y="928" type="curve" smooth="yes"/>
      <point x="39" y="920"/>
      <point x="37" y="912"/>
      <point x="33" y="907" type="curve" smooth="yes"/>
      <point x="30" y="903"/>
      <point x="26" y="901"/>
    </contour>
    <contour>
      <point x="12" y="957" type="curve" smooth="yes"/>
      <point x="8" y="953"/>
      <point x="8" y="936"/>
      <point x="8" y="930" type="curve" smooth="yes"/>
      <point x="8" y="922"/>
      <point x="9" y="915"/>
      <point x="13" y="911" type="curve" smooth="yes"/>
      <point x="14" y="909"/>
      <point x="17" y="907"/>
      <point x="21" y="907" type="curve" smooth="yes"/>
      <point x="24" y="907"/>
      <point x="27" y="908"/>
      <point x="29" y="911" type="curve" smooth="yes"/>
      <point x="32" y="914"/>
      <point x="33" y="920"/>
      <point x="33" y="927" type="curve" smooth="yes"/>
      <point x="33" y="938"/>
      <point x="30" y="950"/>
      <point x="29" y="956" type="curve" smooth="yes"/>
      <point x="29" y="957"/>
      <point x="29" y="958"/>
      <point x="28" y="959" type="curve" smooth="yes"/>
      <point x="26" y="975"/>
      <point x="23" y="987"/>
      <point x="21" y="991" type="curve"/>
      <point x="19" y="987"/>
      <point x="15" y="976"/>
    </contour>
    <contour>
      <point x="30" y="796" type="curve" smooth="yes"/>
      <point x="30" y="801" type="line" smooth="yes"/>
      <point x="30" y="808"/>
      <point x="32" y="815"/>
      <point x="34" y="819" type="curve" smooth="yes"/>
      <point x="37" y="825"/>
      <point x="43" y="828"/>
      <point x="48" y="828" type="curve" smooth="yes"/>
      <point x="53" y="828"/>
      <point x="57" y="824"/>
      <point x="57" y="819" type="curve" smooth="yes"/>
      <point x="57" y="780" type="line" smooth="yes"/>
      <point x="57" y="777"/>
      <point x="56" y="775"/>
      <point x="55" y="773" type="curve" smooth="yes"/>
      <point x="53" y="772"/>
      <point x="51" y="771"/>
      <point x="49" y="771" type="curve" smooth="yes"/>
      <point x="45" y="771"/>
      <point x="41" y="773"/>
      <point x="39" y="775" type="curve" smooth="yes"/>
      <point x="33" y="778"/>
      <point x="30" y="786"/>
    </contour>
    <contour>
      <point x="36" y="801" type="curve" smooth="yes"/>
      <point x="36" y="797" type="line" smooth="yes"/>
      <point x="36" y="788"/>
      <point x="38" y="782"/>
      <point x="42" y="780" type="curve" smooth="yes"/>
      <point x="44" y="778"/>
      <point x="47" y="777"/>
      <point x="49" y="777" type="curve" smooth="yes"/>
      <point x="51" y="778"/>
      <point x="51" y="778"/>
      <point x="51" y="780" type="curve" smooth="yes"/>
      <point x="51" y="780"/>
      <point x="51" y="780"/>
      <point x="51" y="819" type="curve" smooth="yes"/>
      <point x="51" y="821"/>
      <point x="50" y="822"/>
      <point x="48" y="822" type="curve" smooth="yes"/>
      <point x="45" y="822"/>
      <point x="41" y="820"/>
      <point x="39" y="817" type="curve" smooth="yes"/>
      <point x="37" y="813"/>
      <point x="36" y="807"/>
    </contour>
    <contour>
      <point x="82" y="840" type="curve"/>
      <point x="64" y="845"/>
      <point x="51" y="861"/>
      <point x="51" y="880" type="curve" smooth="yes"/>
      <point x="51" y="904"/>
      <point x="70" y="923"/>
      <point x="93" y="923" type="curve" smooth="yes"/>
      <point x="117" y="923"/>
      <point x="135" y="904"/>
      <point x="135" y="880" type="curve" smooth="yes"/>
      <point x="135" y="861"/>
      <point x="122" y="844"/>
      <point x="104" y="839" type="curve"/>
      <point x="110" y="836"/>
      <point x="113" y="830"/>
      <point x="113" y="823" type="curve" smooth="yes"/>
      <point x="113" y="812"/>
      <point x="104" y="803"/>
      <point x="93" y="803" type="curve" smooth="yes"/>
      <point x="82" y="803"/>
      <point x="73" y="812"/>
      <point x="73" y="823" type="curve" smooth="yes"/>
      <point x="73" y="830"/>
      <point x="76" y="836"/>
    </contour>
    <contour>
      <point x="93" y="809" type="curve" smooth="yes"/>
      <point x="100" y="809"/>
      <point x="107" y="815"/>
      <point x="107" y="823" type="curve" smooth="yes"/>
      <point x="107" y="831"/>
      <point x="100" y="837"/>
      <point x="93" y="837" type="curve" smooth="yes"/>
      <point x="85" y="837"/>
      <point x="79" y="831"/>
      <point x="79" y="823" type="curve" smooth="yes"/>
      <point x="79" y="815"/>
      <point x="85" y="809"/>
    </contour>
    <contour>
      <point x="93" y="917" type="curve" smooth="yes"/>
      <point x="74" y="917"/>
      <point x="57" y="900"/>
      <point x="57" y="880" type="curve" smooth="yes"/>
      <point x="57" y="861"/>
      <point x="74" y="844"/>
      <point x="93" y="844" type="curve" smooth="yes"/>
      <point x="113" y="844"/>
      <point x="129" y="861"/>
      <point x="129" y="880" type="curve" smooth="yes"/>
      <point x="129" y="900"/>
      <point x="113" y="917"/>
    </contour>
    <contour>
      <point x="93" y="866" type="curve" smooth="yes"/>
      <point x="85" y="866"/>
      <point x="79" y="872"/>
      <point x="79" y="881" type="curve" smooth="yes"/>
      <point x="79" y="889"/>
      <point x="85" y="895"/>
      <point x="93" y="895" type="curve" smooth="yes"/>
      <point x="101" y="895"/>
      <point x="108" y="889"/>
      <point x="108" y="881" type="curve" smooth="yes"/>
      <point x="108" y="872"/>
      <point x="101" y="866"/>
    </contour>
    <contour>
      <point x="93" y="889" type="curve" smooth="yes"/>
      <point x="89" y="889"/>
      <point x="85" y="885"/>
      <point x="85" y="881" type="curve" smooth="yes"/>
      <point x="85" y="876"/>
      <point x="89" y="872"/>
      <point x="93" y="872" type="curve" smooth="yes"/>
      <point x="98" y="872"/>
      <point x="102" y="876"/>
      <point x="102" y="881" type="curve" smooth="yes"/>
      <point x="102" y="885"/>
      <point x="98" y="889"/>
    </contour>
    <contour>
      <point x="158" y="515" type="curve" smooth="yes"/>
      <point x="138" y="515" type="line" smooth="yes"/>
      <point x="136" y="515"/>
      <point x="135" y="516"/>
      <point x="135" y="518" type="curve" smooth="yes"/>
      <point x="135" y="544"/>
      <point x="151" y="547"/>
      <point x="157" y="547" type="curve" smooth="yes"/>
      <point x="160" y="547"/>
      <point x="162" y="547"/>
      <point x="162" y="547" type="curve" smooth="yes"/>
      <point x="169" y="547"/>
      <point x="176" y="541"/>
      <point x="176" y="531" type="curve" smooth="yes"/>
      <point x="176" y="527"/>
      <point x="174" y="523"/>
      <point x="171" y="520" type="curve" smooth="yes"/>
      <point x="169" y="518"/>
      <point x="165" y="515"/>
    </contour>
    <contour>
      <point x="141" y="521" type="curve"/>
      <point x="158" y="521" type="line" smooth="yes"/>
      <point x="162" y="521"/>
      <point x="165" y="522"/>
      <point x="167" y="524" type="curve" smooth="yes"/>
      <point x="169" y="526"/>
      <point x="170" y="528"/>
      <point x="170" y="531" type="curve" smooth="yes"/>
      <point x="170" y="536"/>
      <point x="167" y="541"/>
      <point x="162" y="541" type="curve" smooth="yes"/>
      <point x="157" y="541" type="line" smooth="yes"/>
      <point x="150" y="541"/>
      <point x="142" y="538"/>
    </contour>
    <contour>
      <point x="134" y="318" type="curve" smooth="yes"/>
      <point x="124" y="318"/>
      <point x="118" y="327"/>
      <point x="118" y="336" type="curve" smooth="yes"/>
      <point x="118" y="344"/>
      <point x="124" y="353"/>
      <point x="134" y="353" type="curve" smooth="yes"/>
      <point x="147" y="353"/>
      <point x="166" y="343"/>
      <point x="166" y="336" type="curve" smooth="yes"/>
      <point x="166" y="329"/>
      <point x="149" y="318"/>
    </contour>
    <contour>
      <point x="134" y="347" type="curve" smooth="yes"/>
      <point x="127" y="347"/>
      <point x="124" y="341"/>
      <point x="124" y="336" type="curve" smooth="yes"/>
      <point x="124" y="330"/>
      <point x="127" y="324"/>
      <point x="134" y="324" type="curve" smooth="yes"/>
      <point x="147" y="324"/>
      <point x="159" y="333"/>
      <point x="160" y="336" type="curve" smooth="yes"/>
      <point x="159" y="339"/>
      <point x="145" y="347"/>
    </contour>
    <contour>
      <point x="93" y="347" type="curve" smooth="yes"/>
      <point x="70" y="347"/>
      <point x="51" y="365"/>
      <point x="51" y="389" type="curve" smooth="yes"/>
      <point x="51" y="412"/>
      <point x="70" y="431"/>
      <point x="93" y="431" type="curve" smooth="yes"/>
      <point x="117" y="431"/>
      <point x="135" y="412"/>
      <point x="135" y="389" type="curve" smooth="yes"/>
      <point x="135" y="365"/>
      <point x="117" y="347"/>
    </contour>
    <contour>
      <point x="93" y="425" type="curve" smooth="yes"/>
      <point x="73" y="425"/>
      <point x="57" y="409"/>
      <point x="57" y="389" type="curve" smooth="yes"/>
      <point x="57" y="369"/>
      <point x="73" y="353"/>
      <point x="93" y="353" type="curve" smooth="yes"/>
      <point x="113" y="353"/>
      <point x="129" y="369"/>
      <point x="129" y="389" type="curve" smooth="yes"/>
      <point x="129" y="409"/>
      <point x="113" y="425"/>
    </contour>
    <contour>
      <point x="93" y="585" type="curve" smooth="yes"/>
      <point x="70" y="585"/>
      <point x="51" y="603"/>
      <point x="51" y="627" type="curve" smooth="yes"/>
      <point x="51" y="650"/>
      <point x="70" y="669"/>
      <point x="93" y="669" type="curve" smooth="yes"/>
      <point x="117" y="669"/>
      <point x="135" y="650"/>
      <point x="135" y="627" type="curve" smooth="yes"/>
      <point x="135" y="603"/>
      <point x="117" y="585"/>
    </contour>
    <contour>
      <point x="93" y="663" type="curve" smooth="yes"/>
      <point x="73" y="663"/>
      <point x="57" y="647"/>
      <point x="57" y="627" type="curve" smooth="yes"/>
      <point x="57" y="607"/>
      <point x="73" y="591"/>
      <point x="93" y="591" type="curve" smooth="yes"/>
      <point x="113" y="591"/>
      <point x="129" y="607"/>
      <point x="129" y="627" type="curve" smooth="yes"/>
      <point x="129" y="647"/>
      <point x="113" y="663"/>
    </contour>
    <contour>
      <point x="51" y="737" type="curve" smooth="yes"/>
      <point x="51" y="760"/>
      <point x="70" y="779"/>
      <point x="93" y="779" type="curve" smooth="yes"/>
      <point x="117" y="779"/>
      <point x="135" y="760"/>
      <point x="135" y="737" type="curve" smooth="yes"/>
      <point x="135" y="714"/>
      <point x="117" y="695"/>
      <point x="93" y="695" type="curve" smooth="yes"/>
      <point x="70" y="695"/>
      <point x="51" y="714"/>
    </contour>
    <contour>
      <point x="129" y="737" type="curve" smooth="yes"/>
      <point x="129" y="757"/>
      <point x="113" y="773"/>
      <point x="93" y="773" type="curve" smooth="yes"/>
      <point x="73" y="773"/>
      <point x="57" y="757"/>
      <point x="57" y="737" type="curve" smooth="yes"/>
      <point x="57" y="717"/>
      <point x="73" y="701"/>
      <point x="93" y="701" type="curve" smooth="yes"/>
      <point x="113" y="701"/>
      <point x="129" y="717"/>
    </contour>
    <contour>
      <point x="134" y="808" type="curve" smooth="yes"/>
      <point x="147" y="808"/>
      <point x="166" y="798"/>
      <point x="166" y="791" type="curve" smooth="yes"/>
      <point x="166" y="784"/>
      <point x="149" y="773"/>
      <point x="134" y="773" type="curve" smooth="yes"/>
      <point x="124" y="773"/>
      <point x="118" y="782"/>
      <point x="118" y="791" type="curve" smooth="yes"/>
      <point x="118" y="799"/>
      <point x="124" y="808"/>
    </contour>
    <contour>
      <point x="134" y="779" type="curve" smooth="yes"/>
      <point x="147" y="779"/>
      <point x="159" y="788"/>
      <point x="160" y="791" type="curve" smooth="yes"/>
      <point x="159" y="794"/>
      <point x="145" y="802"/>
      <point x="134" y="802" type="curve" smooth="yes"/>
      <point x="127" y="802"/>
      <point x="124" y="796"/>
      <point x="124" y="791" type="curve" smooth="yes"/>
      <point x="124" y="785"/>
      <point x="127" y="779"/>
    </contour>
    <contour>
      <point x="166" y="682" type="curve" smooth="yes"/>
      <point x="166" y="675"/>
      <point x="149" y="664"/>
      <point x="134" y="664" type="curve" smooth="yes"/>
      <point x="124" y="664"/>
      <point x="118" y="673"/>
      <point x="118" y="682" type="curve" smooth="yes"/>
      <point x="118" y="690"/>
      <point x="124" y="699"/>
      <point x="134" y="699" type="curve" smooth="yes"/>
      <point x="147" y="699"/>
      <point x="166" y="689"/>
    </contour>
    <contour>
      <point x="134" y="670" type="curve" smooth="yes"/>
      <point x="147" y="670"/>
      <point x="159" y="679"/>
      <point x="160" y="682" type="curve" smooth="yes"/>
      <point x="159" y="685"/>
      <point x="145" y="693"/>
      <point x="134" y="693" type="curve" smooth="yes"/>
      <point x="127" y="693"/>
      <point x="124" y="687"/>
      <point x="124" y="682" type="curve" smooth="yes"/>
      <point x="124" y="676"/>
      <point x="127" y="670"/>
    </contour>
    <contour>
      <point x="107" y="541" type="curve" smooth="yes"/>
      <point x="118" y="534" type="line" smooth="yes"/>
      <point x="121" y="533"/>
      <point x="131" y="527"/>
      <point x="131" y="496" type="curve" smooth="yes"/>
      <point x="131" y="493"/>
      <point x="130" y="492"/>
      <point x="128" y="492" type="curve" smooth="yes"/>
      <point x="115" y="497"/>
      <point x="103" y="503"/>
      <point x="92" y="509" type="curve" smooth="yes"/>
      <point x="87" y="511"/>
      <point x="84" y="516"/>
      <point x="84" y="522" type="curve" smooth="yes"/>
      <point x="84" y="524"/>
      <point x="85" y="525"/>
      <point x="85" y="527" type="curve" smooth="yes"/>
      <point x="87" y="534"/>
      <point x="93" y="542"/>
      <point x="101" y="542" type="curve" smooth="yes"/>
      <point x="103" y="542"/>
      <point x="105" y="542"/>
    </contour>
    <contour>
      <point x="95" y="514" type="curve" smooth="yes"/>
      <point x="125" y="500" type="line"/>
      <point x="124" y="524"/>
      <point x="116" y="528"/>
      <point x="116" y="528" type="curve" smooth="yes"/>
      <point x="116" y="529"/>
      <point x="115" y="529"/>
      <point x="101" y="536" type="curve" smooth="yes"/>
      <point x="97" y="536"/>
      <point x="92" y="531"/>
      <point x="91" y="525" type="curve" smooth="yes"/>
      <point x="91" y="524"/>
      <point x="90" y="523"/>
      <point x="90" y="522" type="curve" smooth="yes"/>
      <point x="90" y="519"/>
      <point x="92" y="516"/>
    </contour>
    <contour>
      <point x="159" y="506" type="curve" smooth="yes"/>
      <point x="159" y="484" type="line" smooth="yes"/>
      <point x="159" y="471"/>
      <point x="153" y="465"/>
      <point x="146" y="465" type="curve" smooth="yes"/>
      <point x="141" y="465"/>
      <point x="135" y="470"/>
      <point x="135" y="484" type="curve" smooth="yes"/>
      <point x="135" y="506" type="line" smooth="yes"/>
      <point x="135" y="507"/>
      <point x="136" y="509"/>
      <point x="138" y="509" type="curve" smooth="yes"/>
      <point x="156" y="509" type="line" smooth="yes"/>
      <point x="157" y="509"/>
      <point x="159" y="507"/>
    </contour>
    <contour>
      <point x="141" y="503" type="line"/>
      <point x="141" y="484" type="line" smooth="yes"/>
      <point x="141" y="475"/>
      <point x="144" y="471"/>
      <point x="146" y="471" type="curve" smooth="yes"/>
      <point x="149" y="471"/>
      <point x="153" y="475"/>
      <point x="153" y="484" type="curve" smooth="yes"/>
      <point x="153" y="503" type="line"/>
    </contour>
    <contour>
      <point x="160" y="575" type="curve" smooth="yes"/>
      <point x="160" y="571" type="line" smooth="yes"/>
      <point x="160" y="567"/>
      <point x="159" y="564"/>
      <point x="157" y="561" type="curve" smooth="yes"/>
      <point x="154" y="557"/>
      <point x="150" y="555"/>
      <point x="146" y="555" type="curve" smooth="yes"/>
      <point x="106" y="555" type="line" smooth="yes"/>
      <point x="99" y="555"/>
      <point x="95" y="559"/>
      <point x="95" y="563" type="curve" smooth="yes"/>
      <point x="95" y="568"/>
      <point x="98" y="571"/>
      <point x="101" y="573" type="curve" smooth="yes"/>
      <point x="143" y="585" type="line" smooth="yes"/>
      <point x="145" y="585"/>
      <point x="147" y="586"/>
      <point x="149" y="586" type="curve" smooth="yes"/>
      <point x="154" y="586"/>
      <point x="158" y="582"/>
    </contour>
    <contour>
      <point x="106" y="561" type="curve" smooth="yes"/>
      <point x="146" y="561" type="line" smooth="yes"/>
      <point x="148" y="561"/>
      <point x="151" y="562"/>
      <point x="152" y="565" type="curve" smooth="yes"/>
      <point x="153" y="566"/>
      <point x="154" y="568"/>
      <point x="154" y="570" type="curve" smooth="yes"/>
      <point x="152" y="580"/>
      <point x="150" y="580"/>
      <point x="149" y="580" type="curve" smooth="yes"/>
      <point x="148" y="580"/>
      <point x="147" y="579"/>
      <point x="145" y="579" type="curve" smooth="yes"/>
      <point x="145" y="579"/>
      <point x="145" y="579"/>
      <point x="103" y="567" type="curve" smooth="yes"/>
      <point x="101" y="566"/>
      <point x="101" y="565"/>
      <point x="101" y="564" type="curve" smooth="yes"/>
      <point x="101" y="562"/>
      <point x="103" y="561"/>
    </contour>
    <contour>
      <point x="12" y="405" type="curve" smooth="yes"/>
      <point x="12" y="423" type="line" smooth="yes"/>
      <point x="12" y="432"/>
      <point x="21" y="440"/>
      <point x="38" y="443" type="curve" smooth="yes"/>
      <point x="40" y="443"/>
      <point x="41" y="441"/>
      <point x="41" y="440" type="curve" smooth="yes"/>
      <point x="41" y="412" type="line" smooth="yes"/>
      <point x="41" y="402"/>
      <point x="31" y="395"/>
      <point x="22" y="395" type="curve" smooth="yes"/>
      <point x="16" y="395"/>
      <point x="12" y="399"/>
    </contour>
    <contour>
      <point x="35" y="412" type="curve" smooth="yes"/>
      <point x="35" y="436" type="line"/>
      <point x="24" y="434"/>
      <point x="18" y="429"/>
      <point x="18" y="423" type="curve" smooth="yes"/>
      <point x="18" y="405" type="line" smooth="yes"/>
      <point x="18" y="402"/>
      <point x="19" y="401"/>
      <point x="22" y="401" type="curve" smooth="yes"/>
      <point x="27" y="401"/>
      <point x="35" y="406"/>
    </contour>
    <contour>
      <point x="35" y="460" type="curve" smooth="yes"/>
      <point x="152" y="460" type="line" smooth="yes"/>
      <point x="154" y="460"/>
      <point x="155" y="458"/>
      <point x="155" y="457" type="curve" smooth="yes"/>
      <point x="155" y="455"/>
      <point x="154" y="454"/>
      <point x="152" y="454" type="curve" smooth="yes"/>
      <point x="35" y="454" type="line" smooth="yes"/>
      <point x="33" y="454"/>
      <point x="32" y="455"/>
      <point x="32" y="457" type="curve" smooth="yes"/>
      <point x="32" y="458"/>
      <point x="33" y="460"/>
    </contour>
    <contour>
      <point x="162" y="839" type="curve" smooth="yes"/>
      <point x="156" y="839"/>
      <point x="152" y="846"/>
      <point x="148" y="859" type="curve" smooth="yes"/>
      <point x="146" y="871"/>
      <point x="144" y="887"/>
      <point x="144" y="903" type="curve" smooth="yes"/>
      <point x="144" y="920"/>
      <point x="146" y="935"/>
      <point x="148" y="947" type="curve" smooth="yes"/>
      <point x="152" y="960"/>
      <point x="156" y="967"/>
      <point x="162" y="967" type="curve" smooth="yes"/>
      <point x="168" y="967"/>
      <point x="172" y="960"/>
      <point x="175" y="947" type="curve" smooth="yes"/>
      <point x="178" y="935"/>
      <point x="180" y="920"/>
      <point x="180" y="903" type="curve" smooth="yes"/>
      <point x="180" y="887"/>
      <point x="178" y="871"/>
      <point x="175" y="859" type="curve" smooth="yes"/>
      <point x="172" y="846"/>
      <point x="168" y="839"/>
    </contour>
    <contour>
      <point x="162" y="961" type="curve" smooth="yes"/>
      <point x="158" y="961"/>
      <point x="150" y="941"/>
      <point x="150" y="903" type="curve" smooth="yes"/>
      <point x="150" y="866"/>
      <point x="158" y="845"/>
      <point x="162" y="845" type="curve" smooth="yes"/>
      <point x="166" y="845"/>
      <point x="174" y="866"/>
      <point x="174" y="903" type="curve" smooth="yes"/>
      <point x="174" y="941"/>
      <point x="166" y="961"/>
    </contour>
  </outline>
</glyph>
<glyph name="uniE141" format="2">
  <unicode hex="E141"/>
  <outline>
    <contour>
      <point x="20" y="995" type="curve" smooth="yes"/>
      <point x="27" y="995"/>
      <point x="31" y="965"/>
      <point x="31" y="958" type="curve" smooth="yes"/>
      <point x="32" y="952"/>
      <point x="36" y="938"/>
      <point x="36" y="926" type="curve" smooth="yes"/>
      <point x="36" y="914"/>
      <point x="32" y="904"/>
      <point x="21" y="904" type="curve" smooth="yes"/>
      <point x="8" y="904"/>
      <point x="5" y="916"/>
      <point x="5" y="929" type="curve" smooth="yes"/>
      <point x="5" y="941"/>
      <point x="8" y="955"/>
      <point x="9" y="958" type="curve" smooth="yes"/>
      <point x="10" y="964"/>
      <point x="16" y="995"/>
    </contour>
  </outline>
</glyph>
<glyph name="uniE142" format="2">
  <unicode hex="E142"/>
  <outline>
    <contour>
      <point x="7" y="891" type="curve"/>
      <point x="7" y="891" type="line"/>
      <point x="8" y="892"/>
      <point x="10" y="895"/>
      <point x="10" y="894" type="curve" smooth="yes"/>
      <point x="13" y="893"/>
      <point x="16" y="893"/>
      <point x="20" y="893" type="curve" smooth="yes"/>
      <point x="25" y="893"/>
      <point x="30" y="893"/>
      <point x="32" y="895" type="curve" smooth="yes"/>
      <point x="32" y="895"/>
      <point x="35" y="888"/>
      <point x="35" y="888" type="curve" smooth="yes"/>
      <point x="37" y="885"/>
      <point x="37" y="882"/>
      <point x="38" y="879" type="curve"/>
      <point x="38" y="874" type="line"/>
      <point x="38" y="869"/>
      <point x="37" y="864"/>
      <point x="36" y="860" type="curve" smooth="yes"/>
      <point x="34" y="854"/>
      <point x="28" y="850"/>
      <point x="22" y="850" type="curve" smooth="yes"/>
      <point x="18" y="850"/>
      <point x="14" y="851"/>
      <point x="12" y="853" type="curve" smooth="yes"/>
      <point x="7" y="856"/>
      <point x="5" y="862"/>
      <point x="4" y="868" type="curve"/>
      <point x="4" y="877" type="line"/>
      <point x="4" y="882"/>
      <point x="6" y="886"/>
    </contour>
  </outline>
</glyph>
<glyph name="uniE143" format="2">
  <unicode hex="E143"/>
  <outline>
    <contour>
      <point x="82" y="840" type="curve"/>
      <point x="64" y="845"/>
      <point x="51" y="861"/>
      <point x="51" y="880" type="curve" smooth="yes"/>
      <point x="51" y="904"/>
      <point x="70" y="923"/>
      <point x="93" y="923" type="curve" smooth="yes"/>
      <point x="117" y="923"/>
      <point x="135" y="904"/>
      <point x="135" y="880" type="curve" smooth="yes"/>
      <point x="135" y="861"/>
      <point x="122" y="844"/>
      <point x="104" y="839" type="curve"/>
      <point x="110" y="836"/>
      <point x="113" y="830"/>
      <point x="113" y="823" type="curve" smooth="yes"/>
      <point x="113" y="812"/>
      <point x="104" y="803"/>
      <point x="93" y="803" type="curve" smooth="yes"/>
      <point x="82" y="803"/>
      <point x="73" y="812"/>
      <point x="73" y="823" type="curve" smooth="yes"/>
      <point x="73" y="830"/>
      <point x="76" y="836"/>
    </contour>
  </outline>
</glyph>
<glyph name="uniE144" format="2">
  <unicode hex="E144"/>
  <outline>
    <contour>
      <point x="162" y="839" type="line"/>
      <point x="168" y="839"/>
      <point x="172" y="846"/>
      <point x="175" y="859" type="curve" smooth="yes"/>
      <point x="178" y="871"/>
      <point x="180" y="887"/>
      <point x="180" y="903" type="curve" smooth="yes"/>
      <point x="180" y="920"/>
      <point x="178" y="935"/>
      <point x="175" y="947" type="curve" smooth="yes"/>
      <point x="172" y="960"/>
      <point x="168" y="967"/>
      <point x="162" y="967" type="curve" smooth="yes"/>
      <point x="156" y="967"/>
      <point x="152" y="960"/>
      <point x="148" y="947" type="curve"/>
      <point x="146" y="935"/>
      <point x="144" y="920"/>
      <point x="144" y="903" type="curve" smooth="yes"/>
      <point x="144" y="887"/>
      <point x="146" y="871"/>
      <point x="148" y="859" type="curve"/>
      <point x="152" y="846"/>
      <point x="156" y="839"/>
      <point x="162" y="839" type="curve"/>
    </contour>
  </outline>
</glyph>
<glyph name="uniE145" format="2">
  <unicode hex="E145"/>
  <outline>
    <contour>
      <point x="54" y="780" type="line"/>
      <point x="54" y="819" type="line" smooth="yes"/>
      <point x="54" y="823"/>
      <point x="52" y="825"/>
      <point x="48" y="825" type="curve" smooth="yes"/>
      <point x="44" y="825"/>
      <point x="39" y="823"/>
      <point x="36" y="818" type="curve" smooth="yes"/>
      <point x="34" y="814"/>
      <point x="32" y="807"/>
      <point x="32" y="800" type="curve" smooth="yes"/>
      <point x="32" y="791"/>
      <point x="35" y="781"/>
      <point x="41" y="777" type="curve" smooth="yes"/>
      <point x="43" y="776"/>
      <point x="46" y="774"/>
      <point x="49" y="774" type="curve" smooth="yes"/>
      <point x="52" y="774"/>
      <point x="54" y="776"/>
      <point x="54" y="780" type="curve"/>
    </contour>
  </outline>
</glyph>
<glyph name="uniE146" format="2">
  <unicode hex="E146"/>
  <outline>
    <contour>
      <point x="134" y="808" type="line"/>
      <point x="124" y="808"/>
      <point x="118" y="799"/>
      <point x="118" y="791" type="curve" smooth="yes"/>
      <point x="118" y="782"/>
      <point x="124" y="773"/>
      <point x="134" y="773" type="curve" smooth="yes"/>
      <point x="149" y="773"/>
      <point x="166" y="784"/>
      <point x="166" y="791" type="curve" smooth="yes"/>
      <point x="166" y="798"/>
      <point x="147" y="808"/>
      <point x="134" y="808" type="curve"/>
    </contour>
  </outline>
</glyph>
<glyph name="uniE147" format="2">
  <unicode hex="E147"/>
  <outline>
    <contour>
      <point x="51" y="737" type="line"/>
      <point x="51" y="714"/>
      <point x="70" y="695"/>
      <point x="93" y="695" type="curve" smooth="yes"/>
      <point x="117" y="695"/>
      <point x="135" y="714"/>
      <point x="135" y="737" type="curve" smooth="yes"/>
      <point x="135" y="760"/>
      <point x="117" y="779"/>
      <point x="93" y="779" type="curve" smooth="yes"/>
      <point x="70" y="779"/>
      <point x="51" y="760"/>
      <point x="51" y="737" type="curve"/>
    </contour>
  </outline>
</glyph>
<glyph name="uniE148" format="2">
  <unicode hex="E148"/>
  <outline>
    <contour>
      <point x="166" y="682" type="curve" smooth="yes"/>
      <point x="166" y="675"/>
      <point x="149" y="664"/>
      <point x="134" y="664" type="curve" smooth="yes"/>
      <point x="124" y="664"/>
      <point x="118" y="673"/>
      <point x="118" y="682" type="curve" smooth="yes"/>
      <point x="118" y="690"/>
      <point x="124" y="699"/>
      <point x="134" y="699" type="curve" smooth="yes"/>
      <point x="147" y="699"/>
      <point x="166" y="689"/>
    </contour>
  </outline>
</glyph>
<glyph name="uniE149" format="2">
  <unicode hex="E149"/>
  <outline>
    <contour>
      <point x="93" y="585" type="line"/>
      <point x="117" y="585"/>
      <point x="135" y="603"/>
      <point x="135" y="627" type="curve" smooth="yes"/>
      <point x="135" y="650"/>
      <point x="117" y="669"/>
      <point x="93" y="669" type="curve" smooth="yes"/>
      <point x="70" y="669"/>
      <point x="51" y="650"/>
      <point x="51" y="627" type="curve" smooth="yes"/>
      <point x="51" y="603"/>
      <point x="70" y="585"/>
      <point x="93" y="585" type="curve"/>
    </contour>
  </outline>
</glyph>
<glyph name="uniE14A" format="2">
  <unicode hex="E14A"/>
  <outline>
    <contour>
      <point x="106" y="558" type="curve" smooth="yes"/>
      <point x="100" y="558"/>
      <point x="98" y="561"/>
      <point x="98" y="564" type="curve" smooth="yes"/>
      <point x="98" y="566"/>
      <point x="99" y="569"/>
      <point x="102" y="570" type="curve" smooth="yes"/>
      <point x="144" y="582" type="line" smooth="yes"/>
      <point x="146" y="582"/>
      <point x="147" y="583"/>
      <point x="148" y="583" type="curve" smooth="yes"/>
      <point x="151" y="583"/>
      <point x="155" y="581"/>
      <point x="157" y="571" type="curve" smooth="yes"/>
      <point x="157" y="563"/>
      <point x="151" y="558"/>
      <point x="146" y="558" type="curve" smooth="yes"/>
      <point x="139" y="558"/>
      <point x="106" y="558"/>
    </contour>
  </outline>
</glyph>
<glyph name="uniE14B" format="2">
  <unicode hex="E14B"/>
  <outline>
    <contour>
      <point x="138" y="518" type="line"/>
      <point x="138" y="541"/>
      <point x="151" y="544"/>
      <point x="158" y="544" type="curve" smooth="yes"/>
      <point x="161" y="544"/>
      <point x="162" y="544"/>
      <point x="162" y="544" type="curve" smooth="yes"/>
      <point x="168" y="544"/>
      <point x="173" y="537"/>
      <point x="173" y="531" type="curve" smooth="yes"/>
      <point x="173" y="524"/>
      <point x="168" y="518"/>
      <point x="158" y="518" type="curve" smooth="yes"/>
    </contour>
  </outline>
</glyph>
<glyph name="uniE14C" format="2">
  <unicode hex="E14C"/>
  <outline>
    <contour>
      <point x="107" y="541" type="line" smooth="yes"/>
      <point x="105" y="542"/>
      <point x="103" y="542"/>
      <point x="101" y="542" type="curve" smooth="yes"/>
      <point x="93" y="542"/>
      <point x="87" y="534"/>
      <point x="85" y="527" type="curve" smooth="yes"/>
      <point x="85" y="525"/>
      <point x="84" y="524"/>
      <point x="84" y="522" type="curve" smooth="yes"/>
      <point x="84" y="516"/>
      <point x="87" y="511"/>
      <point x="92" y="509" type="curve" smooth="yes"/>
      <point x="103" y="503"/>
      <point x="115" y="497"/>
      <point x="128" y="492" type="curve"/>
      <point x="130" y="492"/>
      <point x="131" y="493"/>
      <point x="131" y="496" type="curve" smooth="yes"/>
      <point x="131" y="527"/>
      <point x="121" y="533"/>
      <point x="118" y="534" type="curve" smooth="yes"/>
    </contour>
  </outline>
</glyph>
